G04 #@! TF.GenerationSoftware,KiCad,Pcbnew,10.0.3*
G04 #@! TF.CreationDate,2026-07-12T18:44:24+02:00*
G04 #@! TF.ProjectId,usb-c-expansion-card,7573622d-632d-4657-9870-616e73696f6e,1.0*
G04 #@! TF.SameCoordinates,Original*
G04 #@! TF.FileFunction,Copper,L1,Top*
G04 #@! TF.FilePolarity,Positive*
%FSLAX46Y46*%
G04 Gerber Fmt 4.6, Leading zero omitted, Abs format (unit mm)*
G04 Created by KiCad (PCBNEW 10.0.3) date 2026-07-12 18:44:24*
%MOMM*%
%LPD*%
G01*
G04 APERTURE LIST*
G04 Aperture macros list*
%AMRoundRect*
0 Rectangle with rounded corners*
0 $1 Rounding radius*
0 $2 $3 $4 $5 $6 $7 $8 $9 X,Y pos of 4 corners*
0 Add a 4 corners polygon primitive as box body*
4,1,4,$2,$3,$4,$5,$6,$7,$8,$9,$2,$3,0*
0 Add four circle primitives for the rounded corners*
1,1,$1+$1,$2,$3*
1,1,$1+$1,$4,$5*
1,1,$1+$1,$6,$7*
1,1,$1+$1,$8,$9*
0 Add four rect primitives between the rounded corners*
20,1,$1+$1,$2,$3,$4,$5,0*
20,1,$1+$1,$4,$5,$6,$7,0*
20,1,$1+$1,$6,$7,$8,$9,0*
20,1,$1+$1,$8,$9,$2,$3,0*%
G04 Aperture macros list end*
G04 #@! TA.AperFunction,SMDPad,CuDef*
%ADD10RoundRect,0.218750X0.256250X-0.218750X0.256250X0.218750X-0.256250X0.218750X-0.256250X-0.218750X0*%
G04 #@! TD*
G04 #@! TA.AperFunction,SMDPad,CuDef*
%ADD11RoundRect,0.075000X-0.075000X-0.275000X0.075000X-0.275000X0.075000X0.275000X-0.075000X0.275000X0*%
G04 #@! TD*
G04 #@! TA.AperFunction,SMDPad,CuDef*
%ADD12RoundRect,0.175000X-0.325000X-0.175000X0.325000X-0.175000X0.325000X0.175000X-0.325000X0.175000X0*%
G04 #@! TD*
G04 #@! TA.AperFunction,ComponentPad*
%ADD13O,1.100000X2.100000*%
G04 #@! TD*
G04 #@! TA.AperFunction,ComponentPad*
%ADD14O,1.100000X2.600000*%
G04 #@! TD*
G04 #@! TA.AperFunction,SMDPad,CuDef*
%ADD15R,0.380000X1.000000*%
G04 #@! TD*
G04 #@! TA.AperFunction,SMDPad,CuDef*
%ADD16R,0.700000X1.150000*%
G04 #@! TD*
G04 #@! TA.AperFunction,SMDPad,CuDef*
%ADD17RoundRect,0.150000X-0.150000X0.512500X-0.150000X-0.512500X0.150000X-0.512500X0.150000X0.512500X0*%
G04 #@! TD*
G04 #@! TA.AperFunction,ComponentPad*
%ADD18C,3.800000*%
G04 #@! TD*
G04 #@! TA.AperFunction,ViaPad*
%ADD19C,0.250000*%
G04 #@! TD*
G04 #@! TA.AperFunction,ViaPad*
%ADD20C,0.600000*%
G04 #@! TD*
G04 #@! TA.AperFunction,Conductor*
%ADD21C,0.289000*%
G04 #@! TD*
G04 #@! TA.AperFunction,Conductor*
%ADD22C,0.200000*%
G04 #@! TD*
G04 #@! TA.AperFunction,Conductor*
%ADD23C,0.152400*%
G04 #@! TD*
G04 APERTURE END LIST*
D10*
X134775000Y-146712500D03*
X134775000Y-145137500D03*
X133725000Y-143362500D03*
X133725000Y-141787500D03*
X146450000Y-143662500D03*
X146450000Y-142087500D03*
D11*
X137000000Y-149265000D03*
X137500000Y-149265000D03*
X138000000Y-149265000D03*
X138500000Y-149265000D03*
X139000000Y-149265000D03*
X139500000Y-149265000D03*
X140500000Y-149265000D03*
X141000000Y-149265000D03*
X141500000Y-149265000D03*
X142000000Y-149265000D03*
X142500000Y-149265000D03*
X143000000Y-149265000D03*
D12*
X143100000Y-150565000D03*
D11*
X142250000Y-150565000D03*
X141750000Y-150565000D03*
X141250000Y-150565000D03*
X140750000Y-150565000D03*
X140250000Y-150565000D03*
X139750000Y-150565000D03*
X139250000Y-150565000D03*
X138750000Y-150565000D03*
X138250000Y-150565000D03*
X137750000Y-150565000D03*
D12*
X136900000Y-150565000D03*
D13*
X135680000Y-149675000D03*
D14*
X135680000Y-155035000D03*
D13*
X144320000Y-149675000D03*
D14*
X144320000Y-155035000D03*
D15*
X137240000Y-129040000D03*
X137740000Y-129040000D03*
X138240000Y-129040000D03*
X138740000Y-129040000D03*
X139240000Y-129040000D03*
X139740000Y-129040000D03*
X140240000Y-129040000D03*
X140740000Y-129040000D03*
X141240000Y-129040000D03*
X141740000Y-129040000D03*
X142240000Y-129040000D03*
X142740000Y-129040000D03*
D16*
X136570000Y-129880000D03*
D17*
X138037500Y-139937500D03*
X137087500Y-139937500D03*
X136137500Y-139937500D03*
X136137500Y-142212500D03*
X137087500Y-142212500D03*
X138037500Y-142212500D03*
X143250000Y-139862500D03*
X142300000Y-139862500D03*
X141350000Y-139862500D03*
X141350000Y-142137500D03*
X142300000Y-142137500D03*
X143250000Y-142137500D03*
D10*
X142500000Y-147187500D03*
X142500000Y-145612500D03*
X148925000Y-143637500D03*
X148925000Y-142062500D03*
D18*
X151275000Y-146500000D03*
D17*
X140900000Y-144787500D03*
X139950000Y-144787500D03*
X139000000Y-144787500D03*
X139000000Y-147062500D03*
X139950000Y-147062500D03*
X140900000Y-147062500D03*
D10*
X137325000Y-146662500D03*
X137325000Y-145087500D03*
X145000000Y-147162500D03*
X145000000Y-145587500D03*
X130625000Y-143362500D03*
X130625000Y-141787500D03*
D18*
X128700000Y-146500000D03*
D19*
X127925500Y-133670690D03*
X130925500Y-151857222D03*
X144425500Y-151857222D03*
X147425500Y-133670690D03*
X132425500Y-151857222D03*
X145925500Y-128474538D03*
X149675500Y-137567804D03*
X133175500Y-153156260D03*
X134675500Y-153156260D03*
X151925500Y-154455298D03*
X128675500Y-140165880D03*
X151925500Y-131072614D03*
X130925500Y-141464918D03*
X134675500Y-129773576D03*
X151175500Y-134969728D03*
X132425500Y-133670690D03*
X137675500Y-145362032D03*
X145175500Y-153156260D03*
X145925500Y-151857222D03*
X148175500Y-150558184D03*
X127925500Y-154455298D03*
X129425500Y-128474538D03*
X133925500Y-128474538D03*
X145175500Y-132371652D03*
X144425500Y-131072614D03*
X128675500Y-129773576D03*
X137675500Y-137567804D03*
X130175500Y-132371652D03*
X151925500Y-136268766D03*
X140675500Y-134969728D03*
X151175500Y-140165880D03*
X129425500Y-141464918D03*
X136925500Y-138866842D03*
X145175500Y-129773576D03*
X129425500Y-151857222D03*
X150425500Y-133670690D03*
X131675500Y-153156260D03*
X130925500Y-154455298D03*
X142175500Y-147960108D03*
X150425500Y-128474538D03*
X133925500Y-136268766D03*
X135425500Y-131072614D03*
X148925500Y-154455298D03*
X128675500Y-150558184D03*
X140675500Y-142763956D03*
X150425500Y-154455298D03*
X133925500Y-131072614D03*
X145925500Y-149259146D03*
X152675500Y-140165880D03*
X152675500Y-132371652D03*
X127925500Y-144062994D03*
X131675500Y-150558184D03*
X150425500Y-138866842D03*
X152675500Y-150558184D03*
X147425500Y-149259146D03*
X152675500Y-137567804D03*
X145175500Y-145362032D03*
X151925500Y-138866842D03*
X149675500Y-142763956D03*
X133175500Y-150558184D03*
X149675500Y-150558184D03*
X133175500Y-140165880D03*
X143675500Y-134969728D03*
X128675500Y-137567804D03*
X130925500Y-133670690D03*
X127925500Y-138866842D03*
X133925500Y-151857222D03*
X139925500Y-144062994D03*
X151925500Y-151857222D03*
X136175500Y-134969728D03*
X152675500Y-134969728D03*
X139175500Y-140165880D03*
X136175500Y-137567804D03*
X148175500Y-129773576D03*
X139175500Y-142763956D03*
X132425500Y-146661070D03*
X130175500Y-129773576D03*
X151175500Y-129773576D03*
X131675500Y-132371652D03*
X132425500Y-149259146D03*
X133925500Y-133670690D03*
X148925500Y-141464918D03*
X130175500Y-140165880D03*
X129425500Y-154455298D03*
X145925500Y-131072614D03*
X151925500Y-141464918D03*
X128675500Y-132371652D03*
X151175500Y-137567804D03*
X132425500Y-128474538D03*
X148175500Y-132371652D03*
X148925500Y-138866842D03*
X127925500Y-149259146D03*
X151175500Y-155754336D03*
X148925500Y-133670690D03*
X132425500Y-131072614D03*
X131675500Y-155754336D03*
X127925500Y-151857222D03*
X149675500Y-153156260D03*
X129425500Y-133670690D03*
X150425500Y-144062994D03*
X130925500Y-136268766D03*
X146675500Y-137567804D03*
X140675500Y-140165880D03*
X130925500Y-131072614D03*
X151175500Y-150558184D03*
X130925500Y-138866842D03*
X146675500Y-147960108D03*
X133925500Y-154455298D03*
X129425500Y-131072614D03*
X138425500Y-138866842D03*
X146675500Y-142763956D03*
X151925500Y-133670690D03*
X147425500Y-128474538D03*
X129425500Y-149259146D03*
X129425500Y-144062994D03*
X148175500Y-147960108D03*
X131675500Y-147960108D03*
X129425500Y-138866842D03*
X151925500Y-144062994D03*
X151175500Y-153156260D03*
X148925500Y-146661070D03*
X148925500Y-131072614D03*
X145925500Y-141464918D03*
X130175500Y-153156260D03*
X148925500Y-136268766D03*
X148925500Y-128474538D03*
X135425500Y-151857222D03*
X148175500Y-155754336D03*
X142175500Y-145362032D03*
X136925500Y-144062994D03*
X137675500Y-134969728D03*
X149675500Y-134969728D03*
X136925500Y-131072614D03*
X133175500Y-137567804D03*
X152675500Y-153156260D03*
X133175500Y-129773576D03*
X143675500Y-153156260D03*
X146675500Y-129773576D03*
X149675500Y-132371652D03*
X146675500Y-132371652D03*
X133925500Y-141464918D03*
X146675500Y-155754336D03*
X138425500Y-133670690D03*
X130925500Y-128474538D03*
X147425500Y-154455298D03*
X148175500Y-153156260D03*
X140675500Y-132371652D03*
X146675500Y-145362032D03*
X131675500Y-134969728D03*
X132425500Y-154455298D03*
X149675500Y-155754336D03*
X150425500Y-151857222D03*
X136925500Y-136268766D03*
X129425500Y-136268766D03*
X146675500Y-153156260D03*
X136925500Y-133670690D03*
X150425500Y-149259146D03*
X145925500Y-138866842D03*
X145925500Y-154455298D03*
X133925500Y-149259146D03*
X152675500Y-155754336D03*
X133175500Y-147960108D03*
X128675500Y-134969728D03*
X131675500Y-145362032D03*
X136175500Y-153156260D03*
X145925500Y-133670690D03*
X150425500Y-136268766D03*
X130925500Y-149259146D03*
X133175500Y-134969728D03*
X145925500Y-136268766D03*
X148925500Y-149259146D03*
X142925500Y-131072614D03*
X130175500Y-155754336D03*
X133925500Y-138866842D03*
X128675500Y-153156260D03*
X134675500Y-147960108D03*
X133175500Y-155754336D03*
X148925500Y-151857222D03*
X130175500Y-150558184D03*
X151175500Y-132371652D03*
X130925500Y-146661070D03*
X145175500Y-147960108D03*
X147425500Y-131072614D03*
X150425500Y-131072614D03*
X128675500Y-142763956D03*
X130175500Y-137567804D03*
X149675500Y-140165880D03*
X151925500Y-149259146D03*
X138425500Y-136268766D03*
X148175500Y-134969728D03*
X134675500Y-145362032D03*
X147425500Y-151857222D03*
X127925500Y-141464918D03*
X127925500Y-136268766D03*
X130175500Y-134969728D03*
X152675500Y-142763956D03*
X149675500Y-129773576D03*
X131675500Y-129773576D03*
X133175500Y-132371652D03*
X127925500Y-131072614D03*
X146675500Y-150558184D03*
X143675500Y-137567804D03*
X140675500Y-137567804D03*
X134675500Y-132371652D03*
X128675500Y-155754336D03*
X151175500Y-142763956D03*
X150425500Y-141464918D03*
X146675500Y-140165880D03*
D20*
X133725000Y-143362500D03*
D19*
X138250000Y-150565000D03*
D20*
X146450000Y-143662500D03*
D19*
X141750000Y-150565000D03*
X138500000Y-149265000D03*
X141500000Y-149265000D03*
X138740000Y-129040000D03*
X141240000Y-129040000D03*
X139500000Y-149250000D03*
X140250000Y-150565000D03*
D20*
X148925000Y-143637500D03*
D19*
X142250000Y-150565000D03*
X136137500Y-142212500D03*
X140750000Y-150565000D03*
X139250000Y-150565000D03*
X141350000Y-142137500D03*
D20*
X130625000Y-143362500D03*
D19*
X137750000Y-150565000D03*
X136137500Y-139937500D03*
X141350000Y-139862500D03*
D21*
X137785500Y-129995206D02*
X137794232Y-130003938D01*
X135870500Y-145617000D02*
X135870500Y-144234708D01*
X137785500Y-129835501D02*
X137785500Y-129995206D01*
X137500000Y-149265000D02*
X137545500Y-149219500D01*
X134775000Y-146712500D02*
X135870500Y-145617000D01*
X135870500Y-147509708D02*
X135870500Y-147100000D01*
X137794232Y-131216560D02*
X137794232Y-130003938D01*
X137220604Y-148643500D02*
X137004292Y-148643500D01*
X135870500Y-144234708D02*
X134745500Y-143109708D01*
X134745500Y-134265292D02*
X137794232Y-131216560D01*
D22*
X134775000Y-146712500D02*
X135483000Y-146712500D01*
D21*
X137740000Y-129790001D02*
X137785500Y-129835501D01*
D22*
X135483000Y-146712500D02*
X135870500Y-147100000D01*
D21*
X137004292Y-148643500D02*
X135870500Y-147509708D01*
X137545500Y-148968396D02*
X137220604Y-148643500D01*
X137740000Y-129040000D02*
X137740000Y-129790001D01*
X134745500Y-143109708D02*
X134745500Y-134265292D01*
X137545500Y-149219500D02*
X137545500Y-148968396D01*
X138000000Y-149265000D02*
X137956480Y-149221480D01*
D22*
X137325000Y-146662500D02*
X137318750Y-146656250D01*
D21*
X135154500Y-134434708D02*
X135154500Y-142940292D01*
X137390837Y-148232520D02*
X137174526Y-148232520D01*
X136279500Y-147337494D02*
X136279500Y-147100000D01*
X136279500Y-144065292D02*
X136279500Y-145617000D01*
X135154500Y-142940292D02*
X136279500Y-144065292D01*
X137956480Y-148798163D02*
X137390837Y-148232520D01*
X138240000Y-129040000D02*
X138240000Y-129790001D01*
X138203232Y-129847422D02*
X138203232Y-131385976D01*
X138194500Y-129838690D02*
X138203232Y-129847422D01*
X138240000Y-129790001D02*
X138194500Y-129835501D01*
X138194500Y-129835501D02*
X138194500Y-129838690D01*
X137956480Y-149221480D02*
X137956480Y-148798163D01*
X138203232Y-131385976D02*
X135154500Y-134434708D01*
X136279500Y-145617000D02*
X137325000Y-146662500D01*
X137174526Y-148232520D02*
X136279500Y-147337494D01*
D22*
X136723250Y-146656250D02*
X136279500Y-147100000D01*
X137318750Y-146656250D02*
X136723250Y-146656250D01*
X138750000Y-150565000D02*
X138750000Y-149794170D01*
X141500000Y-149625000D02*
X141500000Y-149265000D01*
X141250000Y-150565000D02*
X141250000Y-149875000D01*
X138500000Y-149544170D02*
X138500000Y-149265000D01*
X138750000Y-149794170D02*
X138500000Y-149544170D01*
X141250000Y-149875000D02*
X141500000Y-149625000D01*
X138250000Y-147637316D02*
X139000000Y-148387316D01*
X138025000Y-143600000D02*
X138025000Y-142225000D01*
X139000000Y-148387316D02*
X139000000Y-149265000D01*
X138250000Y-143825000D02*
X138025000Y-143600000D01*
X138250000Y-147637316D02*
X138250000Y-143825000D01*
X138025000Y-142225000D02*
X138037500Y-142212500D01*
D21*
X139500000Y-149265000D02*
X139500000Y-149250000D01*
X139364500Y-148604499D02*
X139500000Y-148739999D01*
X139000000Y-147871836D02*
X139364500Y-148236335D01*
X139500000Y-148739999D02*
X139500000Y-149250000D01*
D23*
X139000000Y-147187500D02*
X139000000Y-147550000D01*
D21*
X139000000Y-147062500D02*
X139000000Y-147871836D01*
X139364500Y-148236335D02*
X139364500Y-148604499D01*
X139750000Y-150000000D02*
X140485000Y-149265000D01*
X140485000Y-149265000D02*
X140500000Y-149265000D01*
X140635500Y-148136336D02*
X140635500Y-148604499D01*
X140635500Y-148604499D02*
X140500000Y-148739999D01*
X140900000Y-147550000D02*
X140900000Y-147062500D01*
D23*
X140900000Y-147187500D02*
X140900000Y-147550000D01*
D21*
X140900000Y-147550000D02*
X140900000Y-147871836D01*
X140900000Y-147871836D02*
X140635500Y-148136336D01*
X139750000Y-150565000D02*
X139750000Y-150000000D01*
X140500000Y-148739999D02*
X140500000Y-149265000D01*
D22*
X141000000Y-148287316D02*
X141000000Y-149265000D01*
X143250000Y-143225000D02*
X143250000Y-142137500D01*
X141700000Y-144775000D02*
X143250000Y-143225000D01*
X141700000Y-147587316D02*
X141700000Y-144775000D01*
X141700000Y-147587316D02*
X141000000Y-148287316D01*
D21*
X143558000Y-144627792D02*
X144595500Y-143590292D01*
X144595500Y-134259708D02*
X141785500Y-131449708D01*
X142500000Y-147187500D02*
X143558000Y-146129500D01*
D22*
X143116782Y-147187500D02*
X142500000Y-147187500D01*
D21*
X142850474Y-148232520D02*
X143362633Y-147720361D01*
X143362633Y-147720361D02*
X143362633Y-147433351D01*
X143558000Y-146129500D02*
X143558000Y-144627792D01*
X144595500Y-136580912D02*
X144595500Y-136525165D01*
X142043520Y-149221480D02*
X142043520Y-148798163D01*
D22*
X143362633Y-147433351D02*
X143116782Y-147187500D01*
D21*
X141785500Y-129835501D02*
X141740000Y-129790001D01*
X144595500Y-136525165D02*
X144595500Y-134259708D01*
X144595500Y-136855952D02*
X144595500Y-136580912D01*
X144270540Y-137455952D02*
X144270540Y-137180912D01*
X142000000Y-149265000D02*
X142043520Y-149221480D01*
X142609163Y-148232520D02*
X142850474Y-148232520D01*
X144595500Y-143590292D02*
X144595500Y-137780912D01*
X142043520Y-148798163D02*
X142609163Y-148232520D01*
X141785500Y-131449708D02*
X141785500Y-129835501D01*
X141740000Y-129790001D02*
X141740000Y-129040000D01*
X144433020Y-137018432D02*
G75*
G03*
X144595432Y-136855952I-20J162432D01*
G01*
X144595500Y-137780912D02*
G75*
G03*
X144433020Y-137618400I-162500J12D01*
G01*
X144270540Y-137180912D02*
G75*
G02*
X144433020Y-137018440I162460J12D01*
G01*
X144433020Y-137618432D02*
G75*
G02*
X144270568Y-137455952I-20J162432D01*
G01*
X142240000Y-129790001D02*
X142240000Y-129040000D01*
X142454500Y-149219500D02*
X142454500Y-148968396D01*
X143967000Y-146129500D02*
X143967000Y-144797208D01*
D22*
X144148734Y-147056250D02*
X143771633Y-147433351D01*
D21*
X142454500Y-148968396D02*
X142779396Y-148643500D01*
X142194500Y-131280292D02*
X142194500Y-129835501D01*
X142194500Y-129835501D02*
X142240000Y-129790001D01*
D22*
X144893750Y-147056250D02*
X144148734Y-147056250D01*
D21*
X145004500Y-143759708D02*
X145004500Y-134090292D01*
X142779396Y-148643500D02*
X143020708Y-148643500D01*
D22*
X145000000Y-147162500D02*
X144893750Y-147056250D01*
D21*
X145004500Y-134090292D02*
X142194500Y-131280292D01*
X143020708Y-148643500D02*
X143771633Y-147892575D01*
X143967000Y-144797208D02*
X145004500Y-143759708D01*
X145000000Y-147162500D02*
X143967000Y-146129500D01*
X142500000Y-149265000D02*
X142454500Y-149219500D01*
X143771633Y-147892575D02*
X143771633Y-147433351D01*
D22*
X139240000Y-138735000D02*
X139240000Y-129040000D01*
X138037500Y-139937500D02*
X139240000Y-138735000D01*
D21*
X139740000Y-129350000D02*
X139785500Y-129395500D01*
X139000000Y-143918749D02*
X139000000Y-144912500D01*
X139745500Y-143173249D02*
X139000000Y-143918749D01*
X139785500Y-129783615D02*
X139745500Y-129823615D01*
X139740000Y-129040000D02*
X139740000Y-129350000D01*
X139745500Y-129823615D02*
X139745500Y-143173249D01*
X139785500Y-129395500D02*
X139785500Y-129783615D01*
X140240000Y-129040000D02*
X140240000Y-129350000D01*
X140240000Y-129350000D02*
X140194500Y-129395500D01*
X140154500Y-143173249D02*
X140154500Y-129980131D01*
X140900000Y-144912500D02*
X140900000Y-143918749D01*
X140194500Y-129395500D02*
X140194500Y-129940131D01*
X140194500Y-129940131D02*
X140154500Y-129980131D01*
X140900000Y-143918749D02*
X140154500Y-143173249D01*
D22*
X140740000Y-130929588D02*
X140740000Y-129040000D01*
X143250000Y-133439588D02*
X140740000Y-130929588D01*
X143250000Y-139862500D02*
X143250000Y-133439588D01*
G04 #@! TA.AperFunction,Conductor*
G36*
X138973965Y-129633823D02*
G01*
X139008710Y-129633809D01*
X139009211Y-129634016D01*
X139035753Y-129660511D01*
X139039500Y-129679303D01*
X139039500Y-138631653D01*
X139025148Y-138666301D01*
X138441942Y-139249506D01*
X138407294Y-139263858D01*
X138372646Y-139249506D01*
X138370074Y-139246373D01*
X138368103Y-139244402D01*
X138368101Y-139244399D01*
X138368097Y-139244396D01*
X138368096Y-139244395D01*
X138285239Y-139189033D01*
X138212177Y-139174500D01*
X138212174Y-139174500D01*
X137862826Y-139174500D01*
X137862822Y-139174500D01*
X137789760Y-139189033D01*
X137706898Y-139244398D01*
X137651533Y-139327260D01*
X137637000Y-139400322D01*
X137637000Y-140474677D01*
X137651533Y-140547739D01*
X137706898Y-140630601D01*
X137789760Y-140685966D01*
X137862826Y-140700500D01*
X138212174Y-140700500D01*
X138285240Y-140685966D01*
X138368101Y-140630601D01*
X138423466Y-140547740D01*
X138438000Y-140474674D01*
X138438000Y-139840846D01*
X138452352Y-139806198D01*
X139396852Y-138861698D01*
X139431500Y-138847346D01*
X139466148Y-138861698D01*
X139480500Y-138896346D01*
X139480500Y-143043186D01*
X139466148Y-143077834D01*
X138849889Y-143694093D01*
X138775345Y-143768635D01*
X138775345Y-143768636D01*
X138775344Y-143768637D01*
X138775344Y-143768638D01*
X138771119Y-143778839D01*
X138735000Y-143866035D01*
X138735000Y-144000322D01*
X138720648Y-144034970D01*
X138713223Y-144041064D01*
X138654980Y-144079980D01*
X138615924Y-144138433D01*
X138595195Y-144169456D01*
X138579500Y-144248360D01*
X138579500Y-145326640D01*
X138595195Y-145405544D01*
X138619141Y-145441382D01*
X138654980Y-145495019D01*
X138690819Y-145518965D01*
X138744456Y-145554805D01*
X138823360Y-145570500D01*
X138823363Y-145570500D01*
X139176637Y-145570500D01*
X139176640Y-145570500D01*
X139255544Y-145554805D01*
X139345019Y-145495019D01*
X139404805Y-145405544D01*
X139420500Y-145326640D01*
X139420500Y-144248360D01*
X139404805Y-144169456D01*
X139345019Y-144079981D01*
X139315843Y-144060486D01*
X139315842Y-144060485D01*
X139295007Y-144029302D01*
X139302324Y-143992519D01*
X139308413Y-143985100D01*
X139895609Y-143397905D01*
X139895611Y-143397905D01*
X139915354Y-143378162D01*
X139935520Y-143369810D01*
X139950000Y-143363812D01*
X139950003Y-143363812D01*
X139967836Y-143371200D01*
X139984648Y-143378164D01*
X140011280Y-143404796D01*
X140011282Y-143404797D01*
X140591581Y-143985096D01*
X140605933Y-144019744D01*
X140591581Y-144054392D01*
X140584156Y-144060486D01*
X140554980Y-144079980D01*
X140515924Y-144138433D01*
X140495195Y-144169456D01*
X140479500Y-144248360D01*
X140479500Y-145326640D01*
X140495195Y-145405544D01*
X140519141Y-145441382D01*
X140554980Y-145495019D01*
X140590819Y-145518965D01*
X140644456Y-145554805D01*
X140723360Y-145570500D01*
X140723363Y-145570500D01*
X141076637Y-145570500D01*
X141076640Y-145570500D01*
X141155544Y-145554805D01*
X141245019Y-145495019D01*
X141304805Y-145405544D01*
X141320500Y-145326640D01*
X141320500Y-144248360D01*
X141304805Y-144169456D01*
X141268965Y-144115819D01*
X141245019Y-144079980D01*
X141186777Y-144041064D01*
X141165941Y-144009881D01*
X141165000Y-144000322D01*
X141165000Y-143866039D01*
X141164999Y-143866035D01*
X141163921Y-143863432D01*
X141124656Y-143768638D01*
X141124654Y-143768636D01*
X141124654Y-143768635D01*
X141047321Y-143691303D01*
X141047314Y-143691297D01*
X140433852Y-143077835D01*
X140419500Y-143043187D01*
X140419500Y-141600322D01*
X140949500Y-141600322D01*
X140949500Y-142674677D01*
X140964033Y-142747739D01*
X141019398Y-142830601D01*
X141102257Y-142885964D01*
X141102260Y-142885966D01*
X141175326Y-142900500D01*
X141524674Y-142900500D01*
X141597740Y-142885966D01*
X141680601Y-142830601D01*
X141735966Y-142747740D01*
X141750500Y-142674674D01*
X141750500Y-141600326D01*
X141750499Y-141600322D01*
X141899500Y-141600322D01*
X141899500Y-142674677D01*
X141914033Y-142747739D01*
X141969398Y-142830601D01*
X142052257Y-142885964D01*
X142052260Y-142885966D01*
X142125326Y-142900500D01*
X142474674Y-142900500D01*
X142547740Y-142885966D01*
X142630601Y-142830601D01*
X142685966Y-142747740D01*
X142700500Y-142674674D01*
X142700500Y-141600326D01*
X142685966Y-141527260D01*
X142680713Y-141519398D01*
X142630601Y-141444398D01*
X142547739Y-141389033D01*
X142474677Y-141374500D01*
X142474674Y-141374500D01*
X142125326Y-141374500D01*
X142125322Y-141374500D01*
X142052260Y-141389033D01*
X141969398Y-141444398D01*
X141914033Y-141527260D01*
X141899500Y-141600322D01*
X141750499Y-141600322D01*
X141735966Y-141527260D01*
X141730713Y-141519398D01*
X141680601Y-141444398D01*
X141597739Y-141389033D01*
X141524677Y-141374500D01*
X141524674Y-141374500D01*
X141175326Y-141374500D01*
X141175322Y-141374500D01*
X141102260Y-141389033D01*
X141019398Y-141444398D01*
X140964033Y-141527260D01*
X140949500Y-141600322D01*
X140419500Y-141600322D01*
X140419500Y-139325322D01*
X140949500Y-139325322D01*
X140949500Y-140399677D01*
X140964033Y-140472739D01*
X141019398Y-140555601D01*
X141102260Y-140610966D01*
X141175326Y-140625500D01*
X141524674Y-140625500D01*
X141597740Y-140610966D01*
X141680601Y-140555601D01*
X141735966Y-140472740D01*
X141750500Y-140399674D01*
X141750500Y-139325326D01*
X141735966Y-139252260D01*
X141734126Y-139249506D01*
X141680601Y-139169398D01*
X141597739Y-139114033D01*
X141524677Y-139099500D01*
X141524674Y-139099500D01*
X141175326Y-139099500D01*
X141175322Y-139099500D01*
X141102260Y-139114033D01*
X141019398Y-139169398D01*
X140964033Y-139252260D01*
X140949500Y-139325322D01*
X140419500Y-139325322D01*
X140419500Y-130099159D01*
X140423230Y-130080408D01*
X140445230Y-130027295D01*
X140471748Y-130000776D01*
X140509251Y-130000776D01*
X140535770Y-130027294D01*
X140539500Y-130046046D01*
X140539500Y-130889706D01*
X140539500Y-130969470D01*
X140570024Y-131043162D01*
X140570025Y-131043163D01*
X140570025Y-131043164D01*
X143035148Y-133508286D01*
X143049500Y-133542934D01*
X143049500Y-139064424D01*
X143035148Y-139099072D01*
X143010060Y-139112482D01*
X143002260Y-139114033D01*
X142919398Y-139169398D01*
X142864033Y-139252260D01*
X142849500Y-139325322D01*
X142849500Y-140399677D01*
X142864033Y-140472739D01*
X142919398Y-140555601D01*
X143002260Y-140610966D01*
X143075326Y-140625500D01*
X143424674Y-140625500D01*
X143497740Y-140610966D01*
X143580601Y-140555601D01*
X143635966Y-140472740D01*
X143650500Y-140399674D01*
X143650500Y-139325326D01*
X143635966Y-139252260D01*
X143634126Y-139249506D01*
X143580601Y-139169398D01*
X143497739Y-139114033D01*
X143489940Y-139112482D01*
X143458758Y-139091647D01*
X143450500Y-139064424D01*
X143450500Y-133607770D01*
X143464852Y-133573122D01*
X143499500Y-133558770D01*
X143534148Y-133573122D01*
X144316148Y-134355122D01*
X144330500Y-134389770D01*
X144330500Y-136728222D01*
X144316148Y-136762870D01*
X144294183Y-136775552D01*
X144268018Y-136782563D01*
X144268016Y-136782563D01*
X144170540Y-136838842D01*
X144170540Y-136838843D01*
X144090951Y-136918432D01*
X144090950Y-136918432D01*
X144034671Y-137015908D01*
X144034670Y-137015912D01*
X144005539Y-137124630D01*
X144005540Y-137180910D01*
X144005540Y-137455951D01*
X144005539Y-137512233D01*
X144034670Y-137620951D01*
X144034671Y-137620955D01*
X144090950Y-137718431D01*
X144170541Y-137798022D01*
X144226817Y-137830513D01*
X144268015Y-137854299D01*
X144268019Y-137854301D01*
X144294182Y-137861311D01*
X144323935Y-137884140D01*
X144330500Y-137908641D01*
X144330500Y-143460229D01*
X144316148Y-143494877D01*
X143407889Y-144403136D01*
X143333345Y-144477678D01*
X143333345Y-144477679D01*
X143293000Y-144575078D01*
X143293000Y-145999437D01*
X143278648Y-146034085D01*
X142697584Y-146615148D01*
X142662936Y-146629500D01*
X142204005Y-146629500D01*
X142204000Y-146629501D01*
X142154590Y-146636004D01*
X142046160Y-146686567D01*
X141984148Y-146748580D01*
X141949500Y-146762932D01*
X141914852Y-146748580D01*
X141900500Y-146713932D01*
X141900500Y-144878346D01*
X141914852Y-144843698D01*
X143419974Y-143338576D01*
X143419976Y-143338574D01*
X143450500Y-143264882D01*
X143450500Y-143185118D01*
X143450500Y-142935575D01*
X143464852Y-142900927D01*
X143489940Y-142887517D01*
X143497740Y-142885966D01*
X143580601Y-142830601D01*
X143635966Y-142747740D01*
X143650500Y-142674674D01*
X143650500Y-141600326D01*
X143635966Y-141527260D01*
X143630713Y-141519398D01*
X143580601Y-141444398D01*
X143497739Y-141389033D01*
X143424677Y-141374500D01*
X143424674Y-141374500D01*
X143075326Y-141374500D01*
X143075322Y-141374500D01*
X143002260Y-141389033D01*
X142919398Y-141444398D01*
X142864033Y-141527260D01*
X142849500Y-141600322D01*
X142849500Y-142674677D01*
X142864033Y-142747739D01*
X142919398Y-142830601D01*
X143002257Y-142885964D01*
X143002260Y-142885966D01*
X143010058Y-142887517D01*
X143041240Y-142908350D01*
X143049500Y-142935575D01*
X143049500Y-143121654D01*
X143035148Y-143156302D01*
X141586426Y-144605024D01*
X141558225Y-144633225D01*
X141530024Y-144661425D01*
X141499500Y-144735116D01*
X141499500Y-147483969D01*
X141485148Y-147518617D01*
X141404148Y-147599617D01*
X141369500Y-147613969D01*
X141334852Y-147599617D01*
X141320500Y-147564969D01*
X141320500Y-146523363D01*
X141320500Y-146523360D01*
X141304805Y-146444456D01*
X141268965Y-146390819D01*
X141245019Y-146354980D01*
X141162386Y-146299767D01*
X141155544Y-146295195D01*
X141076640Y-146279500D01*
X140723360Y-146279500D01*
X140644456Y-146295195D01*
X140554980Y-146354980D01*
X140521832Y-146404591D01*
X140495195Y-146444456D01*
X140479500Y-146523360D01*
X140479500Y-147601640D01*
X140495195Y-147680544D01*
X140521892Y-147720498D01*
X140554981Y-147770020D01*
X140556367Y-147771406D01*
X140557116Y-147773215D01*
X140557662Y-147774032D01*
X140557499Y-147774140D01*
X140570719Y-147806054D01*
X140556367Y-147840702D01*
X140485389Y-147911680D01*
X140410845Y-147986222D01*
X140410845Y-147986223D01*
X140370500Y-148083622D01*
X140370500Y-148474435D01*
X140358872Y-148502507D01*
X140359069Y-148502606D01*
X140359068Y-148502608D01*
X140358512Y-148503379D01*
X140356151Y-148509080D01*
X140349892Y-148515340D01*
X140349890Y-148515340D01*
X140349889Y-148515343D01*
X140275345Y-148589885D01*
X140275345Y-148589886D01*
X140235000Y-148687285D01*
X140235000Y-148938266D01*
X140234059Y-148947824D01*
X140229500Y-148970746D01*
X140229500Y-149125437D01*
X140215148Y-149160085D01*
X139854147Y-149521085D01*
X139819499Y-149535437D01*
X139784851Y-149521085D01*
X139770499Y-149486438D01*
X139770499Y-149326618D01*
X139774230Y-149307865D01*
X139775500Y-149304800D01*
X139775500Y-149195200D01*
X139774228Y-149192129D01*
X139770499Y-149173379D01*
X139770499Y-148970747D01*
X139770499Y-148970746D01*
X139765941Y-148947827D01*
X139765000Y-148938270D01*
X139765000Y-148687289D01*
X139764999Y-148687285D01*
X139748747Y-148648049D01*
X139724656Y-148589888D01*
X139724654Y-148589886D01*
X139724654Y-148589885D01*
X139647321Y-148512553D01*
X139647314Y-148512547D01*
X139643852Y-148509085D01*
X139629500Y-148474437D01*
X139629500Y-148183625D01*
X139629499Y-148183621D01*
X139621931Y-148165350D01*
X139589156Y-148086224D01*
X139589154Y-148086222D01*
X139589154Y-148086221D01*
X139514611Y-148011679D01*
X139343633Y-147840701D01*
X139329281Y-147806053D01*
X139342499Y-147774140D01*
X139342338Y-147774032D01*
X139342882Y-147773217D01*
X139343633Y-147771405D01*
X139343636Y-147771401D01*
X139345012Y-147770023D01*
X139345019Y-147770019D01*
X139404805Y-147680544D01*
X139420500Y-147601640D01*
X139420500Y-146525322D01*
X139549500Y-146525322D01*
X139549500Y-147599677D01*
X139564033Y-147672739D01*
X139619398Y-147755601D01*
X139702260Y-147810966D01*
X139775326Y-147825500D01*
X140124674Y-147825500D01*
X140197740Y-147810966D01*
X140280601Y-147755601D01*
X140335966Y-147672740D01*
X140350500Y-147599674D01*
X140350500Y-146525326D01*
X140335966Y-146452260D01*
X140304808Y-146405628D01*
X140280601Y-146369398D01*
X140197739Y-146314033D01*
X140124677Y-146299500D01*
X140124674Y-146299500D01*
X139775326Y-146299500D01*
X139775322Y-146299500D01*
X139702260Y-146314033D01*
X139619398Y-146369398D01*
X139564033Y-146452260D01*
X139549500Y-146525322D01*
X139420500Y-146525322D01*
X139420500Y-146523360D01*
X139404805Y-146444456D01*
X139368965Y-146390819D01*
X139345019Y-146354980D01*
X139262386Y-146299767D01*
X139255544Y-146295195D01*
X139176640Y-146279500D01*
X138823360Y-146279500D01*
X138744456Y-146295195D01*
X138654980Y-146354980D01*
X138621832Y-146404591D01*
X138595195Y-146444456D01*
X138579500Y-146523360D01*
X138579500Y-146523363D01*
X138579500Y-147564970D01*
X138565148Y-147599618D01*
X138530500Y-147613970D01*
X138495852Y-147599618D01*
X138464852Y-147568618D01*
X138450500Y-147533970D01*
X138450500Y-143785120D01*
X138450499Y-143785116D01*
X138443673Y-143768636D01*
X138419976Y-143711426D01*
X138363574Y-143655024D01*
X138239852Y-143531302D01*
X138225500Y-143496654D01*
X138225500Y-143013062D01*
X138239852Y-142978414D01*
X138264938Y-142965004D01*
X138285240Y-142960966D01*
X138368101Y-142905601D01*
X138423466Y-142822740D01*
X138438000Y-142749674D01*
X138438000Y-141675326D01*
X138423466Y-141602260D01*
X138422171Y-141600322D01*
X138368101Y-141519398D01*
X138285239Y-141464033D01*
X138212177Y-141449500D01*
X138212174Y-141449500D01*
X137862826Y-141449500D01*
X137862822Y-141449500D01*
X137789760Y-141464033D01*
X137706898Y-141519398D01*
X137651533Y-141602260D01*
X137637000Y-141675322D01*
X137637000Y-142749677D01*
X137651533Y-142822739D01*
X137706898Y-142905601D01*
X137751759Y-142935575D01*
X137789760Y-142960966D01*
X137789763Y-142960966D01*
X137794220Y-142962813D01*
X137793099Y-142965518D01*
X137815940Y-142980419D01*
X137824500Y-143008089D01*
X137824500Y-143560118D01*
X137824500Y-143639882D01*
X137855024Y-143713574D01*
X137855025Y-143713575D01*
X137855025Y-143713576D01*
X138035148Y-143893698D01*
X138049500Y-143928346D01*
X138049500Y-147597434D01*
X138049500Y-147677198D01*
X138080024Y-147750890D01*
X138080025Y-147750891D01*
X138080025Y-147750892D01*
X138785148Y-148456014D01*
X138799500Y-148490662D01*
X138799500Y-148847069D01*
X138791237Y-148874300D01*
X138790737Y-148875048D01*
X138759550Y-148895877D01*
X138722769Y-148888554D01*
X138709258Y-148875040D01*
X138701528Y-148863471D01*
X138643474Y-148824681D01*
X138592289Y-148814500D01*
X138592284Y-148814500D01*
X138407716Y-148814500D01*
X138407710Y-148814500D01*
X138356525Y-148824681D01*
X138297703Y-148863985D01*
X138260920Y-148871301D01*
X138229738Y-148850466D01*
X138221480Y-148823243D01*
X138221480Y-148745453D01*
X138221479Y-148745449D01*
X138181136Y-148648052D01*
X138181134Y-148648050D01*
X138181134Y-148648049D01*
X138103801Y-148570717D01*
X138103794Y-148570711D01*
X137622385Y-148089302D01*
X137622385Y-148089301D01*
X137540950Y-148007865D01*
X137539535Y-148007279D01*
X137488700Y-147986222D01*
X137443550Y-147967520D01*
X137443549Y-147967520D01*
X137304588Y-147967520D01*
X137269940Y-147953168D01*
X136558852Y-147242080D01*
X136544500Y-147207432D01*
X136544500Y-147167129D01*
X136558851Y-147132482D01*
X136681728Y-147009605D01*
X136716374Y-146995254D01*
X136751022Y-147009606D01*
X136760783Y-147023546D01*
X136786566Y-147078837D01*
X136786567Y-147078839D01*
X136871160Y-147163432D01*
X136871162Y-147163433D01*
X136871163Y-147163434D01*
X136979591Y-147213995D01*
X137029001Y-147220500D01*
X137620998Y-147220499D01*
X137670409Y-147213995D01*
X137778837Y-147163434D01*
X137863434Y-147078837D01*
X137913995Y-146970409D01*
X137920500Y-146920999D01*
X137920499Y-146404002D01*
X137913995Y-146354591D01*
X137913792Y-146354156D01*
X137888430Y-146299767D01*
X137863434Y-146246163D01*
X137863432Y-146246161D01*
X137863432Y-146246160D01*
X137778839Y-146161567D01*
X137778837Y-146161566D01*
X137670410Y-146111005D01*
X137660527Y-146109704D01*
X137620999Y-146104500D01*
X137620995Y-146104500D01*
X137162062Y-146104500D01*
X137127414Y-146090148D01*
X136558852Y-145521586D01*
X136544500Y-145486938D01*
X136544500Y-144012582D01*
X136544499Y-144012578D01*
X136543382Y-144009881D01*
X136504156Y-143915181D01*
X136504154Y-143915179D01*
X136504154Y-143915178D01*
X136426821Y-143837846D01*
X136426814Y-143837840D01*
X135433852Y-142844878D01*
X135419500Y-142810230D01*
X135419500Y-141675322D01*
X135737000Y-141675322D01*
X135737000Y-142749677D01*
X135751533Y-142822739D01*
X135806898Y-142905601D01*
X135851759Y-142935575D01*
X135889760Y-142960966D01*
X135962826Y-142975500D01*
X136312174Y-142975500D01*
X136385240Y-142960966D01*
X136468101Y-142905601D01*
X136523466Y-142822740D01*
X136538000Y-142749674D01*
X136538000Y-141675326D01*
X136537999Y-141675322D01*
X136687000Y-141675322D01*
X136687000Y-142749677D01*
X136701533Y-142822739D01*
X136756898Y-142905601D01*
X136801759Y-142935575D01*
X136839760Y-142960966D01*
X136912826Y-142975500D01*
X137262174Y-142975500D01*
X137335240Y-142960966D01*
X137418101Y-142905601D01*
X137473466Y-142822740D01*
X137488000Y-142749674D01*
X137488000Y-141675326D01*
X137473466Y-141602260D01*
X137472171Y-141600322D01*
X137418101Y-141519398D01*
X137335239Y-141464033D01*
X137262177Y-141449500D01*
X137262174Y-141449500D01*
X136912826Y-141449500D01*
X136912822Y-141449500D01*
X136839760Y-141464033D01*
X136756898Y-141519398D01*
X136701533Y-141602260D01*
X136687000Y-141675322D01*
X136537999Y-141675322D01*
X136523466Y-141602260D01*
X136522171Y-141600322D01*
X136468101Y-141519398D01*
X136385239Y-141464033D01*
X136312177Y-141449500D01*
X136312174Y-141449500D01*
X135962826Y-141449500D01*
X135962822Y-141449500D01*
X135889760Y-141464033D01*
X135806898Y-141519398D01*
X135751533Y-141602260D01*
X135737000Y-141675322D01*
X135419500Y-141675322D01*
X135419500Y-139400322D01*
X135737000Y-139400322D01*
X135737000Y-140474677D01*
X135751533Y-140547739D01*
X135806898Y-140630601D01*
X135889760Y-140685966D01*
X135962826Y-140700500D01*
X136312174Y-140700500D01*
X136385240Y-140685966D01*
X136468101Y-140630601D01*
X136523466Y-140547740D01*
X136538000Y-140474674D01*
X136538000Y-139400326D01*
X136523466Y-139327260D01*
X136522171Y-139325322D01*
X136468101Y-139244398D01*
X136385239Y-139189033D01*
X136312177Y-139174500D01*
X136312174Y-139174500D01*
X135962826Y-139174500D01*
X135962822Y-139174500D01*
X135889760Y-139189033D01*
X135806898Y-139244398D01*
X135751533Y-139327260D01*
X135737000Y-139400322D01*
X135419500Y-139400322D01*
X135419500Y-134564769D01*
X135433851Y-134530122D01*
X138346450Y-131617522D01*
X138346453Y-131617521D01*
X138353342Y-131610632D01*
X138353343Y-131610632D01*
X138427888Y-131536087D01*
X138468232Y-131438688D01*
X138468232Y-129941224D01*
X138471961Y-129922475D01*
X138505000Y-129842712D01*
X138505000Y-129737290D01*
X138505000Y-129689499D01*
X138519352Y-129654851D01*
X138553997Y-129640499D01*
X138939898Y-129640499D01*
X138969213Y-129634669D01*
X138969218Y-129634665D01*
X138971249Y-129633825D01*
X138973457Y-129633824D01*
X138973946Y-129633727D01*
X138973965Y-129633823D01*
G37*
G04 #@! TD.AperFunction*
G04 #@! TA.AperFunction,Conductor*
G36*
X141977082Y-147619354D02*
G01*
X142046160Y-147688432D01*
X142046162Y-147688433D01*
X142046163Y-147688434D01*
X142154591Y-147738995D01*
X142204001Y-147745500D01*
X142795998Y-147745499D01*
X142844892Y-147739063D01*
X142881117Y-147748770D01*
X142899868Y-147781249D01*
X142890161Y-147817474D01*
X142885935Y-147822292D01*
X142755060Y-147953168D01*
X142720412Y-147967520D01*
X142556449Y-147967520D01*
X142475761Y-148000942D01*
X142460465Y-148007279D01*
X142459050Y-148007865D01*
X142459049Y-148007865D01*
X142384507Y-148082409D01*
X141893409Y-148573507D01*
X141818865Y-148648049D01*
X141818865Y-148648050D01*
X141778520Y-148745449D01*
X141778520Y-148823243D01*
X141764168Y-148857891D01*
X141729520Y-148872243D01*
X141702297Y-148863985D01*
X141643474Y-148824681D01*
X141592289Y-148814500D01*
X141592284Y-148814500D01*
X141407716Y-148814500D01*
X141407710Y-148814500D01*
X141356525Y-148824681D01*
X141298471Y-148863471D01*
X141290740Y-148875042D01*
X141282621Y-148880465D01*
X141277192Y-148888579D01*
X141267647Y-148890470D01*
X141259556Y-148895876D01*
X141249979Y-148893970D01*
X141240404Y-148895868D01*
X141232318Y-148890456D01*
X141222774Y-148888558D01*
X141209238Y-148875011D01*
X141208738Y-148874262D01*
X141200500Y-148847069D01*
X141200500Y-148390660D01*
X141214851Y-148356013D01*
X141806681Y-147764182D01*
X141806684Y-147764181D01*
X141813573Y-147757292D01*
X141813574Y-147757292D01*
X141869976Y-147700890D01*
X141897164Y-147635250D01*
X141923682Y-147608732D01*
X141961185Y-147608732D01*
X141977082Y-147619354D01*
G37*
G04 #@! TD.AperFunction*
G04 #@! TA.AperFunction,Conductor*
G36*
X143780336Y-146327451D02*
G01*
X143797148Y-146334415D01*
X143823780Y-146361047D01*
X143823782Y-146361048D01*
X144214835Y-146752102D01*
X144229187Y-146786750D01*
X144214835Y-146821398D01*
X144180187Y-146835750D01*
X144104871Y-146835750D01*
X144023828Y-146869320D01*
X143735847Y-147157301D01*
X143719951Y-147167923D01*
X143621520Y-147208695D01*
X143621519Y-147208697D01*
X143601781Y-147228435D01*
X143567133Y-147242787D01*
X143532485Y-147228435D01*
X143512745Y-147208695D01*
X143414314Y-147167923D01*
X143398418Y-147157301D01*
X143241686Y-147000569D01*
X143182164Y-146975914D01*
X143155646Y-146949395D01*
X143155646Y-146911892D01*
X143166265Y-146895999D01*
X143708109Y-146354156D01*
X143708111Y-146354156D01*
X143727854Y-146334413D01*
X143744668Y-146327449D01*
X143762500Y-146320063D01*
X143762503Y-146320063D01*
X143780336Y-146327451D01*
G37*
G04 #@! TD.AperFunction*
G04 #@! TA.AperFunction,Conductor*
G36*
X135003807Y-127001103D02*
G01*
X135080658Y-127013275D01*
X135091731Y-127016398D01*
X135107361Y-127022872D01*
X135110828Y-127024471D01*
X135169126Y-127054175D01*
X135181529Y-127063186D01*
X135236811Y-127118468D01*
X135245823Y-127130871D01*
X135275526Y-127189169D01*
X135277135Y-127192660D01*
X135283597Y-127208258D01*
X135286725Y-127219346D01*
X135298897Y-127296193D01*
X135299500Y-127303859D01*
X135299500Y-128747594D01*
X135301378Y-128753376D01*
X135302819Y-128757811D01*
X135302882Y-128759100D01*
X135304531Y-128763081D01*
X135305124Y-128764906D01*
X135305127Y-128764914D01*
X135328915Y-128838125D01*
X135341091Y-128854885D01*
X135341092Y-128854885D01*
X135344501Y-128859577D01*
X135348116Y-128868304D01*
X135358083Y-128878271D01*
X135360347Y-128881387D01*
X135384866Y-128915134D01*
X135418611Y-128939652D01*
X135421730Y-128941918D01*
X135431696Y-128951884D01*
X135440421Y-128955497D01*
X135461875Y-128971085D01*
X135536913Y-128995466D01*
X135540900Y-128997118D01*
X135542189Y-128997180D01*
X135552405Y-129000500D01*
X135552408Y-129000500D01*
X136687593Y-129000500D01*
X136687595Y-129000500D01*
X136697810Y-128997180D01*
X136699100Y-128997118D01*
X136703077Y-128995469D01*
X136778125Y-128971085D01*
X136799579Y-128955497D01*
X136808304Y-128951884D01*
X136818269Y-128941918D01*
X136855134Y-128915134D01*
X136881919Y-128878267D01*
X136891884Y-128868304D01*
X136895497Y-128859579D01*
X136911085Y-128838125D01*
X136935468Y-128763080D01*
X136937118Y-128759100D01*
X136937179Y-128757813D01*
X136940500Y-128747595D01*
X136940500Y-128700000D01*
X136940500Y-128699500D01*
X136940500Y-128343857D01*
X136941103Y-128336192D01*
X136948038Y-128292405D01*
X136953275Y-128259340D01*
X136956398Y-128248267D01*
X136962869Y-128232647D01*
X136964475Y-128229164D01*
X136978380Y-128201875D01*
X136994176Y-128170871D01*
X137003184Y-128158472D01*
X137058472Y-128103184D01*
X137070872Y-128094176D01*
X137070874Y-128094175D01*
X137129174Y-128064470D01*
X137132647Y-128062869D01*
X137148267Y-128056398D01*
X137159337Y-128053276D01*
X137236193Y-128041103D01*
X137243858Y-128040500D01*
X142736142Y-128040500D01*
X142743807Y-128041103D01*
X142820658Y-128053275D01*
X142831731Y-128056398D01*
X142847361Y-128062872D01*
X142850828Y-128064471D01*
X142909126Y-128094175D01*
X142921529Y-128103186D01*
X142976811Y-128158468D01*
X142985823Y-128170871D01*
X143015526Y-128229169D01*
X143017135Y-128232660D01*
X143023597Y-128248258D01*
X143026725Y-128259346D01*
X143038897Y-128336193D01*
X143039500Y-128343859D01*
X143039500Y-128747594D01*
X143041378Y-128753376D01*
X143042819Y-128757811D01*
X143042882Y-128759100D01*
X143044531Y-128763081D01*
X143045124Y-128764906D01*
X143045127Y-128764914D01*
X143068915Y-128838125D01*
X143081091Y-128854885D01*
X143081092Y-128854885D01*
X143084501Y-128859577D01*
X143088116Y-128868304D01*
X143098083Y-128878271D01*
X143100347Y-128881387D01*
X143124866Y-128915134D01*
X143158611Y-128939652D01*
X143161730Y-128941918D01*
X143171696Y-128951884D01*
X143180421Y-128955497D01*
X143201875Y-128971085D01*
X143276913Y-128995466D01*
X143280900Y-128997118D01*
X143282189Y-128997180D01*
X143292405Y-129000500D01*
X143292408Y-129000500D01*
X144447593Y-129000500D01*
X144447595Y-129000500D01*
X144457810Y-128997180D01*
X144459100Y-128997118D01*
X144463077Y-128995469D01*
X144538125Y-128971085D01*
X144559579Y-128955497D01*
X144568304Y-128951884D01*
X144578269Y-128941918D01*
X144615134Y-128915134D01*
X144641919Y-128878267D01*
X144651884Y-128868304D01*
X144655497Y-128859579D01*
X144671085Y-128838125D01*
X144695468Y-128763080D01*
X144697118Y-128759100D01*
X144697179Y-128757813D01*
X144700500Y-128747595D01*
X144700500Y-128700000D01*
X144700500Y-128699500D01*
X144700500Y-127303857D01*
X144701103Y-127296192D01*
X144708038Y-127252405D01*
X144713275Y-127219340D01*
X144716398Y-127208267D01*
X144722869Y-127192647D01*
X144724475Y-127189164D01*
X144738380Y-127161875D01*
X144754176Y-127130871D01*
X144763184Y-127118472D01*
X144818472Y-127063184D01*
X144830872Y-127054176D01*
X144830874Y-127054175D01*
X144889174Y-127024470D01*
X144892647Y-127022869D01*
X144908267Y-127016398D01*
X144919337Y-127013276D01*
X144996193Y-127001103D01*
X145003858Y-127000500D01*
X151696142Y-127000500D01*
X151703807Y-127001103D01*
X151780658Y-127013275D01*
X151791731Y-127016398D01*
X151807361Y-127022872D01*
X151810828Y-127024471D01*
X151869126Y-127054175D01*
X151881529Y-127063186D01*
X151936811Y-127118468D01*
X151945823Y-127130871D01*
X151975526Y-127189169D01*
X151977135Y-127192660D01*
X151983597Y-127208258D01*
X151986725Y-127219346D01*
X151998897Y-127296193D01*
X151999500Y-127303859D01*
X151999500Y-130247594D01*
X152001378Y-130253376D01*
X152002819Y-130257811D01*
X152002882Y-130259100D01*
X152004531Y-130263081D01*
X152005124Y-130264906D01*
X152005127Y-130264914D01*
X152028915Y-130338125D01*
X152041091Y-130354885D01*
X152041092Y-130354885D01*
X152044501Y-130359577D01*
X152048116Y-130368304D01*
X152058083Y-130378271D01*
X152060347Y-130381387D01*
X152084866Y-130415134D01*
X152118611Y-130439652D01*
X152121730Y-130441918D01*
X152131696Y-130451884D01*
X152140421Y-130455497D01*
X152161875Y-130471085D01*
X152236913Y-130495466D01*
X152240900Y-130497118D01*
X152242189Y-130497180D01*
X152252405Y-130500500D01*
X152299793Y-130500500D01*
X152696142Y-130500500D01*
X152703807Y-130501103D01*
X152780658Y-130513275D01*
X152791731Y-130516398D01*
X152807361Y-130522872D01*
X152810828Y-130524471D01*
X152860278Y-130549667D01*
X152869126Y-130554175D01*
X152881529Y-130563186D01*
X152936811Y-130618468D01*
X152945823Y-130630871D01*
X152975526Y-130689169D01*
X152977135Y-130692660D01*
X152983597Y-130708258D01*
X152986725Y-130719346D01*
X152998897Y-130796193D01*
X152999500Y-130803859D01*
X152999500Y-145316881D01*
X152985148Y-145351529D01*
X152950500Y-145365881D01*
X152915852Y-145351529D01*
X152911626Y-145346711D01*
X152782284Y-145178151D01*
X152596853Y-144992720D01*
X152596841Y-144992709D01*
X152388815Y-144833084D01*
X152388800Y-144833074D01*
X152161700Y-144701959D01*
X152161701Y-144701959D01*
X152161697Y-144701957D01*
X151927683Y-144605025D01*
X151919422Y-144601603D01*
X151919412Y-144601599D01*
X151666127Y-144533732D01*
X151666120Y-144533731D01*
X151666116Y-144533730D01*
X151406120Y-144499500D01*
X151143880Y-144499500D01*
X150883884Y-144533730D01*
X150883880Y-144533730D01*
X150883872Y-144533732D01*
X150630587Y-144601599D01*
X150630577Y-144601603D01*
X150486156Y-144661425D01*
X150388303Y-144701957D01*
X150388300Y-144701958D01*
X150388299Y-144701959D01*
X150161199Y-144833074D01*
X150161184Y-144833084D01*
X149953158Y-144992709D01*
X149953146Y-144992720D01*
X149767720Y-145178146D01*
X149767709Y-145178158D01*
X149608084Y-145386184D01*
X149608074Y-145386199D01*
X149476959Y-145613299D01*
X149376603Y-145855577D01*
X149376599Y-145855587D01*
X149308732Y-146108872D01*
X149308730Y-146108880D01*
X149308730Y-146108884D01*
X149274500Y-146368880D01*
X149274500Y-146631120D01*
X149308730Y-146891116D01*
X149308731Y-146891120D01*
X149308732Y-146891127D01*
X149376599Y-147144412D01*
X149376602Y-147144419D01*
X149476957Y-147386697D01*
X149527548Y-147474323D01*
X149608074Y-147613800D01*
X149608084Y-147613815D01*
X149767709Y-147821841D01*
X149767720Y-147821853D01*
X149953146Y-148007279D01*
X149953158Y-148007290D01*
X150161184Y-148166915D01*
X150161193Y-148166921D01*
X150161197Y-148166924D01*
X150388303Y-148298043D01*
X150630581Y-148398398D01*
X150630584Y-148398398D01*
X150630587Y-148398400D01*
X150883872Y-148466267D01*
X150883873Y-148466267D01*
X150883884Y-148466270D01*
X151143880Y-148500500D01*
X151143883Y-148500500D01*
X151406117Y-148500500D01*
X151406120Y-148500500D01*
X151666116Y-148466270D01*
X151919419Y-148398398D01*
X152161697Y-148298043D01*
X152388803Y-148166924D01*
X152388815Y-148166915D01*
X152596841Y-148007290D01*
X152596843Y-148007287D01*
X152596851Y-148007282D01*
X152782282Y-147821851D01*
X152785641Y-147817474D01*
X152911626Y-147653289D01*
X152944104Y-147634537D01*
X152980329Y-147644244D01*
X152999081Y-147676722D01*
X152999500Y-147683118D01*
X152999500Y-156696140D01*
X152998897Y-156703806D01*
X152986725Y-156780652D01*
X152983597Y-156791739D01*
X152977135Y-156807338D01*
X152975526Y-156810830D01*
X152945823Y-156869128D01*
X152936811Y-156881531D01*
X152881531Y-156936811D01*
X152869128Y-156945823D01*
X152810830Y-156975526D01*
X152807338Y-156977135D01*
X152791739Y-156983597D01*
X152780652Y-156986725D01*
X152703807Y-156998897D01*
X152696141Y-156999500D01*
X127303859Y-156999500D01*
X127296193Y-156998897D01*
X127219346Y-156986725D01*
X127208258Y-156983597D01*
X127192660Y-156977135D01*
X127189169Y-156975526D01*
X127130871Y-156945823D01*
X127118468Y-156936811D01*
X127063186Y-156881529D01*
X127054175Y-156869126D01*
X127024471Y-156810828D01*
X127022872Y-156807361D01*
X127016398Y-156791731D01*
X127013274Y-156780652D01*
X127001103Y-156703806D01*
X127000500Y-156696142D01*
X127000500Y-154181587D01*
X134630000Y-154181587D01*
X134630000Y-154785000D01*
X135380000Y-154785000D01*
X135380000Y-155285000D01*
X134630000Y-155285000D01*
X134630000Y-155888412D01*
X134670349Y-156091271D01*
X134670351Y-156091277D01*
X134749500Y-156282358D01*
X134864410Y-156454335D01*
X135010664Y-156600589D01*
X135182641Y-156715499D01*
X135373722Y-156794648D01*
X135373728Y-156794650D01*
X135430000Y-156805842D01*
X135430000Y-155951988D01*
X135439940Y-155969205D01*
X135495795Y-156025060D01*
X135564204Y-156064556D01*
X135640504Y-156085000D01*
X135719496Y-156085000D01*
X135795796Y-156064556D01*
X135864205Y-156025060D01*
X135920060Y-155969205D01*
X135930000Y-155951988D01*
X135930000Y-156805842D01*
X135986271Y-156794650D01*
X135986277Y-156794648D01*
X136177358Y-156715499D01*
X136349335Y-156600589D01*
X136416352Y-156533573D01*
X136451000Y-156519221D01*
X136485648Y-156533573D01*
X136500000Y-156568221D01*
X136500000Y-156805000D01*
X143500000Y-156805000D01*
X143500000Y-156568221D01*
X143514352Y-156533573D01*
X143549000Y-156519221D01*
X143583648Y-156533573D01*
X143650664Y-156600589D01*
X143822641Y-156715499D01*
X144013722Y-156794648D01*
X144013728Y-156794650D01*
X144070000Y-156805842D01*
X144070000Y-155951988D01*
X144079940Y-155969205D01*
X144135795Y-156025060D01*
X144204204Y-156064556D01*
X144280504Y-156085000D01*
X144359496Y-156085000D01*
X144435796Y-156064556D01*
X144504205Y-156025060D01*
X144560060Y-155969205D01*
X144570000Y-155951988D01*
X144570000Y-156805842D01*
X144626271Y-156794650D01*
X144626277Y-156794648D01*
X144817358Y-156715499D01*
X144989335Y-156600589D01*
X145135589Y-156454335D01*
X145250499Y-156282358D01*
X145329648Y-156091277D01*
X145329650Y-156091271D01*
X145370000Y-155888412D01*
X145370000Y-155285000D01*
X144620000Y-155285000D01*
X144620000Y-154785000D01*
X145370000Y-154785000D01*
X145370000Y-154181587D01*
X145329650Y-153978728D01*
X145329648Y-153978722D01*
X145250499Y-153787641D01*
X145135589Y-153615664D01*
X144989335Y-153469410D01*
X144817358Y-153354500D01*
X144626272Y-153275349D01*
X144626267Y-153275348D01*
X144570000Y-153264155D01*
X144570000Y-154118011D01*
X144560060Y-154100795D01*
X144504205Y-154044940D01*
X144435796Y-154005444D01*
X144359496Y-153985000D01*
X144280504Y-153985000D01*
X144204204Y-154005444D01*
X144135795Y-154044940D01*
X144079940Y-154100795D01*
X144070000Y-154118011D01*
X144070000Y-153264155D01*
X144069999Y-153264155D01*
X144013732Y-153275348D01*
X144013727Y-153275349D01*
X143822641Y-153354500D01*
X143650664Y-153469410D01*
X143583648Y-153536427D01*
X143549000Y-153550779D01*
X143514352Y-153536427D01*
X143500000Y-153501779D01*
X143500000Y-151175000D01*
X136500000Y-151175000D01*
X136500000Y-153501779D01*
X136485648Y-153536427D01*
X136451000Y-153550779D01*
X136416352Y-153536427D01*
X136349335Y-153469410D01*
X136177358Y-153354500D01*
X135986272Y-153275349D01*
X135986267Y-153275348D01*
X135930000Y-153264155D01*
X135930000Y-154118011D01*
X135920060Y-154100795D01*
X135864205Y-154044940D01*
X135795796Y-154005444D01*
X135719496Y-153985000D01*
X135640504Y-153985000D01*
X135564204Y-154005444D01*
X135495795Y-154044940D01*
X135439940Y-154100795D01*
X135430000Y-154118011D01*
X135430000Y-153264155D01*
X135429999Y-153264155D01*
X135373732Y-153275348D01*
X135373727Y-153275349D01*
X135182641Y-153354500D01*
X135010664Y-153469410D01*
X134864410Y-153615664D01*
X134749500Y-153787641D01*
X134670351Y-153978722D01*
X134670349Y-153978728D01*
X134630000Y-154181587D01*
X127000500Y-154181587D01*
X127000500Y-147715698D01*
X127014852Y-147681050D01*
X127049500Y-147666698D01*
X127084148Y-147681050D01*
X127088374Y-147685869D01*
X127192709Y-147821841D01*
X127192720Y-147821853D01*
X127378146Y-148007279D01*
X127378158Y-148007290D01*
X127586184Y-148166915D01*
X127586193Y-148166921D01*
X127586197Y-148166924D01*
X127813303Y-148298043D01*
X128055581Y-148398398D01*
X128055584Y-148398398D01*
X128055587Y-148398400D01*
X128308872Y-148466267D01*
X128308873Y-148466267D01*
X128308884Y-148466270D01*
X128568880Y-148500500D01*
X128568883Y-148500500D01*
X128831117Y-148500500D01*
X128831120Y-148500500D01*
X129091116Y-148466270D01*
X129344419Y-148398398D01*
X129586697Y-148298043D01*
X129813803Y-148166924D01*
X129813815Y-148166915D01*
X130021841Y-148007290D01*
X130021843Y-148007287D01*
X130021851Y-148007282D01*
X130207282Y-147821851D01*
X130215635Y-147810966D01*
X130366915Y-147613815D01*
X130366916Y-147613812D01*
X130366924Y-147613803D01*
X130498043Y-147386697D01*
X130598398Y-147144419D01*
X130601597Y-147132482D01*
X130666267Y-146891127D01*
X130666266Y-146891127D01*
X130666270Y-146891116D01*
X130700500Y-146631120D01*
X130700500Y-146454004D01*
X134179500Y-146454004D01*
X134179500Y-146970994D01*
X134179501Y-146970999D01*
X134186004Y-147020409D01*
X134236567Y-147128839D01*
X134321160Y-147213432D01*
X134321162Y-147213433D01*
X134321163Y-147213434D01*
X134429591Y-147263995D01*
X134479001Y-147270500D01*
X135070998Y-147270499D01*
X135120409Y-147263995D01*
X135228837Y-147213434D01*
X135313434Y-147128837D01*
X135363995Y-147020409D01*
X135364413Y-147017227D01*
X135383164Y-146984750D01*
X135419389Y-146975043D01*
X135447642Y-146988976D01*
X135591148Y-147132482D01*
X135605500Y-147167130D01*
X135605500Y-147562421D01*
X135620908Y-147599618D01*
X135645844Y-147659819D01*
X135645845Y-147659820D01*
X135645845Y-147659821D01*
X135727280Y-147741255D01*
X135727282Y-147741256D01*
X136093933Y-148107907D01*
X136108285Y-148142555D01*
X136093933Y-148177203D01*
X136059285Y-148191555D01*
X136040534Y-148187825D01*
X135986276Y-148165350D01*
X135986267Y-148165348D01*
X135930000Y-148154155D01*
X135930000Y-149008011D01*
X135920060Y-148990795D01*
X135864205Y-148934940D01*
X135795796Y-148895444D01*
X135719496Y-148875000D01*
X135640504Y-148875000D01*
X135564204Y-148895444D01*
X135495795Y-148934940D01*
X135439940Y-148990795D01*
X135430000Y-149008011D01*
X135430000Y-148154155D01*
X135429999Y-148154155D01*
X135373732Y-148165348D01*
X135373727Y-148165349D01*
X135182641Y-148244500D01*
X135010664Y-148359410D01*
X134864410Y-148505664D01*
X134749500Y-148677641D01*
X134670351Y-148868722D01*
X134670349Y-148868728D01*
X134630000Y-149071587D01*
X134630000Y-149425000D01*
X135380000Y-149425000D01*
X135380000Y-149925000D01*
X134630000Y-149925000D01*
X134630000Y-150278412D01*
X134670349Y-150481271D01*
X134670351Y-150481277D01*
X134749500Y-150672358D01*
X134864410Y-150844335D01*
X135010664Y-150990589D01*
X135182641Y-151105499D01*
X135373722Y-151184648D01*
X135373728Y-151184650D01*
X135430000Y-151195842D01*
X135430000Y-150341988D01*
X135439940Y-150359205D01*
X135495795Y-150415060D01*
X135564204Y-150454556D01*
X135640504Y-150475000D01*
X135719496Y-150475000D01*
X135795796Y-150454556D01*
X135864205Y-150415060D01*
X135920060Y-150359205D01*
X135930000Y-150341988D01*
X135930000Y-151195842D01*
X135986271Y-151184650D01*
X135986277Y-151184648D01*
X136177358Y-151105499D01*
X136349335Y-150990589D01*
X136495589Y-150844335D01*
X136610499Y-150672358D01*
X136689648Y-150481277D01*
X136689650Y-150481271D01*
X136730000Y-150278412D01*
X136730000Y-149925000D01*
X135980000Y-149925000D01*
X135980000Y-149425000D01*
X136730000Y-149425000D01*
X136730000Y-149071587D01*
X136689650Y-148868728D01*
X136689648Y-148868722D01*
X136667174Y-148814466D01*
X136667174Y-148804718D01*
X136663444Y-148795714D01*
X136667174Y-148786709D01*
X136667174Y-148776963D01*
X136674066Y-148770070D01*
X136677796Y-148761066D01*
X136686799Y-148757336D01*
X136693692Y-148750444D01*
X136703439Y-148750444D01*
X136712444Y-148746714D01*
X136721449Y-148750444D01*
X136731195Y-148750444D01*
X136747092Y-148761066D01*
X136776840Y-148790814D01*
X136776843Y-148790818D01*
X136854178Y-148868154D01*
X136854179Y-148868154D01*
X136854181Y-148868156D01*
X136951580Y-148908500D01*
X136951581Y-148908500D01*
X137057003Y-148908500D01*
X137090542Y-148908500D01*
X137125190Y-148922852D01*
X137215148Y-149012810D01*
X137229500Y-149047458D01*
X137229500Y-149559251D01*
X137229501Y-149559254D01*
X137240843Y-149616280D01*
X137240843Y-149616281D01*
X137240844Y-149616282D01*
X137284052Y-149680949D01*
X137348718Y-149724156D01*
X137348720Y-149724157D01*
X137405745Y-149735500D01*
X137594254Y-149735499D01*
X137651280Y-149724157D01*
X137715948Y-149680948D01*
X137715947Y-149680948D01*
X137719961Y-149678267D01*
X137720678Y-149679340D01*
X137749991Y-149667192D01*
X137779323Y-149679336D01*
X137780038Y-149678267D01*
X137848718Y-149724156D01*
X137848720Y-149724157D01*
X137905745Y-149735500D01*
X138094254Y-149735499D01*
X138151280Y-149724157D01*
X138215948Y-149680948D01*
X138221606Y-149672479D01*
X138252784Y-149651644D01*
X138289567Y-149658956D01*
X138296996Y-149665053D01*
X138298470Y-149666527D01*
X138316040Y-149678267D01*
X138356523Y-149705317D01*
X138368252Y-149707649D01*
X138393341Y-149721060D01*
X138535148Y-149862867D01*
X138549500Y-149897515D01*
X138549500Y-150114307D01*
X138535148Y-150148955D01*
X138500500Y-150163307D01*
X138470524Y-150150890D01*
X138469962Y-150151733D01*
X138401281Y-150105843D01*
X138389875Y-150103574D01*
X138344255Y-150094500D01*
X138344251Y-150094500D01*
X138155749Y-150094500D01*
X138127233Y-150100172D01*
X138098720Y-150105843D01*
X138098719Y-150105843D01*
X138098717Y-150105844D01*
X138030039Y-150151733D01*
X138029322Y-150150660D01*
X138000000Y-150162807D01*
X137970678Y-150150661D01*
X137969962Y-150151733D01*
X137901281Y-150105843D01*
X137889875Y-150103574D01*
X137844255Y-150094500D01*
X137844251Y-150094500D01*
X137655749Y-150094500D01*
X137627233Y-150100172D01*
X137598720Y-150105843D01*
X137598719Y-150105843D01*
X137598717Y-150105844D01*
X137534050Y-150149052D01*
X137490843Y-150213718D01*
X137489526Y-150220339D01*
X137479500Y-150270745D01*
X137479500Y-150270746D01*
X137479500Y-150270748D01*
X137479500Y-150488381D01*
X137475772Y-150507128D01*
X137474501Y-150510198D01*
X137474500Y-150510200D01*
X137474500Y-150619800D01*
X137475771Y-150622868D01*
X137479500Y-150641618D01*
X137479500Y-150859251D01*
X137479501Y-150859254D01*
X137490843Y-150916280D01*
X137490843Y-150916281D01*
X137490844Y-150916282D01*
X137534052Y-150980949D01*
X137598718Y-151024156D01*
X137598720Y-151024157D01*
X137655745Y-151035500D01*
X137844254Y-151035499D01*
X137901280Y-151024157D01*
X137965948Y-150980948D01*
X137965947Y-150980948D01*
X137969961Y-150978267D01*
X137970678Y-150979340D01*
X137999991Y-150967192D01*
X138029323Y-150979336D01*
X138030038Y-150978267D01*
X138098718Y-151024156D01*
X138098720Y-151024157D01*
X138155745Y-151035500D01*
X138344254Y-151035499D01*
X138401280Y-151024157D01*
X138465948Y-150980948D01*
X138471606Y-150972479D01*
X138502784Y-150951644D01*
X138539567Y-150958956D01*
X138546996Y-150965053D01*
X138548470Y-150966527D01*
X138566040Y-150978267D01*
X138606523Y-151005317D01*
X138606525Y-151005318D01*
X138657710Y-151015499D01*
X138657716Y-151015500D01*
X138842284Y-151015500D01*
X138842969Y-151015363D01*
X138893474Y-151005318D01*
X138893474Y-151005317D01*
X138893477Y-151005317D01*
X138951528Y-150966528D01*
X138959258Y-150954959D01*
X138990439Y-150934124D01*
X139027222Y-150941439D01*
X139040741Y-150954958D01*
X139048472Y-150966528D01*
X139106523Y-151005317D01*
X139106525Y-151005318D01*
X139157710Y-151015499D01*
X139157716Y-151015500D01*
X139342284Y-151015500D01*
X139342969Y-151015363D01*
X139393474Y-151005318D01*
X139393474Y-151005317D01*
X139393477Y-151005317D01*
X139451528Y-150966528D01*
X139451532Y-150966521D01*
X139452999Y-150965056D01*
X139454927Y-150964257D01*
X139455541Y-150963847D01*
X139455622Y-150963969D01*
X139487646Y-150950701D01*
X139522296Y-150965049D01*
X139528394Y-150972480D01*
X139534052Y-150980949D01*
X139598718Y-151024156D01*
X139598720Y-151024157D01*
X139655745Y-151035500D01*
X139844254Y-151035499D01*
X139901280Y-151024157D01*
X139965948Y-150980948D01*
X139965947Y-150980948D01*
X139969961Y-150978267D01*
X139970678Y-150979340D01*
X139999991Y-150967192D01*
X140029323Y-150979336D01*
X140030038Y-150978267D01*
X140098718Y-151024156D01*
X140098720Y-151024157D01*
X140155745Y-151035500D01*
X140344254Y-151035499D01*
X140401280Y-151024157D01*
X140465948Y-150980948D01*
X140471606Y-150972479D01*
X140502784Y-150951644D01*
X140539567Y-150958956D01*
X140546996Y-150965053D01*
X140548470Y-150966527D01*
X140566040Y-150978267D01*
X140606523Y-151005317D01*
X140606525Y-151005318D01*
X140657710Y-151015499D01*
X140657716Y-151015500D01*
X140842284Y-151015500D01*
X140842969Y-151015363D01*
X140893474Y-151005318D01*
X140893474Y-151005317D01*
X140893477Y-151005317D01*
X140951528Y-150966528D01*
X140959258Y-150954959D01*
X140990439Y-150934124D01*
X141027222Y-150941439D01*
X141040741Y-150954958D01*
X141048472Y-150966528D01*
X141106523Y-151005317D01*
X141106525Y-151005318D01*
X141157710Y-151015499D01*
X141157716Y-151015500D01*
X141342284Y-151015500D01*
X141342969Y-151015363D01*
X141393474Y-151005318D01*
X141393474Y-151005317D01*
X141393477Y-151005317D01*
X141451528Y-150966528D01*
X141451532Y-150966521D01*
X141452999Y-150965056D01*
X141454927Y-150964257D01*
X141455541Y-150963847D01*
X141455622Y-150963969D01*
X141487646Y-150950701D01*
X141522296Y-150965049D01*
X141528394Y-150972480D01*
X141534052Y-150980949D01*
X141598718Y-151024156D01*
X141598720Y-151024157D01*
X141655745Y-151035500D01*
X141844254Y-151035499D01*
X141901280Y-151024157D01*
X141965948Y-150980948D01*
X141965947Y-150980948D01*
X141969961Y-150978267D01*
X141970678Y-150979340D01*
X141999991Y-150967192D01*
X142029323Y-150979336D01*
X142030038Y-150978267D01*
X142098718Y-151024156D01*
X142098720Y-151024157D01*
X142155745Y-151035500D01*
X142344254Y-151035499D01*
X142401280Y-151024157D01*
X142465948Y-150980948D01*
X142467023Y-150979340D01*
X142500000Y-150929984D01*
X142509157Y-150916280D01*
X142520500Y-150859255D01*
X142520499Y-150641618D01*
X142524230Y-150622865D01*
X142525500Y-150619800D01*
X142525500Y-150510200D01*
X142524228Y-150507129D01*
X142520499Y-150488379D01*
X142520499Y-150270748D01*
X142520499Y-150270746D01*
X142509157Y-150213720D01*
X142486937Y-150180465D01*
X142465947Y-150149050D01*
X142401281Y-150105843D01*
X142389875Y-150103574D01*
X142344255Y-150094500D01*
X142344251Y-150094500D01*
X142155749Y-150094500D01*
X142127233Y-150100172D01*
X142098720Y-150105843D01*
X142098719Y-150105843D01*
X142098717Y-150105844D01*
X142030039Y-150151733D01*
X142029322Y-150150660D01*
X142000000Y-150162807D01*
X141970678Y-150150661D01*
X141969962Y-150151733D01*
X141901281Y-150105843D01*
X141889875Y-150103574D01*
X141844255Y-150094500D01*
X141844251Y-150094500D01*
X141655749Y-150094500D01*
X141627233Y-150100172D01*
X141598720Y-150105843D01*
X141598719Y-150105843D01*
X141598717Y-150105844D01*
X141530039Y-150151733D01*
X141529475Y-150150890D01*
X141499500Y-150163307D01*
X141464852Y-150148955D01*
X141450500Y-150114307D01*
X141450500Y-149978344D01*
X141464851Y-149943697D01*
X141606680Y-149801867D01*
X141606684Y-149801865D01*
X141613573Y-149794976D01*
X141613574Y-149794976D01*
X141669976Y-149738574D01*
X141693284Y-149682301D01*
X141719802Y-149655783D01*
X141757305Y-149655783D01*
X141779296Y-149673830D01*
X141784052Y-149680948D01*
X141784053Y-149680949D01*
X141848718Y-149724156D01*
X141848720Y-149724157D01*
X141905745Y-149735500D01*
X142094254Y-149735499D01*
X142151280Y-149724157D01*
X142215948Y-149680948D01*
X142215947Y-149680948D01*
X142219961Y-149678267D01*
X142220678Y-149679340D01*
X142249991Y-149667192D01*
X142279323Y-149679336D01*
X142280038Y-149678267D01*
X142348718Y-149724156D01*
X142348720Y-149724157D01*
X142405745Y-149735500D01*
X142594254Y-149735499D01*
X142651280Y-149724157D01*
X142715948Y-149680948D01*
X142717023Y-149679340D01*
X142750000Y-149629984D01*
X142759157Y-149616280D01*
X142770500Y-149559255D01*
X142770499Y-149047458D01*
X142784851Y-149012811D01*
X142874811Y-148922852D01*
X142909459Y-148908500D01*
X143073418Y-148908500D01*
X143073419Y-148908500D01*
X143073420Y-148908500D01*
X143170819Y-148868156D01*
X143235230Y-148803744D01*
X143269875Y-148789394D01*
X143304524Y-148803745D01*
X143318876Y-148838393D01*
X143315147Y-148857143D01*
X143310352Y-148868719D01*
X143310349Y-148868728D01*
X143270000Y-149071587D01*
X143270000Y-149425000D01*
X144020000Y-149425000D01*
X144020000Y-149925000D01*
X143270000Y-149925000D01*
X143270000Y-150278412D01*
X143310349Y-150481271D01*
X143310351Y-150481277D01*
X143389500Y-150672358D01*
X143504410Y-150844335D01*
X143650664Y-150990589D01*
X143822641Y-151105499D01*
X144013722Y-151184648D01*
X144013728Y-151184650D01*
X144070000Y-151195842D01*
X144070000Y-150341988D01*
X144079940Y-150359205D01*
X144135795Y-150415060D01*
X144204204Y-150454556D01*
X144280504Y-150475000D01*
X144359496Y-150475000D01*
X144435796Y-150454556D01*
X144504205Y-150415060D01*
X144560060Y-150359205D01*
X144570000Y-150341988D01*
X144570000Y-151195842D01*
X144626271Y-151184650D01*
X144626277Y-151184648D01*
X144817358Y-151105499D01*
X144989335Y-150990589D01*
X145135589Y-150844335D01*
X145250499Y-150672358D01*
X145329648Y-150481277D01*
X145329650Y-150481271D01*
X145370000Y-150278412D01*
X145370000Y-149925000D01*
X144620000Y-149925000D01*
X144620000Y-149425000D01*
X145370000Y-149425000D01*
X145370000Y-149071587D01*
X145329650Y-148868728D01*
X145329648Y-148868722D01*
X145250499Y-148677641D01*
X145135589Y-148505664D01*
X144989335Y-148359410D01*
X144817358Y-148244500D01*
X144626272Y-148165349D01*
X144626267Y-148165348D01*
X144570000Y-148154155D01*
X144570000Y-149008011D01*
X144560060Y-148990795D01*
X144504205Y-148934940D01*
X144435796Y-148895444D01*
X144359496Y-148875000D01*
X144280504Y-148875000D01*
X144204204Y-148895444D01*
X144135795Y-148934940D01*
X144079940Y-148990795D01*
X144070000Y-149008011D01*
X144070000Y-148154155D01*
X144069999Y-148154155D01*
X144013732Y-148165348D01*
X144013723Y-148165350D01*
X144002143Y-148170147D01*
X143964640Y-148170145D01*
X143938123Y-148143625D01*
X143938125Y-148106122D01*
X143948742Y-148090232D01*
X143996289Y-148042686D01*
X144036633Y-147945287D01*
X144036633Y-147839864D01*
X144036633Y-147500481D01*
X144050985Y-147465833D01*
X144225717Y-147291102D01*
X144260365Y-147276750D01*
X144355501Y-147276750D01*
X144390149Y-147291102D01*
X144404501Y-147325750D01*
X144404501Y-147420999D01*
X144411004Y-147470409D01*
X144461567Y-147578839D01*
X144546160Y-147663432D01*
X144546162Y-147663433D01*
X144546163Y-147663434D01*
X144654591Y-147713995D01*
X144704001Y-147720500D01*
X145295998Y-147720499D01*
X145345409Y-147713995D01*
X145453837Y-147663434D01*
X145538434Y-147578837D01*
X145588995Y-147470409D01*
X145595500Y-147420999D01*
X145595499Y-146904002D01*
X145588995Y-146854591D01*
X145580209Y-146835750D01*
X145557360Y-146786750D01*
X145538434Y-146746163D01*
X145538432Y-146746161D01*
X145538432Y-146746160D01*
X145453839Y-146661567D01*
X145453837Y-146661566D01*
X145345410Y-146611005D01*
X145335527Y-146609704D01*
X145295999Y-146604500D01*
X145295995Y-146604500D01*
X144837063Y-146604500D01*
X144802415Y-146590148D01*
X144246352Y-146034085D01*
X144232000Y-145999437D01*
X144232000Y-144927270D01*
X144246352Y-144892622D01*
X144735839Y-144403136D01*
X145229157Y-143909818D01*
X145269501Y-143812419D01*
X145269501Y-143706996D01*
X145269501Y-143703053D01*
X145269500Y-143703039D01*
X145269500Y-143404004D01*
X145854500Y-143404004D01*
X145854500Y-143920994D01*
X145854501Y-143920999D01*
X145861004Y-143970409D01*
X145911567Y-144078839D01*
X145996160Y-144163432D01*
X145996162Y-144163433D01*
X145996163Y-144163434D01*
X146104591Y-144213995D01*
X146154001Y-144220500D01*
X146745998Y-144220499D01*
X146795409Y-144213995D01*
X146903837Y-144163434D01*
X146988434Y-144078837D01*
X147038995Y-143970409D01*
X147045500Y-143920999D01*
X147045499Y-143404002D01*
X147042208Y-143379004D01*
X148329500Y-143379004D01*
X148329500Y-143895994D01*
X148329501Y-143895999D01*
X148336004Y-143945409D01*
X148386567Y-144053839D01*
X148471160Y-144138432D01*
X148471162Y-144138433D01*
X148471163Y-144138434D01*
X148579591Y-144188995D01*
X148629001Y-144195500D01*
X149220998Y-144195499D01*
X149270409Y-144188995D01*
X149378837Y-144138434D01*
X149463434Y-144053837D01*
X149513995Y-143945409D01*
X149520500Y-143895999D01*
X149520499Y-143379002D01*
X149513995Y-143329591D01*
X149513994Y-143329589D01*
X149483821Y-143264883D01*
X149463434Y-143221163D01*
X149463432Y-143221161D01*
X149463432Y-143221160D01*
X149378839Y-143136567D01*
X149378837Y-143136566D01*
X149270410Y-143086005D01*
X149260527Y-143084704D01*
X149220999Y-143079500D01*
X149220995Y-143079500D01*
X148629005Y-143079500D01*
X148629000Y-143079501D01*
X148579590Y-143086004D01*
X148471160Y-143136567D01*
X148386567Y-143221160D01*
X148386566Y-143221162D01*
X148336005Y-143329589D01*
X148334822Y-143338574D01*
X148329501Y-143379000D01*
X148329500Y-143379004D01*
X147042208Y-143379004D01*
X147038995Y-143354590D01*
X146997163Y-143264883D01*
X146988434Y-143246163D01*
X146988432Y-143246161D01*
X146988432Y-143246160D01*
X146903839Y-143161567D01*
X146903837Y-143161566D01*
X146795410Y-143111005D01*
X146785527Y-143109704D01*
X146745999Y-143104500D01*
X146745995Y-143104500D01*
X146154005Y-143104500D01*
X146154000Y-143104501D01*
X146104590Y-143111004D01*
X145996160Y-143161567D01*
X145911567Y-143246160D01*
X145911566Y-143246162D01*
X145861005Y-143354589D01*
X145861005Y-143354590D01*
X145861005Y-143354591D01*
X145854501Y-143404000D01*
X145854500Y-143404004D01*
X145269500Y-143404004D01*
X145269500Y-134037582D01*
X145269499Y-134037578D01*
X145229156Y-133940181D01*
X145229154Y-133940179D01*
X145229154Y-133940178D01*
X145151821Y-133862846D01*
X145151814Y-133862840D01*
X142473852Y-131184878D01*
X142459500Y-131150230D01*
X142459500Y-129962307D01*
X142463230Y-129943556D01*
X142505000Y-129842712D01*
X142505000Y-129659048D01*
X142516128Y-129632181D01*
X142514195Y-129630889D01*
X142522684Y-129618183D01*
X142543509Y-129587017D01*
X142550500Y-129551870D01*
X142550500Y-128528130D01*
X142543509Y-128492983D01*
X142520949Y-128459219D01*
X142516876Y-128453123D01*
X142477017Y-128426491D01*
X142441870Y-128419500D01*
X142038130Y-128419500D01*
X142014733Y-128424153D01*
X141999558Y-128427172D01*
X141980442Y-128427172D01*
X141965266Y-128424153D01*
X141941870Y-128419500D01*
X141538130Y-128419500D01*
X141502983Y-128426491D01*
X141490383Y-128434910D01*
X141453602Y-128442225D01*
X141439899Y-128439500D01*
X141439896Y-128439500D01*
X141040105Y-128439500D01*
X141040101Y-128439501D01*
X141010785Y-128445331D01*
X141008747Y-128446175D01*
X141006540Y-128446175D01*
X141006053Y-128446272D01*
X141006033Y-128446175D01*
X140973964Y-128446175D01*
X140973945Y-128446272D01*
X140973462Y-128446175D01*
X140971256Y-128446176D01*
X140969215Y-128445331D01*
X140939900Y-128439500D01*
X140540105Y-128439500D01*
X140540094Y-128439501D01*
X140526393Y-128442226D01*
X140489616Y-128434909D01*
X140477018Y-128426491D01*
X140468230Y-128424743D01*
X140441870Y-128419500D01*
X140038130Y-128419500D01*
X140014733Y-128424153D01*
X139999558Y-128427172D01*
X139980442Y-128427172D01*
X139965266Y-128424153D01*
X139941870Y-128419500D01*
X139538130Y-128419500D01*
X139502983Y-128426491D01*
X139490383Y-128434910D01*
X139453602Y-128442225D01*
X139439899Y-128439500D01*
X139439896Y-128439500D01*
X139040105Y-128439500D01*
X139040101Y-128439501D01*
X139010785Y-128445331D01*
X139008747Y-128446175D01*
X139006540Y-128446175D01*
X139006053Y-128446272D01*
X139006033Y-128446175D01*
X138973964Y-128446175D01*
X138973945Y-128446272D01*
X138973462Y-128446175D01*
X138971256Y-128446176D01*
X138969215Y-128445331D01*
X138939900Y-128439500D01*
X138540105Y-128439500D01*
X138540094Y-128439501D01*
X138526393Y-128442226D01*
X138489616Y-128434909D01*
X138477018Y-128426491D01*
X138468230Y-128424743D01*
X138441870Y-128419500D01*
X138038130Y-128419500D01*
X138014733Y-128424153D01*
X137999558Y-128427172D01*
X137980442Y-128427172D01*
X137965266Y-128424153D01*
X137941870Y-128419500D01*
X137538130Y-128419500D01*
X137511769Y-128424743D01*
X137502982Y-128426491D01*
X137463123Y-128453123D01*
X137436491Y-128492982D01*
X137436491Y-128492983D01*
X137429500Y-128528130D01*
X137429500Y-129551870D01*
X137436491Y-129587017D01*
X137465805Y-129630889D01*
X137463866Y-129632184D01*
X137475000Y-129659022D01*
X137475000Y-129842713D01*
X137515344Y-129940112D01*
X137515345Y-129940113D01*
X137516770Y-129943553D01*
X137520500Y-129962305D01*
X137520500Y-130047919D01*
X137525502Y-130059993D01*
X137529232Y-130078745D01*
X137529232Y-131086497D01*
X137514880Y-131121145D01*
X134595389Y-134040636D01*
X134520845Y-134115178D01*
X134520845Y-134115179D01*
X134480500Y-134212578D01*
X134480500Y-134212580D01*
X134480500Y-143162420D01*
X134520844Y-143259819D01*
X134520845Y-143259820D01*
X134520845Y-143259821D01*
X134602280Y-143341255D01*
X134602282Y-143341256D01*
X135591148Y-144330122D01*
X135605500Y-144364770D01*
X135605500Y-145486937D01*
X135591148Y-145521585D01*
X134972584Y-146140148D01*
X134937936Y-146154500D01*
X134479005Y-146154500D01*
X134479000Y-146154501D01*
X134429590Y-146161004D01*
X134321160Y-146211567D01*
X134236567Y-146296160D01*
X134236566Y-146296162D01*
X134186005Y-146404589D01*
X134186005Y-146404591D01*
X134179730Y-146452260D01*
X134179500Y-146454004D01*
X130700500Y-146454004D01*
X130700500Y-146368880D01*
X130666270Y-146108884D01*
X130666267Y-146108872D01*
X130598400Y-145855587D01*
X130598396Y-145855577D01*
X130595485Y-145848549D01*
X130498043Y-145613303D01*
X130366924Y-145386197D01*
X130366921Y-145386193D01*
X130366915Y-145386184D01*
X130207290Y-145178158D01*
X130207279Y-145178146D01*
X130021853Y-144992720D01*
X130021841Y-144992709D01*
X129813815Y-144833084D01*
X129813800Y-144833074D01*
X129586700Y-144701959D01*
X129586701Y-144701959D01*
X129586697Y-144701957D01*
X129352683Y-144605025D01*
X129344422Y-144601603D01*
X129344412Y-144601599D01*
X129091127Y-144533732D01*
X129091120Y-144533731D01*
X129091116Y-144533730D01*
X128831120Y-144499500D01*
X128568880Y-144499500D01*
X128308884Y-144533730D01*
X128308880Y-144533730D01*
X128308872Y-144533732D01*
X128055587Y-144601599D01*
X128055577Y-144601603D01*
X127911156Y-144661425D01*
X127813303Y-144701957D01*
X127813300Y-144701958D01*
X127813299Y-144701959D01*
X127586199Y-144833074D01*
X127586184Y-144833084D01*
X127378158Y-144992709D01*
X127378146Y-144992720D01*
X127192715Y-145178151D01*
X127088374Y-145314131D01*
X127055895Y-145332882D01*
X127019670Y-145323175D01*
X127000919Y-145290696D01*
X127000500Y-145284301D01*
X127000500Y-143104004D01*
X130029500Y-143104004D01*
X130029500Y-143620994D01*
X130029501Y-143620999D01*
X130036004Y-143670409D01*
X130086567Y-143778839D01*
X130171160Y-143863432D01*
X130171162Y-143863433D01*
X130171163Y-143863434D01*
X130279591Y-143913995D01*
X130329001Y-143920500D01*
X130920998Y-143920499D01*
X130970409Y-143913995D01*
X131078837Y-143863434D01*
X131163434Y-143778837D01*
X131213995Y-143670409D01*
X131220500Y-143620999D01*
X131220499Y-143104004D01*
X133129500Y-143104004D01*
X133129500Y-143620994D01*
X133129501Y-143620999D01*
X133136004Y-143670409D01*
X133186567Y-143778839D01*
X133271160Y-143863432D01*
X133271162Y-143863433D01*
X133271163Y-143863434D01*
X133379591Y-143913995D01*
X133429001Y-143920500D01*
X134020998Y-143920499D01*
X134070409Y-143913995D01*
X134178837Y-143863434D01*
X134263434Y-143778837D01*
X134313995Y-143670409D01*
X134320500Y-143620999D01*
X134320499Y-143104002D01*
X134313995Y-143054591D01*
X134313994Y-143054589D01*
X134277114Y-142975500D01*
X134263434Y-142946163D01*
X134263432Y-142946161D01*
X134263432Y-142946160D01*
X134178839Y-142861567D01*
X134178837Y-142861566D01*
X134070410Y-142811005D01*
X134060527Y-142809704D01*
X134020999Y-142804500D01*
X134020995Y-142804500D01*
X133429005Y-142804500D01*
X133429000Y-142804501D01*
X133379590Y-142811004D01*
X133271160Y-142861567D01*
X133186567Y-142946160D01*
X133186566Y-142946162D01*
X133136005Y-143054589D01*
X133136005Y-143054590D01*
X133136005Y-143054591D01*
X133129501Y-143104000D01*
X133129500Y-143104004D01*
X131220499Y-143104004D01*
X131220499Y-143104002D01*
X131213995Y-143054591D01*
X131213994Y-143054589D01*
X131177114Y-142975500D01*
X131163434Y-142946163D01*
X131163432Y-142946161D01*
X131163432Y-142946160D01*
X131078839Y-142861567D01*
X131078837Y-142861566D01*
X130970410Y-142811005D01*
X130960527Y-142809704D01*
X130920999Y-142804500D01*
X130920995Y-142804500D01*
X130329005Y-142804500D01*
X130329000Y-142804501D01*
X130279590Y-142811004D01*
X130171160Y-142861567D01*
X130086567Y-142946160D01*
X130086566Y-142946162D01*
X130036005Y-143054589D01*
X130036005Y-143054590D01*
X130036005Y-143054591D01*
X130029501Y-143104000D01*
X130029500Y-143104004D01*
X127000500Y-143104004D01*
X127000500Y-130803857D01*
X127001103Y-130796192D01*
X127008038Y-130752405D01*
X127013275Y-130719340D01*
X127016398Y-130708267D01*
X127022869Y-130692647D01*
X127024475Y-130689164D01*
X127038380Y-130661875D01*
X127054176Y-130630871D01*
X127063184Y-130618472D01*
X127118472Y-130563184D01*
X127130872Y-130554176D01*
X127139718Y-130549669D01*
X127189174Y-130524470D01*
X127192647Y-130522869D01*
X127208267Y-130516398D01*
X127219337Y-130513276D01*
X127296193Y-130501103D01*
X127303858Y-130500500D01*
X127747593Y-130500500D01*
X127747595Y-130500500D01*
X127757810Y-130497180D01*
X127759100Y-130497118D01*
X127763077Y-130495469D01*
X127838125Y-130471085D01*
X127859579Y-130455497D01*
X127868304Y-130451884D01*
X127878269Y-130441918D01*
X127915134Y-130415134D01*
X127941919Y-130378267D01*
X127951884Y-130368304D01*
X127955497Y-130359579D01*
X127971085Y-130338125D01*
X127995468Y-130263080D01*
X127997118Y-130259100D01*
X127997179Y-130257813D01*
X128000500Y-130247595D01*
X128000500Y-130200000D01*
X128000500Y-130199500D01*
X128000500Y-129295095D01*
X136119500Y-129295095D01*
X136119500Y-130464894D01*
X136119501Y-130464898D01*
X136125331Y-130494213D01*
X136125331Y-130494214D01*
X136125332Y-130494215D01*
X136125332Y-130494216D01*
X136145552Y-130524477D01*
X136147543Y-130527457D01*
X136180787Y-130549669D01*
X136210101Y-130555500D01*
X136929898Y-130555499D01*
X136959213Y-130549669D01*
X136992457Y-130527457D01*
X137014669Y-130494213D01*
X137020500Y-130464899D01*
X137020499Y-129295102D01*
X137014669Y-129265787D01*
X137014667Y-129265784D01*
X137014667Y-129265783D01*
X136992457Y-129232543D01*
X136959212Y-129210330D01*
X136929901Y-129204500D01*
X136210105Y-129204500D01*
X136210104Y-129204500D01*
X136210102Y-129204501D01*
X136180787Y-129210331D01*
X136180786Y-129210331D01*
X136180784Y-129210332D01*
X136180783Y-129210332D01*
X136147543Y-129232542D01*
X136125330Y-129265786D01*
X136125330Y-129265787D01*
X136119500Y-129295095D01*
X128000500Y-129295095D01*
X128000500Y-127303857D01*
X128001103Y-127296192D01*
X128008038Y-127252405D01*
X128013275Y-127219340D01*
X128016398Y-127208267D01*
X128022869Y-127192647D01*
X128024475Y-127189164D01*
X128038380Y-127161875D01*
X128054176Y-127130871D01*
X128063184Y-127118472D01*
X128118472Y-127063184D01*
X128130872Y-127054176D01*
X128130874Y-127054175D01*
X128189174Y-127024470D01*
X128192647Y-127022869D01*
X128208267Y-127016398D01*
X128219337Y-127013276D01*
X128296193Y-127001103D01*
X128303858Y-127000500D01*
X134996142Y-127000500D01*
X135003807Y-127001103D01*
G37*
G04 #@! TD.AperFunction*
G04 #@! TA.AperFunction,NonConductor*
G36*
X141006544Y-129633825D02*
G01*
X141008752Y-129633826D01*
X141010786Y-129634668D01*
X141010787Y-129634669D01*
X141010788Y-129634669D01*
X141010790Y-129634670D01*
X141025444Y-129637584D01*
X141040101Y-129640500D01*
X141426000Y-129640499D01*
X141460648Y-129654851D01*
X141475000Y-129689499D01*
X141475000Y-129842713D01*
X141515344Y-129940112D01*
X141515345Y-129940113D01*
X141516770Y-129943553D01*
X141520500Y-129962305D01*
X141520500Y-131308242D01*
X141506148Y-131342890D01*
X141471500Y-131357242D01*
X141436852Y-131342890D01*
X140954852Y-130860890D01*
X140940500Y-130826242D01*
X140940500Y-129679303D01*
X140944730Y-129669091D01*
X140944730Y-129660344D01*
X140950915Y-129654159D01*
X140954852Y-129644655D01*
X140970757Y-129634029D01*
X140971257Y-129633822D01*
X141006033Y-129633825D01*
X141006053Y-129633728D01*
X141006544Y-129633825D01*
G37*
G04 #@! TD.AperFunction*
G04 #@! TA.AperFunction,NonConductor*
G36*
X136092836Y-145814951D02*
G01*
X136109648Y-145821915D01*
X136136280Y-145848547D01*
X136136282Y-145848548D01*
X136658714Y-146370980D01*
X136673066Y-146405628D01*
X136658714Y-146440276D01*
X136642818Y-146450898D01*
X136598344Y-146469320D01*
X136598343Y-146469320D01*
X136243715Y-146823950D01*
X136227819Y-146834572D01*
X136129387Y-146875344D01*
X136129386Y-146875346D01*
X136109648Y-146895084D01*
X136075000Y-146909436D01*
X136040352Y-146895084D01*
X136020614Y-146875346D01*
X136020612Y-146875345D01*
X136020611Y-146875344D01*
X135969003Y-146853967D01*
X135922180Y-146834572D01*
X135906284Y-146823950D01*
X135607905Y-146525570D01*
X135607306Y-146525322D01*
X135584167Y-146515737D01*
X135526861Y-146492000D01*
X135526860Y-146492000D01*
X135488561Y-146492000D01*
X135453913Y-146477648D01*
X135439561Y-146443000D01*
X135453913Y-146408352D01*
X135722117Y-146140148D01*
X136020609Y-145841656D01*
X136020611Y-145841656D01*
X136040354Y-145821913D01*
X136057168Y-145814949D01*
X136075000Y-145807563D01*
X136075003Y-145807563D01*
X136092836Y-145814951D01*
G37*
G04 #@! TD.AperFunction*
G04 #@! TA.AperFunction,NonConductor*
G36*
X140789567Y-149658956D02*
G01*
X140796996Y-149665053D01*
X140798470Y-149666527D01*
X140816040Y-149678267D01*
X140856523Y-149705317D01*
X140856525Y-149705318D01*
X140907710Y-149715499D01*
X140907716Y-149715500D01*
X141025714Y-149715500D01*
X141060362Y-149729852D01*
X141074714Y-149764500D01*
X141070984Y-149783249D01*
X141063272Y-149801869D01*
X141049500Y-149835116D01*
X141049500Y-150147069D01*
X141041237Y-150174300D01*
X141040737Y-150175048D01*
X141009550Y-150195877D01*
X140972769Y-150188554D01*
X140959258Y-150175040D01*
X140951528Y-150163471D01*
X140893474Y-150124681D01*
X140842289Y-150114500D01*
X140842284Y-150114500D01*
X140657716Y-150114500D01*
X140657710Y-150114500D01*
X140606525Y-150124681D01*
X140548470Y-150163472D01*
X140546997Y-150164946D01*
X140545072Y-150165743D01*
X140544459Y-150166153D01*
X140544377Y-150166031D01*
X140512349Y-150179298D01*
X140477701Y-150164946D01*
X140471607Y-150157520D01*
X140465949Y-150149052D01*
X140465948Y-150149051D01*
X140401281Y-150105843D01*
X140389875Y-150103574D01*
X140344255Y-150094500D01*
X140344251Y-150094500D01*
X140155747Y-150094500D01*
X140153352Y-150094737D01*
X140153209Y-150093289D01*
X140120739Y-150086821D01*
X140099913Y-150055632D01*
X140107240Y-150018852D01*
X140113322Y-150011443D01*
X140374914Y-149749850D01*
X140409558Y-149735499D01*
X140594254Y-149735499D01*
X140651280Y-149724157D01*
X140715948Y-149680948D01*
X140721606Y-149672479D01*
X140752784Y-149651644D01*
X140789567Y-149658956D01*
G37*
G04 #@! TD.AperFunction*
M02*
