G04 #@! TF.GenerationSoftware,KiCad,Pcbnew,10.0.3*
G04 #@! TF.CreationDate,2026-07-12T18:44:25+02:00*
G04 #@! TF.ProjectId,usb-c-expansion-card,7573622d-632d-4657-9870-616e73696f6e,1.0*
G04 #@! TF.SameCoordinates,Original*
G04 #@! TF.FileFunction,Profile,NP*
%FSLAX46Y46*%
G04 Gerber Fmt 4.6, Leading zero omitted, Abs format (unit mm)*
G04 Created by KiCad (PCBNEW 10.0.3) date 2026-07-12 18:44:25*
%MOMM*%
%LPD*%
G01*
G04 APERTURE LIST*
G04 #@! TA.AperFunction,Profile*
%ADD10C,0.050000*%
G04 #@! TD*
G04 APERTURE END LIST*
D10*
X127000000Y-130800000D02*
X127000000Y-156700000D01*
X127000000Y-130800000D02*
G75*
G02*
X127300000Y-130500000I300000J0D01*
G01*
X127300000Y-130500000D02*
X127700000Y-130500000D01*
X127300000Y-157000000D02*
G75*
G02*
X127000000Y-156700000I0J300000D01*
G01*
X127300000Y-157000000D02*
X152700000Y-157000000D01*
X128000000Y-127300000D02*
G75*
G02*
X128300000Y-127000000I300000J0D01*
G01*
X128000000Y-130200000D02*
G75*
G02*
X127700000Y-130500000I-300000J0D01*
G01*
X128000000Y-130200000D02*
X128000000Y-127300000D01*
X135000000Y-127000000D02*
X128300000Y-127000000D01*
X135000000Y-127000000D02*
G75*
G02*
X135300000Y-127300000I0J-300000D01*
G01*
X135300000Y-128700000D02*
X135300000Y-127300000D01*
X135600000Y-129000000D02*
G75*
G02*
X135300000Y-128700000I0J300000D01*
G01*
X135600000Y-129000000D02*
X135690000Y-129000000D01*
X144290000Y-129000000D02*
X144400000Y-129000000D01*
X144700000Y-127300000D02*
G75*
G02*
X145000000Y-127000000I300000J0D01*
G01*
X144700000Y-128700000D02*
G75*
G02*
X144400000Y-129000000I-300000J0D01*
G01*
X144700000Y-128700000D02*
X144700000Y-127300000D01*
X145000000Y-127000000D02*
X151700000Y-127000000D01*
X151700000Y-127000000D02*
G75*
G02*
X152000000Y-127300000I0J-300000D01*
G01*
X152000000Y-130200000D02*
X152000000Y-127300000D01*
X152300000Y-130500000D02*
G75*
G02*
X152000000Y-130200000I0J300000D01*
G01*
X152300000Y-130500000D02*
X152700000Y-130500000D01*
X152700000Y-130500000D02*
G75*
G02*
X153000000Y-130800000I0J-300000D01*
G01*
X153000000Y-130800000D02*
X153000000Y-156700000D01*
X153000000Y-156700000D02*
G75*
G02*
X152700000Y-157000000I-300000J0D01*
G01*
X136640000Y-129000000D02*
X135690000Y-129000000D01*
X136940000Y-128340000D02*
X136940000Y-128700000D01*
X137240000Y-128040000D02*
X142740000Y-128040000D01*
X143040000Y-128340000D02*
X143040000Y-128700000D01*
X143340000Y-129000000D02*
X144290000Y-129000000D01*
X136940000Y-128340000D02*
G75*
G02*
X137240000Y-128040000I300000J0D01*
G01*
X136940000Y-128700000D02*
G75*
G02*
X136640000Y-129000000I-300000J0D01*
G01*
X142740000Y-128040000D02*
G75*
G02*
X143040000Y-128340000I0J-300000D01*
G01*
X143340000Y-129000000D02*
G75*
G02*
X143040000Y-128700000I0J300000D01*
G01*
M02*
