G04 #@! TF.GenerationSoftware,KiCad,Pcbnew,10.0.3*
G04 #@! TF.CreationDate,2026-07-12T18:44:25+02:00*
G04 #@! TF.ProjectId,usb-c-expansion-card,7573622d-632d-4657-9870-616e73696f6e,1.0*
G04 #@! TF.SameCoordinates,Original*
G04 #@! TF.FileFunction,Soldermask,Bot*
G04 #@! TF.FilePolarity,Negative*
%FSLAX46Y46*%
G04 Gerber Fmt 4.6, Leading zero omitted, Abs format (unit mm)*
G04 Created by KiCad (PCBNEW 10.0.3) date 2026-07-12 18:44:25*
%MOMM*%
%LPD*%
G01*
G04 APERTURE LIST*
G04 APERTURE END LIST*
G36*
X135742771Y-153739705D02*
G01*
X135751789Y-153739705D01*
X135777771Y-153746666D01*
X135839569Y-153758959D01*
X135868738Y-153771041D01*
X135890476Y-153776866D01*
X135909965Y-153788118D01*
X135939133Y-153800200D01*
X135991524Y-153835206D01*
X136014819Y-153848656D01*
X136021194Y-153855031D01*
X136028729Y-153860066D01*
X136104933Y-153936270D01*
X136109967Y-153943804D01*
X136116344Y-153950181D01*
X136129795Y-153973479D01*
X136164799Y-154025866D01*
X136176879Y-154055030D01*
X136188134Y-154074524D01*
X136193959Y-154096265D01*
X136206040Y-154125430D01*
X136218329Y-154187215D01*
X136225295Y-154213211D01*
X136226177Y-154226668D01*
X136227351Y-154232571D01*
X136229709Y-154280571D01*
X136230000Y-154285000D01*
X136230000Y-155785000D01*
X136229709Y-155789431D01*
X136227351Y-155837428D01*
X136226177Y-155843329D01*
X136225295Y-155856789D01*
X136218328Y-155882787D01*
X136206040Y-155944569D01*
X136193960Y-155973731D01*
X136188134Y-155995476D01*
X136176878Y-156014971D01*
X136164799Y-156044133D01*
X136129799Y-156096513D01*
X136116344Y-156119819D01*
X136109965Y-156126197D01*
X136104933Y-156133729D01*
X136028729Y-156209933D01*
X136021197Y-156214965D01*
X136014819Y-156221344D01*
X135991513Y-156234799D01*
X135939133Y-156269799D01*
X135909971Y-156281878D01*
X135890476Y-156293134D01*
X135868731Y-156298960D01*
X135839569Y-156311040D01*
X135777777Y-156323331D01*
X135751789Y-156330295D01*
X135742770Y-156330295D01*
X135733882Y-156332063D01*
X135626118Y-156332063D01*
X135617230Y-156330295D01*
X135608211Y-156330295D01*
X135582223Y-156323331D01*
X135520430Y-156311040D01*
X135491265Y-156298959D01*
X135469524Y-156293134D01*
X135450030Y-156281879D01*
X135420866Y-156269799D01*
X135368479Y-156234795D01*
X135345181Y-156221344D01*
X135338804Y-156214967D01*
X135331270Y-156209933D01*
X135255066Y-156133729D01*
X135250031Y-156126194D01*
X135243656Y-156119819D01*
X135230206Y-156096524D01*
X135195200Y-156044133D01*
X135183118Y-156014965D01*
X135171866Y-155995476D01*
X135166041Y-155973738D01*
X135153959Y-155944569D01*
X135141667Y-155882773D01*
X135134705Y-155856789D01*
X135133823Y-155843337D01*
X135132648Y-155837428D01*
X135130290Y-155789425D01*
X135130000Y-155785000D01*
X135130000Y-154285000D01*
X135130289Y-154280577D01*
X135132648Y-154232571D01*
X135133823Y-154226661D01*
X135134705Y-154213211D01*
X135141666Y-154187229D01*
X135153959Y-154125430D01*
X135166042Y-154096258D01*
X135171866Y-154074524D01*
X135183116Y-154055037D01*
X135195200Y-154025866D01*
X135230211Y-153973468D01*
X135243656Y-153950181D01*
X135250029Y-153943807D01*
X135255066Y-153936270D01*
X135331270Y-153860066D01*
X135338807Y-153855029D01*
X135345181Y-153848656D01*
X135368468Y-153835211D01*
X135420866Y-153800200D01*
X135450037Y-153788116D01*
X135469524Y-153776866D01*
X135491258Y-153771042D01*
X135520430Y-153758959D01*
X135582229Y-153746666D01*
X135608211Y-153739705D01*
X135617229Y-153739705D01*
X135626118Y-153737937D01*
X135733882Y-153737937D01*
X135742771Y-153739705D01*
G37*
G36*
X144382771Y-153739705D02*
G01*
X144391789Y-153739705D01*
X144417771Y-153746666D01*
X144479569Y-153758959D01*
X144508738Y-153771041D01*
X144530476Y-153776866D01*
X144549965Y-153788118D01*
X144579133Y-153800200D01*
X144631524Y-153835206D01*
X144654819Y-153848656D01*
X144661194Y-153855031D01*
X144668729Y-153860066D01*
X144744933Y-153936270D01*
X144749967Y-153943804D01*
X144756344Y-153950181D01*
X144769795Y-153973479D01*
X144804799Y-154025866D01*
X144816879Y-154055030D01*
X144828134Y-154074524D01*
X144833959Y-154096265D01*
X144846040Y-154125430D01*
X144858329Y-154187215D01*
X144865295Y-154213211D01*
X144866177Y-154226668D01*
X144867351Y-154232571D01*
X144869709Y-154280571D01*
X144870000Y-154285000D01*
X144870000Y-155785000D01*
X144869709Y-155789431D01*
X144867351Y-155837428D01*
X144866177Y-155843329D01*
X144865295Y-155856789D01*
X144858328Y-155882787D01*
X144846040Y-155944569D01*
X144833960Y-155973731D01*
X144828134Y-155995476D01*
X144816878Y-156014971D01*
X144804799Y-156044133D01*
X144769799Y-156096513D01*
X144756344Y-156119819D01*
X144749965Y-156126197D01*
X144744933Y-156133729D01*
X144668729Y-156209933D01*
X144661197Y-156214965D01*
X144654819Y-156221344D01*
X144631513Y-156234799D01*
X144579133Y-156269799D01*
X144549971Y-156281878D01*
X144530476Y-156293134D01*
X144508731Y-156298960D01*
X144479569Y-156311040D01*
X144417777Y-156323331D01*
X144391789Y-156330295D01*
X144382770Y-156330295D01*
X144373882Y-156332063D01*
X144266118Y-156332063D01*
X144257230Y-156330295D01*
X144248211Y-156330295D01*
X144222223Y-156323331D01*
X144160430Y-156311040D01*
X144131265Y-156298959D01*
X144109524Y-156293134D01*
X144090030Y-156281879D01*
X144060866Y-156269799D01*
X144008479Y-156234795D01*
X143985181Y-156221344D01*
X143978804Y-156214967D01*
X143971270Y-156209933D01*
X143895066Y-156133729D01*
X143890031Y-156126194D01*
X143883656Y-156119819D01*
X143870206Y-156096524D01*
X143835200Y-156044133D01*
X143823118Y-156014965D01*
X143811866Y-155995476D01*
X143806041Y-155973738D01*
X143793959Y-155944569D01*
X143781667Y-155882773D01*
X143774705Y-155856789D01*
X143773823Y-155843337D01*
X143772648Y-155837428D01*
X143770290Y-155789425D01*
X143770000Y-155785000D01*
X143770000Y-154285000D01*
X143770289Y-154280577D01*
X143772648Y-154232571D01*
X143773823Y-154226661D01*
X143774705Y-154213211D01*
X143781666Y-154187229D01*
X143793959Y-154125430D01*
X143806042Y-154096258D01*
X143811866Y-154074524D01*
X143823116Y-154055037D01*
X143835200Y-154025866D01*
X143870211Y-153973468D01*
X143883656Y-153950181D01*
X143890029Y-153943807D01*
X143895066Y-153936270D01*
X143971270Y-153860066D01*
X143978807Y-153855029D01*
X143985181Y-153848656D01*
X144008468Y-153835211D01*
X144060866Y-153800200D01*
X144090037Y-153788116D01*
X144109524Y-153776866D01*
X144131258Y-153771042D01*
X144160430Y-153758959D01*
X144222229Y-153746666D01*
X144248211Y-153739705D01*
X144257229Y-153739705D01*
X144266118Y-153737937D01*
X144373882Y-153737937D01*
X144382771Y-153739705D01*
G37*
G36*
X135742771Y-148629705D02*
G01*
X135751789Y-148629705D01*
X135777771Y-148636666D01*
X135839569Y-148648959D01*
X135868738Y-148661041D01*
X135890476Y-148666866D01*
X135909965Y-148678118D01*
X135939133Y-148690200D01*
X135991524Y-148725206D01*
X136014819Y-148738656D01*
X136021194Y-148745031D01*
X136028729Y-148750066D01*
X136104933Y-148826270D01*
X136109967Y-148833804D01*
X136116344Y-148840181D01*
X136129795Y-148863479D01*
X136164799Y-148915866D01*
X136176879Y-148945030D01*
X136188134Y-148964524D01*
X136193959Y-148986265D01*
X136206040Y-149015430D01*
X136218329Y-149077215D01*
X136225295Y-149103211D01*
X136226177Y-149116668D01*
X136227351Y-149122571D01*
X136229709Y-149170571D01*
X136230000Y-149175000D01*
X136230000Y-150175000D01*
X136229709Y-150179431D01*
X136227351Y-150227428D01*
X136226177Y-150233329D01*
X136225295Y-150246789D01*
X136218328Y-150272787D01*
X136206040Y-150334569D01*
X136193960Y-150363731D01*
X136188134Y-150385476D01*
X136176878Y-150404971D01*
X136164799Y-150434133D01*
X136129799Y-150486513D01*
X136116344Y-150509819D01*
X136109965Y-150516197D01*
X136104933Y-150523729D01*
X136028729Y-150599933D01*
X136021197Y-150604965D01*
X136014819Y-150611344D01*
X135991513Y-150624799D01*
X135939133Y-150659799D01*
X135909971Y-150671878D01*
X135890476Y-150683134D01*
X135868731Y-150688960D01*
X135839569Y-150701040D01*
X135777777Y-150713331D01*
X135751789Y-150720295D01*
X135742770Y-150720295D01*
X135733882Y-150722063D01*
X135626118Y-150722063D01*
X135617230Y-150720295D01*
X135608211Y-150720295D01*
X135582223Y-150713331D01*
X135520430Y-150701040D01*
X135491265Y-150688959D01*
X135469524Y-150683134D01*
X135450030Y-150671879D01*
X135420866Y-150659799D01*
X135368479Y-150624795D01*
X135345181Y-150611344D01*
X135338804Y-150604967D01*
X135331270Y-150599933D01*
X135255066Y-150523729D01*
X135250031Y-150516194D01*
X135243656Y-150509819D01*
X135230206Y-150486524D01*
X135195200Y-150434133D01*
X135183118Y-150404965D01*
X135171866Y-150385476D01*
X135166041Y-150363738D01*
X135153959Y-150334569D01*
X135141667Y-150272773D01*
X135134705Y-150246789D01*
X135133823Y-150233337D01*
X135132648Y-150227428D01*
X135130290Y-150179425D01*
X135130000Y-150175000D01*
X135130000Y-149175000D01*
X135130289Y-149170577D01*
X135132648Y-149122571D01*
X135133823Y-149116661D01*
X135134705Y-149103211D01*
X135141666Y-149077229D01*
X135153959Y-149015430D01*
X135166042Y-148986258D01*
X135171866Y-148964524D01*
X135183116Y-148945037D01*
X135195200Y-148915866D01*
X135230211Y-148863468D01*
X135243656Y-148840181D01*
X135250029Y-148833807D01*
X135255066Y-148826270D01*
X135331270Y-148750066D01*
X135338807Y-148745029D01*
X135345181Y-148738656D01*
X135368468Y-148725211D01*
X135420866Y-148690200D01*
X135450037Y-148678116D01*
X135469524Y-148666866D01*
X135491258Y-148661042D01*
X135520430Y-148648959D01*
X135582229Y-148636666D01*
X135608211Y-148629705D01*
X135617229Y-148629705D01*
X135626118Y-148627937D01*
X135733882Y-148627937D01*
X135742771Y-148629705D01*
G37*
G36*
X144382771Y-148629705D02*
G01*
X144391789Y-148629705D01*
X144417771Y-148636666D01*
X144479569Y-148648959D01*
X144508738Y-148661041D01*
X144530476Y-148666866D01*
X144549965Y-148678118D01*
X144579133Y-148690200D01*
X144631524Y-148725206D01*
X144654819Y-148738656D01*
X144661194Y-148745031D01*
X144668729Y-148750066D01*
X144744933Y-148826270D01*
X144749967Y-148833804D01*
X144756344Y-148840181D01*
X144769795Y-148863479D01*
X144804799Y-148915866D01*
X144816879Y-148945030D01*
X144828134Y-148964524D01*
X144833959Y-148986265D01*
X144846040Y-149015430D01*
X144858329Y-149077215D01*
X144865295Y-149103211D01*
X144866177Y-149116668D01*
X144867351Y-149122571D01*
X144869709Y-149170571D01*
X144870000Y-149175000D01*
X144870000Y-150175000D01*
X144869709Y-150179431D01*
X144867351Y-150227428D01*
X144866177Y-150233329D01*
X144865295Y-150246789D01*
X144858328Y-150272787D01*
X144846040Y-150334569D01*
X144833960Y-150363731D01*
X144828134Y-150385476D01*
X144816878Y-150404971D01*
X144804799Y-150434133D01*
X144769799Y-150486513D01*
X144756344Y-150509819D01*
X144749965Y-150516197D01*
X144744933Y-150523729D01*
X144668729Y-150599933D01*
X144661197Y-150604965D01*
X144654819Y-150611344D01*
X144631513Y-150624799D01*
X144579133Y-150659799D01*
X144549971Y-150671878D01*
X144530476Y-150683134D01*
X144508731Y-150688960D01*
X144479569Y-150701040D01*
X144417777Y-150713331D01*
X144391789Y-150720295D01*
X144382770Y-150720295D01*
X144373882Y-150722063D01*
X144266118Y-150722063D01*
X144257230Y-150720295D01*
X144248211Y-150720295D01*
X144222223Y-150713331D01*
X144160430Y-150701040D01*
X144131265Y-150688959D01*
X144109524Y-150683134D01*
X144090030Y-150671879D01*
X144060866Y-150659799D01*
X144008479Y-150624795D01*
X143985181Y-150611344D01*
X143978804Y-150604967D01*
X143971270Y-150599933D01*
X143895066Y-150523729D01*
X143890031Y-150516194D01*
X143883656Y-150509819D01*
X143870206Y-150486524D01*
X143835200Y-150434133D01*
X143823118Y-150404965D01*
X143811866Y-150385476D01*
X143806041Y-150363738D01*
X143793959Y-150334569D01*
X143781667Y-150272773D01*
X143774705Y-150246789D01*
X143773823Y-150233337D01*
X143772648Y-150227428D01*
X143770290Y-150179425D01*
X143770000Y-150175000D01*
X143770000Y-149175000D01*
X143770289Y-149170577D01*
X143772648Y-149122571D01*
X143773823Y-149116661D01*
X143774705Y-149103211D01*
X143781666Y-149077229D01*
X143793959Y-149015430D01*
X143806042Y-148986258D01*
X143811866Y-148964524D01*
X143823116Y-148945037D01*
X143835200Y-148915866D01*
X143870211Y-148863468D01*
X143883656Y-148840181D01*
X143890029Y-148833807D01*
X143895066Y-148826270D01*
X143971270Y-148750066D01*
X143978807Y-148745029D01*
X143985181Y-148738656D01*
X144008468Y-148725211D01*
X144060866Y-148690200D01*
X144090037Y-148678116D01*
X144109524Y-148666866D01*
X144131258Y-148661042D01*
X144160430Y-148648959D01*
X144222229Y-148636666D01*
X144248211Y-148629705D01*
X144257229Y-148629705D01*
X144266118Y-148627937D01*
X144373882Y-148627937D01*
X144382771Y-148629705D01*
G37*
G36*
X129070672Y-144636508D02*
G01*
X129310735Y-144700833D01*
X129540349Y-144795942D01*
X129755583Y-144920208D01*
X129952757Y-145071504D01*
X130128496Y-145247243D01*
X130279792Y-145444417D01*
X130404058Y-145659651D01*
X130499167Y-145889265D01*
X130563492Y-146129328D01*
X130595932Y-146375734D01*
X130595932Y-146624266D01*
X130563492Y-146870672D01*
X130499167Y-147110735D01*
X130404058Y-147340349D01*
X130279792Y-147555583D01*
X130128496Y-147752757D01*
X129952757Y-147928496D01*
X129755583Y-148079792D01*
X129540349Y-148204058D01*
X129310735Y-148299167D01*
X129070672Y-148363492D01*
X128824266Y-148395932D01*
X128575734Y-148395932D01*
X128329328Y-148363492D01*
X128089265Y-148299167D01*
X127859651Y-148204058D01*
X127644417Y-148079792D01*
X127447243Y-147928496D01*
X127271504Y-147752757D01*
X127120208Y-147555583D01*
X126995942Y-147340349D01*
X126900833Y-147110735D01*
X126836508Y-146870672D01*
X126804068Y-146624266D01*
X126804068Y-146375734D01*
X126836508Y-146129328D01*
X126900833Y-145889265D01*
X126995942Y-145659651D01*
X127120208Y-145444417D01*
X127271504Y-145247243D01*
X127447243Y-145071504D01*
X127644417Y-144920208D01*
X127859651Y-144795942D01*
X128089265Y-144700833D01*
X128329328Y-144636508D01*
X128575734Y-144604068D01*
X128824266Y-144604068D01*
X129070672Y-144636508D01*
G37*
G36*
X151645672Y-144636508D02*
G01*
X151885735Y-144700833D01*
X152115349Y-144795942D01*
X152330583Y-144920208D01*
X152527757Y-145071504D01*
X152703496Y-145247243D01*
X152854792Y-145444417D01*
X152979058Y-145659651D01*
X153074167Y-145889265D01*
X153138492Y-146129328D01*
X153170932Y-146375734D01*
X153170932Y-146624266D01*
X153138492Y-146870672D01*
X153074167Y-147110735D01*
X152979058Y-147340349D01*
X152854792Y-147555583D01*
X152703496Y-147752757D01*
X152527757Y-147928496D01*
X152330583Y-148079792D01*
X152115349Y-148204058D01*
X151885735Y-148299167D01*
X151645672Y-148363492D01*
X151399266Y-148395932D01*
X151150734Y-148395932D01*
X150904328Y-148363492D01*
X150664265Y-148299167D01*
X150434651Y-148204058D01*
X150219417Y-148079792D01*
X150022243Y-147928496D01*
X149846504Y-147752757D01*
X149695208Y-147555583D01*
X149570942Y-147340349D01*
X149475833Y-147110735D01*
X149411508Y-146870672D01*
X149379068Y-146624266D01*
X149379068Y-146375734D01*
X149411508Y-146129328D01*
X149475833Y-145889265D01*
X149570942Y-145659651D01*
X149695208Y-145444417D01*
X149846504Y-145247243D01*
X150022243Y-145071504D01*
X150219417Y-144920208D01*
X150434651Y-144795942D01*
X150664265Y-144700833D01*
X150904328Y-144636508D01*
X151150734Y-144604068D01*
X151399266Y-144604068D01*
X151645672Y-144636508D01*
G37*
G36*
X143760000Y-130455000D02*
G01*
X143060000Y-130455000D01*
X143060000Y-129305000D01*
X143760000Y-129305000D01*
X143760000Y-130455000D01*
G37*
G36*
X137430000Y-129540000D02*
G01*
X137050000Y-129540000D01*
X137050000Y-128540000D01*
X137430000Y-128540000D01*
X137430000Y-129540000D01*
G37*
G36*
X137930000Y-129540000D02*
G01*
X137550000Y-129540000D01*
X137550000Y-128540000D01*
X137930000Y-128540000D01*
X137930000Y-129540000D01*
G37*
G36*
X138430000Y-129540000D02*
G01*
X138050000Y-129540000D01*
X138050000Y-128540000D01*
X138430000Y-128540000D01*
X138430000Y-129540000D01*
G37*
G36*
X138930000Y-129540000D02*
G01*
X138550000Y-129540000D01*
X138550000Y-128540000D01*
X138930000Y-128540000D01*
X138930000Y-129540000D01*
G37*
G36*
X139430000Y-129540000D02*
G01*
X139050000Y-129540000D01*
X139050000Y-128540000D01*
X139430000Y-128540000D01*
X139430000Y-129540000D01*
G37*
G36*
X140930000Y-129540000D02*
G01*
X140550000Y-129540000D01*
X140550000Y-128540000D01*
X140930000Y-128540000D01*
X140930000Y-129540000D01*
G37*
G36*
X141430000Y-129540000D02*
G01*
X141050000Y-129540000D01*
X141050000Y-128540000D01*
X141430000Y-128540000D01*
X141430000Y-129540000D01*
G37*
G36*
X141930000Y-129540000D02*
G01*
X141550000Y-129540000D01*
X141550000Y-128540000D01*
X141930000Y-128540000D01*
X141930000Y-129540000D01*
G37*
G36*
X142430000Y-129540000D02*
G01*
X142050000Y-129540000D01*
X142050000Y-128540000D01*
X142430000Y-128540000D01*
X142430000Y-129540000D01*
G37*
G36*
X142930000Y-129540000D02*
G01*
X142550000Y-129540000D01*
X142550000Y-128540000D01*
X142930000Y-128540000D01*
X142930000Y-129540000D01*
G37*
M02*
