G04 #@! TF.GenerationSoftware,KiCad,Pcbnew,10.0.3*
G04 #@! TF.CreationDate,2026-07-12T18:44:24+02:00*
G04 #@! TF.ProjectId,usb-c-expansion-card,7573622d-632d-4657-9870-616e73696f6e,1.0*
G04 #@! TF.SameCoordinates,Original*
G04 #@! TF.FileFunction,Paste,Top*
G04 #@! TF.FilePolarity,Positive*
%FSLAX46Y46*%
G04 Gerber Fmt 4.6, Leading zero omitted, Abs format (unit mm)*
G04 Created by KiCad (PCBNEW 10.0.3) date 2026-07-12 18:44:24*
%MOMM*%
%LPD*%
G01*
G04 APERTURE LIST*
G04 Aperture macros list*
%AMRoundRect*
0 Rectangle with rounded corners*
0 $1 Rounding radius*
0 $2 $3 $4 $5 $6 $7 $8 $9 X,Y pos of 4 corners*
0 Add a 4 corners polygon primitive as box body*
4,1,4,$2,$3,$4,$5,$6,$7,$8,$9,$2,$3,0*
0 Add four circle primitives for the rounded corners*
1,1,$1+$1,$2,$3*
1,1,$1+$1,$4,$5*
1,1,$1+$1,$6,$7*
1,1,$1+$1,$8,$9*
0 Add four rect primitives between the rounded corners*
20,1,$1+$1,$2,$3,$4,$5,0*
20,1,$1+$1,$4,$5,$6,$7,0*
20,1,$1+$1,$6,$7,$8,$9,0*
20,1,$1+$1,$8,$9,$2,$3,0*%
G04 Aperture macros list end*
%ADD10RoundRect,0.218750X0.256250X-0.218750X0.256250X0.218750X-0.256250X0.218750X-0.256250X-0.218750X0*%
%ADD11RoundRect,0.075000X-0.075000X-0.275000X0.075000X-0.275000X0.075000X0.275000X-0.075000X0.275000X0*%
%ADD12RoundRect,0.175000X-0.325000X-0.175000X0.325000X-0.175000X0.325000X0.175000X-0.325000X0.175000X0*%
%ADD13R,0.380000X1.000000*%
%ADD14R,0.700000X1.150000*%
%ADD15RoundRect,0.150000X-0.150000X0.512500X-0.150000X-0.512500X0.150000X-0.512500X0.150000X0.512500X0*%
G04 APERTURE END LIST*
D10*
X134775000Y-146712500D03*
X134775000Y-145137500D03*
X133725000Y-143362500D03*
X133725000Y-141787500D03*
X146450000Y-143662500D03*
X146450000Y-142087500D03*
D11*
X137000000Y-149265000D03*
X137500000Y-149265000D03*
X138000000Y-149265000D03*
X138500000Y-149265000D03*
X139000000Y-149265000D03*
X139500000Y-149265000D03*
X140500000Y-149265000D03*
X141000000Y-149265000D03*
X141500000Y-149265000D03*
X142000000Y-149265000D03*
X142500000Y-149265000D03*
X143000000Y-149265000D03*
D12*
X143100000Y-150565000D03*
D11*
X142250000Y-150565000D03*
X141750000Y-150565000D03*
X141250000Y-150565000D03*
X140750000Y-150565000D03*
X140250000Y-150565000D03*
X139750000Y-150565000D03*
X139250000Y-150565000D03*
X138750000Y-150565000D03*
X138250000Y-150565000D03*
X137750000Y-150565000D03*
D12*
X136900000Y-150565000D03*
D13*
X137240000Y-129040000D03*
X137740000Y-129040000D03*
X138240000Y-129040000D03*
X138740000Y-129040000D03*
X139240000Y-129040000D03*
X139740000Y-129040000D03*
X140240000Y-129040000D03*
X140740000Y-129040000D03*
X141240000Y-129040000D03*
X141740000Y-129040000D03*
X142240000Y-129040000D03*
X142740000Y-129040000D03*
D14*
X136570000Y-129880000D03*
D15*
X138037500Y-139937500D03*
X137087500Y-139937500D03*
X136137500Y-139937500D03*
X136137500Y-142212500D03*
X137087500Y-142212500D03*
X138037500Y-142212500D03*
X143250000Y-139862500D03*
X142300000Y-139862500D03*
X141350000Y-139862500D03*
X141350000Y-142137500D03*
X142300000Y-142137500D03*
X143250000Y-142137500D03*
D10*
X142500000Y-147187500D03*
X142500000Y-145612500D03*
X148925000Y-143637500D03*
X148925000Y-142062500D03*
D15*
X140900000Y-144787500D03*
X139950000Y-144787500D03*
X139000000Y-144787500D03*
X139000000Y-147062500D03*
X139950000Y-147062500D03*
X140900000Y-147062500D03*
D10*
X137325000Y-146662500D03*
X137325000Y-145087500D03*
X145000000Y-147162500D03*
X145000000Y-145587500D03*
X130625000Y-143362500D03*
X130625000Y-141787500D03*
M02*
