G04 #@! TF.GenerationSoftware,KiCad,Pcbnew,10.0.3*
G04 #@! TF.CreationDate,2026-07-12T18:43:26+02:00*
G04 #@! TF.ProjectId,usb-c-expansion-card,7573622d-632d-4657-9870-616e73696f6e,1.0*
G04 #@! TF.SameCoordinates,Original*
G04 #@! TF.FileFunction,Copper,L4,Bot*
G04 #@! TF.FilePolarity,Positive*
%FSLAX46Y46*%
G04 Gerber Fmt 4.6, Leading zero omitted, Abs format (unit mm)*
G04 Created by KiCad (PCBNEW 10.0.3) date 2026-07-12 18:43:26*
%MOMM*%
%LPD*%
G01*
G04 APERTURE LIST*
G04 #@! TA.AperFunction,ComponentPad*
%ADD10O,1.100000X2.100000*%
G04 #@! TD*
G04 #@! TA.AperFunction,ComponentPad*
%ADD11O,1.100000X2.600000*%
G04 #@! TD*
G04 #@! TA.AperFunction,SMDPad,CuDef*
%ADD12R,0.380000X1.000000*%
G04 #@! TD*
G04 #@! TA.AperFunction,SMDPad,CuDef*
%ADD13R,0.700000X1.150000*%
G04 #@! TD*
G04 #@! TA.AperFunction,ComponentPad*
%ADD14C,3.800000*%
G04 #@! TD*
G04 #@! TA.AperFunction,ViaPad*
%ADD15C,0.250000*%
G04 #@! TD*
G04 #@! TA.AperFunction,ViaPad*
%ADD16C,0.600000*%
G04 #@! TD*
G04 #@! TA.AperFunction,Conductor*
%ADD17C,0.289000*%
G04 #@! TD*
G04 #@! TA.AperFunction,Conductor*
%ADD18C,0.200000*%
G04 #@! TD*
G04 APERTURE END LIST*
D10*
X135680000Y-149675000D03*
D11*
X135680000Y-155035000D03*
D10*
X144320000Y-149675000D03*
D11*
X144320000Y-155035000D03*
D12*
X142740000Y-129040000D03*
X142240000Y-129040000D03*
X141740000Y-129040000D03*
X141240000Y-129040000D03*
X140740000Y-129040000D03*
X139240000Y-129040000D03*
X138740000Y-129040000D03*
X138240000Y-129040000D03*
X137740000Y-129040000D03*
X137240000Y-129040000D03*
D13*
X143410000Y-129880000D03*
D14*
X151275000Y-146500000D03*
X128700000Y-146500000D03*
D15*
X127925500Y-133670690D03*
X130925500Y-151857222D03*
X144425500Y-151857222D03*
X147425500Y-133670690D03*
X132425500Y-151857222D03*
X145925500Y-128474538D03*
X149675500Y-137567804D03*
X133175500Y-153156260D03*
X134675500Y-153156260D03*
X151925500Y-154455298D03*
X128675500Y-140165880D03*
X151925500Y-131072614D03*
X130925500Y-141464918D03*
X134675500Y-129773576D03*
X151175500Y-134969728D03*
X132425500Y-133670690D03*
X137675500Y-145362032D03*
X145175500Y-153156260D03*
X145925500Y-151857222D03*
X148175500Y-150558184D03*
X127925500Y-154455298D03*
X129425500Y-128474538D03*
X133925500Y-128474538D03*
X145175500Y-132371652D03*
X144425500Y-131072614D03*
X128675500Y-129773576D03*
X137675500Y-137567804D03*
X130175500Y-132371652D03*
X151925500Y-136268766D03*
X140675500Y-134969728D03*
X151175500Y-140165880D03*
X129425500Y-141464918D03*
X136925500Y-138866842D03*
X145175500Y-129773576D03*
X129425500Y-151857222D03*
X150425500Y-133670690D03*
X131675500Y-153156260D03*
X130925500Y-154455298D03*
X142175500Y-147960108D03*
X150425500Y-128474538D03*
X133925500Y-136268766D03*
X135425500Y-131072614D03*
X148925500Y-154455298D03*
X128675500Y-150558184D03*
X140675500Y-142763956D03*
X150425500Y-154455298D03*
X133925500Y-131072614D03*
X145925500Y-149259146D03*
X152675500Y-140165880D03*
X152675500Y-132371652D03*
X127925500Y-144062994D03*
X131675500Y-150558184D03*
X150425500Y-138866842D03*
X152675500Y-150558184D03*
X147425500Y-149259146D03*
X152675500Y-137567804D03*
X145175500Y-145362032D03*
X151925500Y-138866842D03*
X149675500Y-142763956D03*
X133175500Y-150558184D03*
X149675500Y-150558184D03*
X133175500Y-140165880D03*
X143675500Y-134969728D03*
X128675500Y-137567804D03*
X130925500Y-133670690D03*
X127925500Y-138866842D03*
X133925500Y-151857222D03*
X139925500Y-144062994D03*
X151925500Y-151857222D03*
X136175500Y-134969728D03*
X152675500Y-134969728D03*
X139175500Y-140165880D03*
X136175500Y-137567804D03*
X148175500Y-129773576D03*
X139175500Y-142763956D03*
X132425500Y-146661070D03*
X130175500Y-129773576D03*
X151175500Y-129773576D03*
X131675500Y-132371652D03*
X132425500Y-149259146D03*
X133925500Y-133670690D03*
X148925500Y-141464918D03*
X130175500Y-140165880D03*
X129425500Y-154455298D03*
X145925500Y-131072614D03*
X151925500Y-141464918D03*
X128675500Y-132371652D03*
X151175500Y-137567804D03*
X132425500Y-128474538D03*
X148175500Y-132371652D03*
X148925500Y-138866842D03*
X127925500Y-149259146D03*
X151175500Y-155754336D03*
X148925500Y-133670690D03*
X132425500Y-131072614D03*
X131675500Y-155754336D03*
X127925500Y-151857222D03*
X149675500Y-153156260D03*
X129425500Y-133670690D03*
X150425500Y-144062994D03*
X130925500Y-136268766D03*
X146675500Y-137567804D03*
X140675500Y-140165880D03*
X130925500Y-131072614D03*
X151175500Y-150558184D03*
X130925500Y-138866842D03*
X146675500Y-147960108D03*
X133925500Y-154455298D03*
X129425500Y-131072614D03*
X138425500Y-138866842D03*
X146675500Y-142763956D03*
X151925500Y-133670690D03*
X147425500Y-128474538D03*
X129425500Y-149259146D03*
X129425500Y-144062994D03*
X148175500Y-147960108D03*
X131675500Y-147960108D03*
X129425500Y-138866842D03*
X151925500Y-144062994D03*
X151175500Y-153156260D03*
X148925500Y-146661070D03*
X148925500Y-131072614D03*
X145925500Y-141464918D03*
X130175500Y-153156260D03*
X148925500Y-136268766D03*
X148925500Y-128474538D03*
X135425500Y-151857222D03*
X148175500Y-155754336D03*
X142175500Y-145362032D03*
X136925500Y-144062994D03*
X137675500Y-134969728D03*
X149675500Y-134969728D03*
X136925500Y-131072614D03*
X133175500Y-137567804D03*
X152675500Y-153156260D03*
X133175500Y-129773576D03*
X143675500Y-153156260D03*
X146675500Y-129773576D03*
X149675500Y-132371652D03*
X146675500Y-132371652D03*
X133925500Y-141464918D03*
X146675500Y-155754336D03*
X138425500Y-133670690D03*
X130925500Y-128474538D03*
X147425500Y-154455298D03*
X148175500Y-153156260D03*
X140675500Y-132371652D03*
X146675500Y-145362032D03*
X131675500Y-134969728D03*
X132425500Y-154455298D03*
X149675500Y-155754336D03*
X150425500Y-151857222D03*
X136925500Y-136268766D03*
X129425500Y-136268766D03*
X146675500Y-153156260D03*
X136925500Y-133670690D03*
X150425500Y-149259146D03*
X145925500Y-138866842D03*
X145925500Y-154455298D03*
X133925500Y-149259146D03*
X152675500Y-155754336D03*
X133175500Y-147960108D03*
X128675500Y-134969728D03*
X131675500Y-145362032D03*
X136175500Y-153156260D03*
X145925500Y-133670690D03*
X150425500Y-136268766D03*
X130925500Y-149259146D03*
X133175500Y-134969728D03*
X145925500Y-136268766D03*
X148925500Y-149259146D03*
X142925500Y-131072614D03*
X130175500Y-155754336D03*
X133925500Y-138866842D03*
X128675500Y-153156260D03*
X134675500Y-147960108D03*
X133175500Y-155754336D03*
X148925500Y-151857222D03*
X130175500Y-150558184D03*
X151175500Y-132371652D03*
X130925500Y-146661070D03*
X145175500Y-147960108D03*
X147425500Y-131072614D03*
X150425500Y-131072614D03*
X128675500Y-142763956D03*
X130175500Y-137567804D03*
X149675500Y-140165880D03*
X151925500Y-149259146D03*
X138425500Y-136268766D03*
X148175500Y-134969728D03*
X134675500Y-145362032D03*
X147425500Y-151857222D03*
X127925500Y-141464918D03*
X127925500Y-136268766D03*
X130175500Y-134969728D03*
X152675500Y-142763956D03*
X149675500Y-129773576D03*
X131675500Y-129773576D03*
X133175500Y-132371652D03*
X127925500Y-131072614D03*
X146675500Y-150558184D03*
X143675500Y-137567804D03*
X140675500Y-137567804D03*
X134675500Y-132371652D03*
X128675500Y-155754336D03*
X151175500Y-142763956D03*
X150425500Y-141464918D03*
X146675500Y-140165880D03*
D16*
X133725000Y-143362500D03*
D15*
X138250000Y-150565000D03*
D16*
X146450000Y-143662500D03*
D15*
X141750000Y-150565000D03*
X138500000Y-149265000D03*
X141500000Y-149265000D03*
X138740000Y-129040000D03*
X141240000Y-129040000D03*
X139500000Y-149250000D03*
X140250000Y-150565000D03*
D16*
X148925000Y-143637500D03*
D15*
X142250000Y-150565000D03*
X136137500Y-142212500D03*
X140750000Y-150565000D03*
X139250000Y-150565000D03*
X141350000Y-142137500D03*
D16*
X130625000Y-143362500D03*
D15*
X137750000Y-150565000D03*
X136137500Y-139937500D03*
X141350000Y-139862500D03*
D17*
X138239500Y-150554500D02*
X138239500Y-150222494D01*
X136911480Y-148894474D02*
X136911480Y-148664904D01*
X138194500Y-129835501D02*
X138194500Y-131269708D01*
X132429500Y-143875000D02*
X132942000Y-143362500D01*
X132429500Y-144412494D02*
X132429500Y-143875000D01*
X132379500Y-142017000D02*
X133725000Y-143362500D01*
X135960526Y-147943520D02*
X134494880Y-146477874D01*
X138240000Y-129790001D02*
X138194500Y-129835501D01*
X132942000Y-143362500D02*
X133725000Y-143362500D01*
X138250000Y-150565000D02*
X138239500Y-150554500D01*
X138240000Y-129040000D02*
X138240000Y-129790001D01*
X133648975Y-145631969D02*
X132429500Y-144412494D01*
X136190095Y-147943520D02*
X135960526Y-147943520D01*
X132379500Y-137084708D02*
X132379500Y-137913123D01*
X138194500Y-131269708D02*
X132379500Y-137084708D01*
X134494880Y-146477874D02*
X133648975Y-145631969D01*
X132379500Y-137913123D02*
X132379500Y-140469227D01*
X136911480Y-148664904D02*
X136190095Y-147943520D01*
X138239500Y-150222494D02*
X136911480Y-148894474D01*
X132379500Y-140469227D02*
X132379500Y-142017000D01*
X147495500Y-145565292D02*
X147495500Y-144200000D01*
X146958000Y-143662500D02*
X146450000Y-143662500D01*
X147495500Y-144200000D02*
X146958000Y-143662500D01*
X145026088Y-146720500D02*
X146340292Y-146720500D01*
X146340292Y-146720500D02*
X147495500Y-145565292D01*
X141785500Y-129835501D02*
X141740000Y-129790001D01*
X141760500Y-150554500D02*
X141760500Y-150362242D01*
X141795500Y-150327242D02*
X141795500Y-149951088D01*
X141760500Y-150362242D02*
X141795500Y-150327242D01*
X141740000Y-129790001D02*
X141740000Y-129040000D01*
X147495500Y-142617000D02*
X147495500Y-136934708D01*
X141750000Y-150565000D02*
X141760500Y-150554500D01*
X141795500Y-149951088D02*
X145026088Y-146720500D01*
X141785500Y-131224708D02*
X141785500Y-129835501D01*
X147495500Y-136934708D02*
X141785500Y-131224708D01*
X146450000Y-143662500D02*
X147495500Y-142617000D01*
D18*
X138740000Y-131239688D02*
X138740000Y-129040000D01*
X138500000Y-149265000D02*
X138500000Y-142901041D01*
X142102000Y-140173989D02*
X142102000Y-132302000D01*
X141500000Y-149265000D02*
X141775000Y-148990000D01*
X138500000Y-142901041D02*
X135712500Y-140113541D01*
X135712500Y-134267188D02*
X138740000Y-131239688D01*
X135712500Y-140113541D02*
X135712500Y-134267188D01*
X141775000Y-148990000D02*
X141775000Y-140500989D01*
X142102000Y-132302000D02*
X141240000Y-131440000D01*
X141240000Y-131440000D02*
X141240000Y-129040000D01*
X141775000Y-140500989D02*
X142102000Y-140173989D01*
X140250000Y-150565000D02*
X140250000Y-150000000D01*
X140250000Y-150000000D02*
X139500000Y-149250000D01*
D17*
X147904500Y-142617000D02*
X147904500Y-136765292D01*
X142250000Y-150565000D02*
X142239500Y-150554500D01*
X145195500Y-147129500D02*
X146509708Y-147129500D01*
X142239500Y-150362242D02*
X142204500Y-150327242D01*
X148925000Y-143637500D02*
X147904500Y-142617000D01*
X142204500Y-150120500D02*
X145195500Y-147129500D01*
X142239500Y-150554500D02*
X142239500Y-150362242D01*
X148467000Y-143637500D02*
X148925000Y-143637500D01*
X147904500Y-144200000D02*
X148467000Y-143637500D01*
X147904500Y-145734708D02*
X147904500Y-144200000D01*
X142204500Y-150327242D02*
X142204500Y-150120500D01*
X142194500Y-131055292D02*
X142194500Y-129835501D01*
X142240000Y-129790001D02*
X142240000Y-129040000D01*
X142194500Y-129835501D02*
X142240000Y-129790001D01*
X147904500Y-136765292D02*
X142194500Y-131055292D01*
X146509708Y-147129500D02*
X147904500Y-145734708D01*
D18*
X140434326Y-151010000D02*
X139065674Y-151010000D01*
X136343975Y-147572020D02*
X136137500Y-147572020D01*
X140750000Y-150694326D02*
X140434326Y-151010000D01*
X138695000Y-150380674D02*
X138611000Y-150296674D01*
X136137500Y-147572020D02*
X136137500Y-142212500D01*
X138611000Y-150068614D02*
X137282980Y-148740594D01*
X137282980Y-148511024D02*
X136343975Y-147572020D01*
X140750000Y-150565000D02*
X140750000Y-150694326D01*
X137282980Y-148740594D02*
X137282980Y-148511024D01*
X138695000Y-150639326D02*
X138695000Y-150380674D01*
X138611000Y-150296674D02*
X138611000Y-150068614D01*
X139065674Y-151010000D02*
X138695000Y-150639326D01*
X139055000Y-149020000D02*
X141350000Y-146725000D01*
X139055000Y-150370000D02*
X139055000Y-149020000D01*
X139250000Y-150565000D02*
X139055000Y-150370000D01*
X141350000Y-146725000D02*
X141350000Y-142137500D01*
D17*
X132020500Y-144584708D02*
X132020500Y-143875000D01*
X136501500Y-148834724D02*
X136020276Y-148353500D01*
X137785500Y-131100292D02*
X137785500Y-129835501D01*
X137750000Y-150565000D02*
X137760500Y-150554500D01*
X130625000Y-143362500D02*
X131970500Y-142017000D01*
X137740000Y-129790001D02*
X137740000Y-129040000D01*
X137760500Y-150324708D02*
X136501500Y-149065708D01*
X131970500Y-136915292D02*
X137785500Y-131100292D01*
X131508000Y-143362500D02*
X132020500Y-143875000D01*
X135789292Y-148353500D02*
X132020500Y-144584708D01*
X137760500Y-150554500D02*
X137760500Y-150324708D01*
X130625000Y-143362500D02*
X131508000Y-143362500D01*
X136501500Y-149065708D02*
X136501500Y-148834724D01*
X136020276Y-148353500D02*
X135789292Y-148353500D01*
X137785500Y-129835501D02*
X137740000Y-129790001D01*
X131970500Y-142017000D02*
X131970500Y-136915292D01*
D18*
X136775000Y-140575000D02*
X136137500Y-139937500D01*
X140740000Y-129040000D02*
X140740000Y-131390000D01*
X140740000Y-131390000D02*
X140913000Y-131563000D01*
X141775000Y-140038541D02*
X141238541Y-140575000D01*
X140913000Y-131563000D02*
X140913000Y-131575448D01*
X140913000Y-131575448D02*
X141775000Y-132437448D01*
X141238541Y-140575000D02*
X136775000Y-140575000D01*
X141775000Y-132437448D02*
X141775000Y-140038541D01*
X141350000Y-139862500D02*
X141350000Y-136425000D01*
X141350000Y-136425000D02*
X139240000Y-134315000D01*
X139240000Y-134315000D02*
X139240000Y-129040000D01*
G04 #@! TA.AperFunction,Conductor*
G36*
X135497648Y-134410622D02*
G01*
X135512000Y-134445270D01*
X135512000Y-140153424D01*
X135524643Y-140183948D01*
X135542524Y-140227115D01*
X135542525Y-140227116D01*
X135542525Y-140227117D01*
X138285148Y-142969739D01*
X138299500Y-143004387D01*
X138299500Y-149055588D01*
X138285148Y-149090236D01*
X138266444Y-149108940D01*
X138266443Y-149108941D01*
X138266443Y-149108942D01*
X138259248Y-149126312D01*
X138224500Y-149210198D01*
X138224500Y-149280268D01*
X138210148Y-149314916D01*
X138175500Y-149329268D01*
X138140852Y-149314916D01*
X137497832Y-148671896D01*
X137483480Y-148637248D01*
X137483480Y-148471144D01*
X137483479Y-148471140D01*
X137453349Y-148398400D01*
X137452956Y-148397450D01*
X137396554Y-148341048D01*
X137396553Y-148341047D01*
X137062785Y-148007279D01*
X136457552Y-147402046D01*
X136457550Y-147402045D01*
X136457549Y-147402044D01*
X136414382Y-147384163D01*
X136383858Y-147371520D01*
X136379124Y-147370579D01*
X136379550Y-147368434D01*
X136352352Y-147357168D01*
X136338000Y-147322520D01*
X136338000Y-142421911D01*
X136352352Y-142387263D01*
X136371055Y-142368560D01*
X136371057Y-142368558D01*
X136413000Y-142267300D01*
X136413000Y-142157700D01*
X136371057Y-142056442D01*
X136371055Y-142056440D01*
X136371055Y-142056439D01*
X136293561Y-141978945D01*
X136293559Y-141978944D01*
X136293558Y-141978943D01*
X136234244Y-141954374D01*
X136192301Y-141937000D01*
X136192300Y-141937000D01*
X136082700Y-141937000D01*
X136082698Y-141937000D01*
X135981440Y-141978944D01*
X135903944Y-142056440D01*
X135862000Y-142157698D01*
X135862000Y-142267301D01*
X135872877Y-142293559D01*
X135903943Y-142368558D01*
X135903944Y-142368559D01*
X135903944Y-142368560D01*
X135922647Y-142387262D01*
X135937000Y-142421910D01*
X135937000Y-147426931D01*
X135922648Y-147461579D01*
X135888000Y-147475931D01*
X135853352Y-147461579D01*
X134726428Y-146334656D01*
X134726428Y-146334655D01*
X133799085Y-145407313D01*
X132708852Y-144317080D01*
X132694500Y-144282432D01*
X132694500Y-144005062D01*
X132708852Y-143970414D01*
X133037415Y-143641852D01*
X133072063Y-143627500D01*
X133375028Y-143627500D01*
X133409676Y-143641852D01*
X133466807Y-143698983D01*
X133499503Y-143717860D01*
X133562690Y-143754342D01*
X133562692Y-143754342D01*
X133562693Y-143754343D01*
X133598342Y-143763895D01*
X133669638Y-143783000D01*
X133669640Y-143783000D01*
X133780362Y-143783000D01*
X133833833Y-143768671D01*
X133887307Y-143754343D01*
X133983193Y-143698983D01*
X134061483Y-143620693D01*
X134116843Y-143524807D01*
X134138724Y-143443147D01*
X134145500Y-143417861D01*
X134145500Y-143307138D01*
X134121958Y-143219281D01*
X134116843Y-143200193D01*
X134116842Y-143200192D01*
X134116842Y-143200190D01*
X134061482Y-143104306D01*
X133983193Y-143026017D01*
X133887309Y-142970657D01*
X133887305Y-142970656D01*
X133780362Y-142942000D01*
X133780360Y-142942000D01*
X133699563Y-142942000D01*
X133664915Y-142927648D01*
X132658852Y-141921585D01*
X132644500Y-141886937D01*
X132644500Y-137214770D01*
X132658852Y-137180122D01*
X135428352Y-134410622D01*
X135463000Y-134396270D01*
X135497648Y-134410622D01*
G37*
G04 #@! TD.AperFunction*
G04 #@! TA.AperFunction,Conductor*
G36*
X141560148Y-140606239D02*
G01*
X141574500Y-140640887D01*
X141574500Y-141858959D01*
X141560148Y-141893607D01*
X141525500Y-141907959D01*
X141506748Y-141904229D01*
X141404801Y-141862000D01*
X141404800Y-141862000D01*
X141295200Y-141862000D01*
X141295198Y-141862000D01*
X141193940Y-141903944D01*
X141116444Y-141981440D01*
X141074500Y-142082698D01*
X141074500Y-142082700D01*
X141074500Y-142192300D01*
X141116443Y-142293558D01*
X141116444Y-142293559D01*
X141116444Y-142293560D01*
X141135147Y-142312262D01*
X141149500Y-142346910D01*
X141149500Y-146621654D01*
X141135148Y-146656302D01*
X138941426Y-148850024D01*
X138922728Y-148868722D01*
X138885024Y-148906425D01*
X138854500Y-148980116D01*
X138854500Y-149154583D01*
X138840148Y-149189231D01*
X138805500Y-149203583D01*
X138770852Y-149189231D01*
X138760230Y-149173335D01*
X138744559Y-149135504D01*
X138733557Y-149108942D01*
X138733556Y-149108941D01*
X138733556Y-149108940D01*
X138714852Y-149090236D01*
X138700500Y-149055588D01*
X138700500Y-142861161D01*
X138700499Y-142861157D01*
X138695275Y-142848545D01*
X138669976Y-142787467D01*
X138613574Y-142731065D01*
X136741657Y-140859148D01*
X136727305Y-140824500D01*
X136741657Y-140789852D01*
X136776305Y-140775500D01*
X141278421Y-140775500D01*
X141278423Y-140775500D01*
X141352115Y-140744976D01*
X141490852Y-140606239D01*
X141525500Y-140591887D01*
X141560148Y-140606239D01*
G37*
G04 #@! TD.AperFunction*
G04 #@! TA.AperFunction,Conductor*
G36*
X147710147Y-142811766D02*
G01*
X147734646Y-142821913D01*
X147754389Y-142841656D01*
X147754390Y-142841656D01*
X147761282Y-142848548D01*
X148286585Y-143373851D01*
X148300937Y-143408499D01*
X148286586Y-143443147D01*
X148242344Y-143487389D01*
X147734648Y-143995085D01*
X147720520Y-144000937D01*
X147700001Y-144009437D01*
X147700000Y-144009436D01*
X147700000Y-144009437D01*
X147665353Y-143995086D01*
X147655033Y-143984766D01*
X147645611Y-143975344D01*
X147645609Y-143975343D01*
X147189548Y-143519282D01*
X147189548Y-143519281D01*
X147113414Y-143443146D01*
X147099062Y-143408498D01*
X147113413Y-143373851D01*
X147638718Y-142848547D01*
X147638721Y-142848545D01*
X147645610Y-142841656D01*
X147645611Y-142841656D01*
X147665352Y-142821914D01*
X147699999Y-142807563D01*
X147700000Y-142807563D01*
X147710147Y-142811766D01*
G37*
G04 #@! TD.AperFunction*
G04 #@! TA.AperFunction,Conductor*
G36*
X135003807Y-127001103D02*
G01*
X135080658Y-127013275D01*
X135091731Y-127016398D01*
X135107361Y-127022872D01*
X135110828Y-127024471D01*
X135169126Y-127054175D01*
X135181529Y-127063186D01*
X135236811Y-127118468D01*
X135245823Y-127130871D01*
X135275526Y-127189169D01*
X135277135Y-127192660D01*
X135283597Y-127208258D01*
X135286725Y-127219346D01*
X135298897Y-127296193D01*
X135299500Y-127303859D01*
X135299500Y-128747594D01*
X135301378Y-128753376D01*
X135302819Y-128757811D01*
X135302882Y-128759100D01*
X135304531Y-128763081D01*
X135305124Y-128764906D01*
X135305127Y-128764914D01*
X135328915Y-128838125D01*
X135341091Y-128854885D01*
X135341092Y-128854885D01*
X135344501Y-128859577D01*
X135348116Y-128868304D01*
X135358083Y-128878271D01*
X135360347Y-128881387D01*
X135384866Y-128915134D01*
X135418611Y-128939652D01*
X135421730Y-128941918D01*
X135431696Y-128951884D01*
X135440421Y-128955497D01*
X135461875Y-128971085D01*
X135536913Y-128995466D01*
X135540900Y-128997118D01*
X135542189Y-128997180D01*
X135552405Y-129000500D01*
X135552408Y-129000500D01*
X136687593Y-129000500D01*
X136687595Y-129000500D01*
X136697810Y-128997180D01*
X136699100Y-128997118D01*
X136703077Y-128995469D01*
X136778125Y-128971085D01*
X136799579Y-128955497D01*
X136808304Y-128951884D01*
X136818269Y-128941918D01*
X136855134Y-128915134D01*
X136881919Y-128878267D01*
X136891884Y-128868304D01*
X136895497Y-128859579D01*
X136911085Y-128838125D01*
X136935468Y-128763080D01*
X136937118Y-128759100D01*
X136937179Y-128757813D01*
X136940500Y-128747595D01*
X136940500Y-128700000D01*
X136940500Y-128699500D01*
X136940500Y-128343857D01*
X136941103Y-128336192D01*
X136948038Y-128292405D01*
X136953275Y-128259340D01*
X136956398Y-128248267D01*
X136962869Y-128232647D01*
X136964475Y-128229164D01*
X136978380Y-128201875D01*
X136994176Y-128170871D01*
X137003184Y-128158472D01*
X137058472Y-128103184D01*
X137070872Y-128094176D01*
X137070874Y-128094175D01*
X137129174Y-128064470D01*
X137132647Y-128062869D01*
X137148267Y-128056398D01*
X137159337Y-128053276D01*
X137236193Y-128041103D01*
X137243858Y-128040500D01*
X142736142Y-128040500D01*
X142743807Y-128041103D01*
X142820658Y-128053275D01*
X142831731Y-128056398D01*
X142847361Y-128062872D01*
X142850828Y-128064471D01*
X142909126Y-128094175D01*
X142921529Y-128103186D01*
X142976811Y-128158468D01*
X142985823Y-128170871D01*
X143015526Y-128229169D01*
X143017135Y-128232660D01*
X143023597Y-128248258D01*
X143026725Y-128259346D01*
X143038897Y-128336193D01*
X143039500Y-128343859D01*
X143039500Y-128747594D01*
X143041378Y-128753376D01*
X143042819Y-128757811D01*
X143042882Y-128759100D01*
X143044531Y-128763081D01*
X143045124Y-128764906D01*
X143045127Y-128764914D01*
X143068915Y-128838125D01*
X143081091Y-128854885D01*
X143081092Y-128854885D01*
X143084501Y-128859577D01*
X143088116Y-128868304D01*
X143098083Y-128878271D01*
X143100347Y-128881387D01*
X143124866Y-128915134D01*
X143158611Y-128939652D01*
X143161730Y-128941918D01*
X143171696Y-128951884D01*
X143180421Y-128955497D01*
X143201875Y-128971085D01*
X143276913Y-128995466D01*
X143280900Y-128997118D01*
X143282189Y-128997180D01*
X143292405Y-129000500D01*
X143292408Y-129000500D01*
X144447593Y-129000500D01*
X144447595Y-129000500D01*
X144457810Y-128997180D01*
X144459100Y-128997118D01*
X144463077Y-128995469D01*
X144538125Y-128971085D01*
X144559579Y-128955497D01*
X144568304Y-128951884D01*
X144578269Y-128941918D01*
X144615134Y-128915134D01*
X144641919Y-128878267D01*
X144651884Y-128868304D01*
X144655497Y-128859579D01*
X144671085Y-128838125D01*
X144695468Y-128763080D01*
X144697118Y-128759100D01*
X144697179Y-128757813D01*
X144700500Y-128747595D01*
X144700500Y-128700000D01*
X144700500Y-128699500D01*
X144700500Y-127303857D01*
X144701103Y-127296192D01*
X144708038Y-127252405D01*
X144713275Y-127219340D01*
X144716398Y-127208267D01*
X144722869Y-127192647D01*
X144724475Y-127189164D01*
X144738380Y-127161875D01*
X144754176Y-127130871D01*
X144763184Y-127118472D01*
X144818472Y-127063184D01*
X144830872Y-127054176D01*
X144830874Y-127054175D01*
X144889174Y-127024470D01*
X144892647Y-127022869D01*
X144908267Y-127016398D01*
X144919337Y-127013276D01*
X144996193Y-127001103D01*
X145003858Y-127000500D01*
X151696142Y-127000500D01*
X151703807Y-127001103D01*
X151780658Y-127013275D01*
X151791731Y-127016398D01*
X151807361Y-127022872D01*
X151810828Y-127024471D01*
X151869126Y-127054175D01*
X151881529Y-127063186D01*
X151936811Y-127118468D01*
X151945823Y-127130871D01*
X151975526Y-127189169D01*
X151977135Y-127192660D01*
X151983597Y-127208258D01*
X151986725Y-127219346D01*
X151998897Y-127296193D01*
X151999500Y-127303859D01*
X151999500Y-130247594D01*
X152001378Y-130253376D01*
X152002819Y-130257811D01*
X152002882Y-130259100D01*
X152004531Y-130263081D01*
X152005124Y-130264906D01*
X152005127Y-130264914D01*
X152028915Y-130338125D01*
X152041091Y-130354885D01*
X152041092Y-130354885D01*
X152044501Y-130359577D01*
X152048116Y-130368304D01*
X152058083Y-130378271D01*
X152060347Y-130381387D01*
X152084866Y-130415134D01*
X152118611Y-130439652D01*
X152121730Y-130441918D01*
X152131696Y-130451884D01*
X152140421Y-130455497D01*
X152161875Y-130471085D01*
X152236913Y-130495466D01*
X152240900Y-130497118D01*
X152242189Y-130497180D01*
X152252405Y-130500500D01*
X152299793Y-130500500D01*
X152696142Y-130500500D01*
X152703807Y-130501103D01*
X152780658Y-130513275D01*
X152791731Y-130516398D01*
X152807361Y-130522872D01*
X152810828Y-130524471D01*
X152860278Y-130549667D01*
X152869126Y-130554175D01*
X152881529Y-130563186D01*
X152936811Y-130618468D01*
X152945823Y-130630871D01*
X152975526Y-130689169D01*
X152977135Y-130692660D01*
X152983597Y-130708258D01*
X152986725Y-130719346D01*
X152998897Y-130796193D01*
X152999500Y-130803859D01*
X152999500Y-145316881D01*
X152985148Y-145351529D01*
X152950500Y-145365881D01*
X152915852Y-145351529D01*
X152911626Y-145346711D01*
X152782284Y-145178151D01*
X152596853Y-144992720D01*
X152596841Y-144992709D01*
X152388815Y-144833084D01*
X152388800Y-144833074D01*
X152218619Y-144734821D01*
X152161697Y-144701957D01*
X151978209Y-144625953D01*
X151919422Y-144601603D01*
X151919412Y-144601599D01*
X151666127Y-144533732D01*
X151666120Y-144533731D01*
X151666116Y-144533730D01*
X151406120Y-144499500D01*
X151143880Y-144499500D01*
X150883884Y-144533730D01*
X150883880Y-144533730D01*
X150883872Y-144533732D01*
X150630587Y-144601599D01*
X150630577Y-144601603D01*
X150544106Y-144637421D01*
X150388303Y-144701957D01*
X150388300Y-144701958D01*
X150388299Y-144701959D01*
X150161199Y-144833074D01*
X150161184Y-144833084D01*
X149953158Y-144992709D01*
X149953146Y-144992720D01*
X149767720Y-145178146D01*
X149767709Y-145178158D01*
X149608084Y-145386184D01*
X149608074Y-145386199D01*
X149476959Y-145613299D01*
X149376603Y-145855577D01*
X149376599Y-145855587D01*
X149308732Y-146108872D01*
X149308730Y-146108880D01*
X149308730Y-146108884D01*
X149274500Y-146368880D01*
X149274500Y-146631120D01*
X149308730Y-146891116D01*
X149308731Y-146891120D01*
X149308732Y-146891127D01*
X149376599Y-147144412D01*
X149376602Y-147144419D01*
X149476957Y-147386697D01*
X149481462Y-147394500D01*
X149608074Y-147613800D01*
X149608084Y-147613815D01*
X149767709Y-147821841D01*
X149767720Y-147821853D01*
X149953146Y-148007279D01*
X149953158Y-148007290D01*
X150161184Y-148166915D01*
X150161193Y-148166921D01*
X150161197Y-148166924D01*
X150388303Y-148298043D01*
X150630581Y-148398398D01*
X150630584Y-148398398D01*
X150630587Y-148398400D01*
X150883872Y-148466267D01*
X150883873Y-148466267D01*
X150883884Y-148466270D01*
X151143880Y-148500500D01*
X151143883Y-148500500D01*
X151406117Y-148500500D01*
X151406120Y-148500500D01*
X151666116Y-148466270D01*
X151919419Y-148398398D01*
X152161697Y-148298043D01*
X152388803Y-148166924D01*
X152389345Y-148166508D01*
X152596841Y-148007290D01*
X152596843Y-148007287D01*
X152596851Y-148007282D01*
X152782282Y-147821851D01*
X152863737Y-147715698D01*
X152911626Y-147653289D01*
X152944104Y-147634537D01*
X152980329Y-147644244D01*
X152999081Y-147676722D01*
X152999500Y-147683118D01*
X152999500Y-156696140D01*
X152998897Y-156703806D01*
X152986725Y-156780652D01*
X152983597Y-156791739D01*
X152977135Y-156807338D01*
X152975526Y-156810830D01*
X152945823Y-156869128D01*
X152936811Y-156881531D01*
X152881531Y-156936811D01*
X152869128Y-156945823D01*
X152810830Y-156975526D01*
X152807338Y-156977135D01*
X152791739Y-156983597D01*
X152780652Y-156986725D01*
X152703807Y-156998897D01*
X152696141Y-156999500D01*
X127303859Y-156999500D01*
X127296193Y-156998897D01*
X127219346Y-156986725D01*
X127208258Y-156983597D01*
X127192660Y-156977135D01*
X127189169Y-156975526D01*
X127130871Y-156945823D01*
X127118468Y-156936811D01*
X127063186Y-156881529D01*
X127054175Y-156869126D01*
X127024471Y-156810828D01*
X127022872Y-156807361D01*
X127016398Y-156791731D01*
X127013274Y-156780652D01*
X127001103Y-156703806D01*
X127000500Y-156696142D01*
X127000500Y-154181587D01*
X134630000Y-154181587D01*
X134630000Y-154785000D01*
X135380000Y-154785000D01*
X135380000Y-155285000D01*
X134630000Y-155285000D01*
X134630000Y-155888412D01*
X134670349Y-156091271D01*
X134670351Y-156091277D01*
X134749500Y-156282358D01*
X134864410Y-156454335D01*
X135010664Y-156600589D01*
X135182641Y-156715499D01*
X135373722Y-156794648D01*
X135373728Y-156794650D01*
X135430000Y-156805842D01*
X135430000Y-155951988D01*
X135439940Y-155969205D01*
X135495795Y-156025060D01*
X135564204Y-156064556D01*
X135640504Y-156085000D01*
X135719496Y-156085000D01*
X135795796Y-156064556D01*
X135864205Y-156025060D01*
X135920060Y-155969205D01*
X135930000Y-155951988D01*
X135930000Y-156805842D01*
X135986271Y-156794650D01*
X135986277Y-156794648D01*
X136177358Y-156715499D01*
X136349335Y-156600589D01*
X136495589Y-156454335D01*
X136610499Y-156282358D01*
X136689648Y-156091277D01*
X136689650Y-156091271D01*
X136730000Y-155888412D01*
X136730000Y-155285000D01*
X135980000Y-155285000D01*
X135980000Y-154785000D01*
X136730000Y-154785000D01*
X136730000Y-154181587D01*
X143270000Y-154181587D01*
X143270000Y-154785000D01*
X144020000Y-154785000D01*
X144020000Y-155285000D01*
X143270000Y-155285000D01*
X143270000Y-155888412D01*
X143310349Y-156091271D01*
X143310351Y-156091277D01*
X143389500Y-156282358D01*
X143504410Y-156454335D01*
X143650664Y-156600589D01*
X143822641Y-156715499D01*
X144013722Y-156794648D01*
X144013728Y-156794650D01*
X144070000Y-156805842D01*
X144070000Y-155951988D01*
X144079940Y-155969205D01*
X144135795Y-156025060D01*
X144204204Y-156064556D01*
X144280504Y-156085000D01*
X144359496Y-156085000D01*
X144435796Y-156064556D01*
X144504205Y-156025060D01*
X144560060Y-155969205D01*
X144570000Y-155951988D01*
X144570000Y-156805842D01*
X144626271Y-156794650D01*
X144626277Y-156794648D01*
X144817358Y-156715499D01*
X144989335Y-156600589D01*
X145135589Y-156454335D01*
X145250499Y-156282358D01*
X145329648Y-156091277D01*
X145329650Y-156091271D01*
X145370000Y-155888412D01*
X145370000Y-155285000D01*
X144620000Y-155285000D01*
X144620000Y-154785000D01*
X145370000Y-154785000D01*
X145370000Y-154181587D01*
X145329650Y-153978728D01*
X145329648Y-153978722D01*
X145250499Y-153787641D01*
X145135589Y-153615664D01*
X144989335Y-153469410D01*
X144817358Y-153354500D01*
X144626272Y-153275349D01*
X144626267Y-153275348D01*
X144570000Y-153264155D01*
X144570000Y-154118011D01*
X144560060Y-154100795D01*
X144504205Y-154044940D01*
X144435796Y-154005444D01*
X144359496Y-153985000D01*
X144280504Y-153985000D01*
X144204204Y-154005444D01*
X144135795Y-154044940D01*
X144079940Y-154100795D01*
X144070000Y-154118011D01*
X144070000Y-153264155D01*
X144069999Y-153264155D01*
X144013732Y-153275348D01*
X144013727Y-153275349D01*
X143822641Y-153354500D01*
X143650664Y-153469410D01*
X143504410Y-153615664D01*
X143389500Y-153787641D01*
X143310351Y-153978722D01*
X143310349Y-153978728D01*
X143270000Y-154181587D01*
X136730000Y-154181587D01*
X136689650Y-153978728D01*
X136689648Y-153978722D01*
X136610499Y-153787641D01*
X136495589Y-153615664D01*
X136349335Y-153469410D01*
X136177358Y-153354500D01*
X135986272Y-153275349D01*
X135986267Y-153275348D01*
X135930000Y-153264155D01*
X135930000Y-154118011D01*
X135920060Y-154100795D01*
X135864205Y-154044940D01*
X135795796Y-154005444D01*
X135719496Y-153985000D01*
X135640504Y-153985000D01*
X135564204Y-154005444D01*
X135495795Y-154044940D01*
X135439940Y-154100795D01*
X135430000Y-154118011D01*
X135430000Y-153264155D01*
X135429999Y-153264155D01*
X135373732Y-153275348D01*
X135373727Y-153275349D01*
X135182641Y-153354500D01*
X135010664Y-153469410D01*
X134864410Y-153615664D01*
X134749500Y-153787641D01*
X134670351Y-153978722D01*
X134670349Y-153978728D01*
X134630000Y-154181587D01*
X127000500Y-154181587D01*
X127000500Y-147715698D01*
X127014852Y-147681050D01*
X127049500Y-147666698D01*
X127084148Y-147681050D01*
X127088374Y-147685869D01*
X127192709Y-147821841D01*
X127192720Y-147821853D01*
X127378146Y-148007279D01*
X127378158Y-148007290D01*
X127586184Y-148166915D01*
X127586193Y-148166921D01*
X127586197Y-148166924D01*
X127813303Y-148298043D01*
X128055581Y-148398398D01*
X128055584Y-148398398D01*
X128055587Y-148398400D01*
X128308872Y-148466267D01*
X128308873Y-148466267D01*
X128308884Y-148466270D01*
X128568880Y-148500500D01*
X128568883Y-148500500D01*
X128831117Y-148500500D01*
X128831120Y-148500500D01*
X129091116Y-148466270D01*
X129344419Y-148398398D01*
X129586697Y-148298043D01*
X129813803Y-148166924D01*
X129814345Y-148166508D01*
X130021841Y-148007290D01*
X130021843Y-148007287D01*
X130021851Y-148007282D01*
X130207282Y-147821851D01*
X130311626Y-147685869D01*
X130366915Y-147613815D01*
X130366916Y-147613812D01*
X130366924Y-147613803D01*
X130498043Y-147386697D01*
X130598398Y-147144419D01*
X130666270Y-146891116D01*
X130700500Y-146631120D01*
X130700500Y-146368880D01*
X130666270Y-146108884D01*
X130666267Y-146108872D01*
X130598400Y-145855587D01*
X130598396Y-145855577D01*
X130570165Y-145787421D01*
X130498043Y-145613303D01*
X130366924Y-145386197D01*
X130366921Y-145386193D01*
X130366915Y-145386184D01*
X130207290Y-145178158D01*
X130207279Y-145178146D01*
X130021853Y-144992720D01*
X130021841Y-144992709D01*
X129813815Y-144833084D01*
X129813800Y-144833074D01*
X129643619Y-144734821D01*
X129586697Y-144701957D01*
X129403209Y-144625953D01*
X129344422Y-144601603D01*
X129344412Y-144601599D01*
X129091127Y-144533732D01*
X129091120Y-144533731D01*
X129091116Y-144533730D01*
X128831120Y-144499500D01*
X128568880Y-144499500D01*
X128308884Y-144533730D01*
X128308880Y-144533730D01*
X128308872Y-144533732D01*
X128055587Y-144601599D01*
X128055577Y-144601603D01*
X127969106Y-144637421D01*
X127813303Y-144701957D01*
X127813300Y-144701958D01*
X127813299Y-144701959D01*
X127586199Y-144833074D01*
X127586184Y-144833084D01*
X127378158Y-144992709D01*
X127378146Y-144992720D01*
X127192715Y-145178151D01*
X127088374Y-145314131D01*
X127055895Y-145332882D01*
X127019670Y-145323175D01*
X127000919Y-145290696D01*
X127000500Y-145284301D01*
X127000500Y-143307138D01*
X130204500Y-143307138D01*
X130204500Y-143417861D01*
X130233156Y-143524805D01*
X130233157Y-143524809D01*
X130266257Y-143582138D01*
X130288517Y-143620693D01*
X130366807Y-143698983D01*
X130399503Y-143717860D01*
X130462690Y-143754342D01*
X130462692Y-143754342D01*
X130462693Y-143754343D01*
X130498342Y-143763895D01*
X130569638Y-143783000D01*
X130569640Y-143783000D01*
X130680362Y-143783000D01*
X130733833Y-143768671D01*
X130787307Y-143754343D01*
X130883193Y-143698983D01*
X130940324Y-143641852D01*
X130974972Y-143627500D01*
X131377938Y-143627500D01*
X131412586Y-143641852D01*
X131741148Y-143970414D01*
X131755500Y-144005062D01*
X131755500Y-144637420D01*
X131795844Y-144734819D01*
X131795845Y-144734820D01*
X131795845Y-144734821D01*
X131877280Y-144816255D01*
X131877282Y-144816256D01*
X135217679Y-148156653D01*
X135232031Y-148191301D01*
X135217679Y-148225949D01*
X135201784Y-148236571D01*
X135182640Y-148244501D01*
X135010664Y-148359410D01*
X134864410Y-148505664D01*
X134749500Y-148677641D01*
X134670351Y-148868722D01*
X134670349Y-148868728D01*
X134630000Y-149071587D01*
X134630000Y-149425000D01*
X135380000Y-149425000D01*
X135380000Y-149925000D01*
X134630000Y-149925000D01*
X134630000Y-150278412D01*
X134670349Y-150481271D01*
X134670351Y-150481277D01*
X134749500Y-150672358D01*
X134864410Y-150844335D01*
X135010664Y-150990589D01*
X135182641Y-151105499D01*
X135373722Y-151184648D01*
X135373728Y-151184650D01*
X135430000Y-151195842D01*
X135430000Y-150341988D01*
X135439940Y-150359205D01*
X135495795Y-150415060D01*
X135564204Y-150454556D01*
X135640504Y-150475000D01*
X135719496Y-150475000D01*
X135795796Y-150454556D01*
X135864205Y-150415060D01*
X135920060Y-150359205D01*
X135930000Y-150341988D01*
X135930000Y-151195842D01*
X135986271Y-151184650D01*
X135986277Y-151184648D01*
X136177358Y-151105499D01*
X136349335Y-150990589D01*
X136495589Y-150844335D01*
X136610499Y-150672358D01*
X136689648Y-150481277D01*
X136689650Y-150481271D01*
X136730000Y-150278412D01*
X136730000Y-149787270D01*
X136744352Y-149752622D01*
X136779000Y-149738270D01*
X136813648Y-149752622D01*
X137479679Y-150418653D01*
X137494031Y-150453301D01*
X137490301Y-150472053D01*
X137474500Y-150510198D01*
X137474500Y-150510200D01*
X137474500Y-150619800D01*
X137516443Y-150721058D01*
X137516444Y-150721059D01*
X137516445Y-150721061D01*
X137593939Y-150798555D01*
X137593940Y-150798555D01*
X137593942Y-150798557D01*
X137695200Y-150840500D01*
X137695202Y-150840500D01*
X137804798Y-150840500D01*
X137804800Y-150840500D01*
X137906058Y-150798557D01*
X137906060Y-150798555D01*
X137906061Y-150798555D01*
X137965352Y-150739264D01*
X138000000Y-150724912D01*
X138034648Y-150739264D01*
X138093939Y-150798555D01*
X138093940Y-150798555D01*
X138093942Y-150798557D01*
X138195200Y-150840500D01*
X138195202Y-150840500D01*
X138304798Y-150840500D01*
X138304800Y-150840500D01*
X138406058Y-150798557D01*
X138453721Y-150750893D01*
X138488369Y-150736542D01*
X138523017Y-150750893D01*
X138523017Y-150750894D01*
X138952097Y-151179974D01*
X138952098Y-151179974D01*
X138952100Y-151179976D01*
X139025792Y-151210500D01*
X139025794Y-151210500D01*
X140474206Y-151210500D01*
X140474208Y-151210500D01*
X140547900Y-151179976D01*
X140856681Y-150871192D01*
X140856684Y-150871191D01*
X140863573Y-150864302D01*
X140863574Y-150864302D01*
X140919976Y-150807900D01*
X140932693Y-150777195D01*
X140943317Y-150761297D01*
X140983555Y-150721060D01*
X140983555Y-150721059D01*
X140983557Y-150721058D01*
X141025500Y-150619800D01*
X141025500Y-150510200D01*
X140983557Y-150408942D01*
X140983555Y-150408940D01*
X140983555Y-150408939D01*
X140906061Y-150331445D01*
X140906059Y-150331444D01*
X140906058Y-150331443D01*
X140846744Y-150306874D01*
X140804801Y-150289500D01*
X140804800Y-150289500D01*
X140695200Y-150289500D01*
X140695198Y-150289500D01*
X140593940Y-150331444D01*
X140554148Y-150371236D01*
X140519500Y-150385588D01*
X140484852Y-150371236D01*
X140470500Y-150336588D01*
X140470500Y-149956141D01*
X140470500Y-149956140D01*
X140470044Y-149955040D01*
X140436931Y-149875097D01*
X140436930Y-149875096D01*
X140436929Y-149875094D01*
X139789852Y-149228017D01*
X139778083Y-149199606D01*
X139776441Y-149199933D01*
X139775500Y-149195203D01*
X139775500Y-149195200D01*
X139733557Y-149093942D01*
X139733555Y-149093940D01*
X139733555Y-149093939D01*
X139656061Y-149016445D01*
X139656059Y-149016444D01*
X139656058Y-149016443D01*
X139591013Y-148989500D01*
X139554801Y-148974500D01*
X139554800Y-148974500D01*
X139502346Y-148974500D01*
X139467698Y-148960148D01*
X139453346Y-148925500D01*
X139467698Y-148890852D01*
X141490852Y-146867698D01*
X141525500Y-146853346D01*
X141560148Y-146867698D01*
X141574500Y-146902346D01*
X141574500Y-148886654D01*
X141560148Y-148921302D01*
X141506302Y-148975148D01*
X141471654Y-148989500D01*
X141445198Y-148989500D01*
X141343940Y-149031444D01*
X141266444Y-149108940D01*
X141266443Y-149108941D01*
X141266443Y-149108942D01*
X141259248Y-149126312D01*
X141224500Y-149210198D01*
X141224500Y-149319801D01*
X141239770Y-149356664D01*
X141266443Y-149421058D01*
X141266444Y-149421059D01*
X141266445Y-149421061D01*
X141343939Y-149498555D01*
X141343940Y-149498555D01*
X141343942Y-149498557D01*
X141445200Y-149540500D01*
X141445202Y-149540500D01*
X141554798Y-149540500D01*
X141554800Y-149540500D01*
X141656058Y-149498557D01*
X141656060Y-149498555D01*
X141656061Y-149498555D01*
X141733555Y-149421061D01*
X141733555Y-149421060D01*
X141733557Y-149421058D01*
X141775500Y-149319800D01*
X141775500Y-149293346D01*
X141789852Y-149258698D01*
X141944974Y-149103576D01*
X141944976Y-149103574D01*
X141975500Y-149029882D01*
X141975500Y-148950118D01*
X141975500Y-140604335D01*
X141989852Y-140569687D01*
X142271974Y-140287565D01*
X142271976Y-140287563D01*
X142302500Y-140213871D01*
X142302500Y-140134107D01*
X142302500Y-132262118D01*
X142293784Y-132241075D01*
X142293784Y-132203573D01*
X142320302Y-132177054D01*
X142357805Y-132177054D01*
X142373702Y-132187676D01*
X147216148Y-137030122D01*
X147230500Y-137064770D01*
X147230500Y-142486938D01*
X147216148Y-142521586D01*
X146510086Y-143227648D01*
X146475438Y-143242000D01*
X146394638Y-143242000D01*
X146287694Y-143270656D01*
X146287690Y-143270657D01*
X146191806Y-143326017D01*
X146191806Y-143326018D01*
X146113518Y-143404306D01*
X146113517Y-143404306D01*
X146058157Y-143500190D01*
X146058156Y-143500194D01*
X146029500Y-143607138D01*
X146029500Y-143717861D01*
X146058156Y-143824805D01*
X146058157Y-143824809D01*
X146103013Y-143902500D01*
X146113517Y-143920693D01*
X146191807Y-143998983D01*
X146209912Y-144009436D01*
X146287690Y-144054342D01*
X146287692Y-144054342D01*
X146287693Y-144054343D01*
X146301341Y-144058000D01*
X146394638Y-144083000D01*
X146394640Y-144083000D01*
X146505362Y-144083000D01*
X146558833Y-144068671D01*
X146612307Y-144054343D01*
X146708193Y-143998983D01*
X146765324Y-143941852D01*
X146799972Y-143927500D01*
X146827938Y-143927500D01*
X146862586Y-143941852D01*
X147216148Y-144295414D01*
X147230500Y-144330062D01*
X147230500Y-145435230D01*
X147216148Y-145469878D01*
X146244878Y-146441148D01*
X146210230Y-146455500D01*
X144973374Y-146455500D01*
X144875975Y-146495845D01*
X144875974Y-146495845D01*
X141645390Y-149726431D01*
X141645389Y-149726432D01*
X141570845Y-149800974D01*
X141570845Y-149800975D01*
X141530500Y-149898374D01*
X141530500Y-150215285D01*
X141526770Y-150234036D01*
X141495501Y-150309526D01*
X141495500Y-150309532D01*
X141495500Y-150449754D01*
X141491770Y-150468505D01*
X141474501Y-150510196D01*
X141474500Y-150510198D01*
X141474500Y-150510200D01*
X141474500Y-150619800D01*
X141516443Y-150721058D01*
X141516444Y-150721059D01*
X141516445Y-150721061D01*
X141593939Y-150798555D01*
X141593940Y-150798555D01*
X141593942Y-150798557D01*
X141695200Y-150840500D01*
X141695202Y-150840500D01*
X141804798Y-150840500D01*
X141804800Y-150840500D01*
X141906058Y-150798557D01*
X141906060Y-150798555D01*
X141906061Y-150798555D01*
X141965352Y-150739264D01*
X142000000Y-150724912D01*
X142034648Y-150739264D01*
X142093939Y-150798555D01*
X142093940Y-150798555D01*
X142093942Y-150798557D01*
X142195200Y-150840500D01*
X142195202Y-150840500D01*
X142304798Y-150840500D01*
X142304800Y-150840500D01*
X142406058Y-150798557D01*
X142406060Y-150798555D01*
X142406061Y-150798555D01*
X142483555Y-150721061D01*
X142483555Y-150721060D01*
X142483557Y-150721058D01*
X142525500Y-150619800D01*
X142525500Y-150510200D01*
X142513520Y-150481277D01*
X142508230Y-150468505D01*
X142504500Y-150449754D01*
X142504500Y-150309532D01*
X142504499Y-150309528D01*
X142483561Y-150258981D01*
X142483561Y-150221478D01*
X142494180Y-150205584D01*
X143260413Y-149439351D01*
X143295061Y-149425000D01*
X144020000Y-149425000D01*
X144020000Y-149925000D01*
X143270000Y-149925000D01*
X143270000Y-150278412D01*
X143310349Y-150481271D01*
X143310351Y-150481277D01*
X143389500Y-150672358D01*
X143504410Y-150844335D01*
X143650664Y-150990589D01*
X143822641Y-151105499D01*
X144013722Y-151184648D01*
X144013728Y-151184650D01*
X144070000Y-151195842D01*
X144070000Y-150341988D01*
X144079940Y-150359205D01*
X144135795Y-150415060D01*
X144204204Y-150454556D01*
X144280504Y-150475000D01*
X144359496Y-150475000D01*
X144435796Y-150454556D01*
X144504205Y-150415060D01*
X144560060Y-150359205D01*
X144570000Y-150341988D01*
X144570000Y-151195842D01*
X144626271Y-151184650D01*
X144626277Y-151184648D01*
X144817358Y-151105499D01*
X144989335Y-150990589D01*
X145135589Y-150844335D01*
X145250499Y-150672358D01*
X145329648Y-150481277D01*
X145329650Y-150481271D01*
X145370000Y-150278412D01*
X145370000Y-149925000D01*
X144620000Y-149925000D01*
X144620000Y-149425000D01*
X145370000Y-149425000D01*
X145370000Y-149071587D01*
X145329650Y-148868728D01*
X145329648Y-148868722D01*
X145250499Y-148677641D01*
X145135589Y-148505664D01*
X144989335Y-148359410D01*
X144817358Y-148244500D01*
X144629070Y-148166508D01*
X144602552Y-148139989D01*
X144602552Y-148102486D01*
X144613170Y-148086595D01*
X145290914Y-147408852D01*
X145325562Y-147394500D01*
X146562418Y-147394500D01*
X146562419Y-147394500D01*
X146562420Y-147394500D01*
X146659819Y-147354156D01*
X146734364Y-147279611D01*
X146734364Y-147279610D01*
X146741253Y-147272721D01*
X146741255Y-147272718D01*
X148047718Y-145966255D01*
X148047721Y-145966253D01*
X148054610Y-145959364D01*
X148054611Y-145959364D01*
X148129156Y-145884819D01*
X148169500Y-145787420D01*
X148169500Y-144330062D01*
X148183852Y-144295414D01*
X148551397Y-143927869D01*
X148586045Y-143913517D01*
X148620693Y-143927869D01*
X148666807Y-143973983D01*
X148685484Y-143984766D01*
X148762690Y-144029342D01*
X148762692Y-144029342D01*
X148762693Y-144029343D01*
X148798342Y-144038895D01*
X148869638Y-144058000D01*
X148869640Y-144058000D01*
X148980362Y-144058000D01*
X149033833Y-144043671D01*
X149087307Y-144029343D01*
X149183193Y-143973983D01*
X149261483Y-143895693D01*
X149316843Y-143799807D01*
X149342319Y-143704733D01*
X149345500Y-143692861D01*
X149345500Y-143582138D01*
X149316843Y-143475194D01*
X149316842Y-143475190D01*
X149261482Y-143379306D01*
X149183193Y-143301017D01*
X149087309Y-143245657D01*
X149087305Y-143245656D01*
X148980362Y-143217000D01*
X148980360Y-143217000D01*
X148899562Y-143217000D01*
X148864914Y-143202648D01*
X148183852Y-142521586D01*
X148169500Y-142486938D01*
X148169500Y-136712582D01*
X148169499Y-136712578D01*
X148160410Y-136690635D01*
X148129156Y-136615181D01*
X148129154Y-136615179D01*
X148129154Y-136615178D01*
X148054611Y-136540636D01*
X142473852Y-130959877D01*
X142459500Y-130925229D01*
X142459500Y-129962307D01*
X142463230Y-129943556D01*
X142505000Y-129842712D01*
X142505000Y-129659048D01*
X142516128Y-129632181D01*
X142514195Y-129630889D01*
X142526511Y-129612456D01*
X142543509Y-129587017D01*
X142550500Y-129551870D01*
X142550500Y-129295095D01*
X142959500Y-129295095D01*
X142959500Y-130464894D01*
X142959501Y-130464898D01*
X142965331Y-130494213D01*
X142965331Y-130494214D01*
X142965332Y-130494215D01*
X142965332Y-130494216D01*
X142985552Y-130524477D01*
X142987543Y-130527457D01*
X143020787Y-130549669D01*
X143050101Y-130555500D01*
X143769898Y-130555499D01*
X143799213Y-130549669D01*
X143832457Y-130527457D01*
X143854669Y-130494213D01*
X143860500Y-130464899D01*
X143860499Y-129295102D01*
X143854669Y-129265787D01*
X143854667Y-129265784D01*
X143854667Y-129265783D01*
X143832457Y-129232543D01*
X143799212Y-129210330D01*
X143769901Y-129204500D01*
X143050105Y-129204500D01*
X143050104Y-129204500D01*
X143050102Y-129204501D01*
X143020787Y-129210331D01*
X143020786Y-129210331D01*
X143020784Y-129210332D01*
X143020783Y-129210332D01*
X142987543Y-129232542D01*
X142965330Y-129265786D01*
X142965330Y-129265787D01*
X142959500Y-129295095D01*
X142550500Y-129295095D01*
X142550500Y-128528130D01*
X142543509Y-128492983D01*
X142534670Y-128479756D01*
X142516876Y-128453123D01*
X142477017Y-128426491D01*
X142441870Y-128419500D01*
X142038130Y-128419500D01*
X142014733Y-128424153D01*
X141999558Y-128427172D01*
X141980442Y-128427172D01*
X141965266Y-128424153D01*
X141941870Y-128419500D01*
X141538130Y-128419500D01*
X141502983Y-128426491D01*
X141490383Y-128434910D01*
X141453602Y-128442225D01*
X141439899Y-128439500D01*
X141439896Y-128439500D01*
X141040105Y-128439500D01*
X141040101Y-128439501D01*
X141010785Y-128445331D01*
X141008747Y-128446175D01*
X141006540Y-128446175D01*
X141006053Y-128446272D01*
X141006033Y-128446175D01*
X140973964Y-128446175D01*
X140973945Y-128446272D01*
X140973462Y-128446175D01*
X140971256Y-128446176D01*
X140969215Y-128445331D01*
X140939900Y-128439500D01*
X140540105Y-128439500D01*
X140540104Y-128439500D01*
X140540102Y-128439501D01*
X140510787Y-128445331D01*
X140510786Y-128445331D01*
X140510784Y-128445332D01*
X140510783Y-128445332D01*
X140477543Y-128467542D01*
X140455330Y-128500786D01*
X140455330Y-128500787D01*
X140449500Y-128530095D01*
X140449500Y-129549894D01*
X140449501Y-129549898D01*
X140455331Y-129579213D01*
X140455331Y-129579214D01*
X140455332Y-129579215D01*
X140455332Y-129579216D01*
X140477542Y-129612456D01*
X140477543Y-129612457D01*
X140514800Y-129637351D01*
X140513905Y-129638689D01*
X140535768Y-129660547D01*
X140539500Y-129679303D01*
X140539500Y-131429883D01*
X140552143Y-131460407D01*
X140570024Y-131503574D01*
X140570025Y-131503575D01*
X140570025Y-131503576D01*
X140727330Y-131660880D01*
X140737952Y-131676777D01*
X140743024Y-131689022D01*
X140743025Y-131689024D01*
X141560148Y-132506146D01*
X141574500Y-132540794D01*
X141574500Y-136247652D01*
X141560149Y-136282301D01*
X141525501Y-136296653D01*
X141525500Y-136296652D01*
X141525500Y-136296653D01*
X141490852Y-136282302D01*
X141490851Y-136282301D01*
X141463574Y-136255024D01*
X139454852Y-134246302D01*
X139440500Y-134211654D01*
X139440500Y-129679303D01*
X139454852Y-129644655D01*
X139465380Y-129637620D01*
X139465200Y-129637351D01*
X139490000Y-129620780D01*
X139502457Y-129612457D01*
X139524669Y-129579213D01*
X139530500Y-129549899D01*
X139530499Y-128530102D01*
X139524669Y-128500787D01*
X139524667Y-128500784D01*
X139524667Y-128500783D01*
X139502457Y-128467543D01*
X139469212Y-128445330D01*
X139439901Y-128439500D01*
X139040105Y-128439500D01*
X139040101Y-128439501D01*
X139010785Y-128445331D01*
X139008747Y-128446175D01*
X139006540Y-128446175D01*
X139006053Y-128446272D01*
X139006033Y-128446175D01*
X138973964Y-128446175D01*
X138973945Y-128446272D01*
X138973462Y-128446175D01*
X138971256Y-128446176D01*
X138969215Y-128445331D01*
X138939900Y-128439500D01*
X138540105Y-128439500D01*
X138540094Y-128439501D01*
X138526393Y-128442226D01*
X138489616Y-128434909D01*
X138477018Y-128426491D01*
X138468230Y-128424743D01*
X138441870Y-128419500D01*
X138038130Y-128419500D01*
X138014733Y-128424153D01*
X137999558Y-128427172D01*
X137980442Y-128427172D01*
X137965266Y-128424153D01*
X137941870Y-128419500D01*
X137538130Y-128419500D01*
X137511769Y-128424743D01*
X137502982Y-128426491D01*
X137463123Y-128453123D01*
X137436491Y-128492982D01*
X137434939Y-128500784D01*
X137429500Y-128528130D01*
X137429500Y-129551870D01*
X137434939Y-129579212D01*
X137436491Y-129587017D01*
X137465805Y-129630889D01*
X137463866Y-129632184D01*
X137475000Y-129659022D01*
X137475000Y-129842713D01*
X137515344Y-129940112D01*
X137515345Y-129940113D01*
X137516770Y-129943553D01*
X137520500Y-129962305D01*
X137520500Y-130970229D01*
X137506148Y-131004877D01*
X131820389Y-136690636D01*
X131745845Y-136765178D01*
X131745845Y-136765179D01*
X131705500Y-136862578D01*
X131705500Y-141886937D01*
X131691148Y-141921585D01*
X130685086Y-142927648D01*
X130650438Y-142942000D01*
X130569638Y-142942000D01*
X130462694Y-142970656D01*
X130462690Y-142970657D01*
X130366806Y-143026017D01*
X130366806Y-143026018D01*
X130288518Y-143104306D01*
X130288517Y-143104306D01*
X130233157Y-143200190D01*
X130233156Y-143200194D01*
X130204500Y-143307138D01*
X127000500Y-143307138D01*
X127000500Y-130803857D01*
X127001103Y-130796192D01*
X127008038Y-130752405D01*
X127013275Y-130719340D01*
X127016398Y-130708267D01*
X127022869Y-130692647D01*
X127024475Y-130689164D01*
X127038380Y-130661875D01*
X127054176Y-130630871D01*
X127063184Y-130618472D01*
X127118472Y-130563184D01*
X127130872Y-130554176D01*
X127139718Y-130549669D01*
X127189174Y-130524470D01*
X127192647Y-130522869D01*
X127208267Y-130516398D01*
X127219337Y-130513276D01*
X127296193Y-130501103D01*
X127303858Y-130500500D01*
X127747593Y-130500500D01*
X127747595Y-130500500D01*
X127757810Y-130497180D01*
X127759100Y-130497118D01*
X127763077Y-130495469D01*
X127838125Y-130471085D01*
X127859579Y-130455497D01*
X127868304Y-130451884D01*
X127878269Y-130441918D01*
X127915134Y-130415134D01*
X127941919Y-130378267D01*
X127951884Y-130368304D01*
X127955497Y-130359579D01*
X127971085Y-130338125D01*
X127995468Y-130263080D01*
X127997118Y-130259100D01*
X127997179Y-130257813D01*
X128000500Y-130247595D01*
X128000500Y-130200000D01*
X128000500Y-130199500D01*
X128000500Y-127303857D01*
X128001103Y-127296192D01*
X128008038Y-127252405D01*
X128013275Y-127219340D01*
X128016398Y-127208267D01*
X128022869Y-127192647D01*
X128024475Y-127189164D01*
X128038380Y-127161875D01*
X128054176Y-127130871D01*
X128063184Y-127118472D01*
X128118472Y-127063184D01*
X128130872Y-127054176D01*
X128130874Y-127054175D01*
X128189174Y-127024470D01*
X128192647Y-127022869D01*
X128208267Y-127016398D01*
X128219337Y-127013276D01*
X128296193Y-127001103D01*
X128303858Y-127000500D01*
X134996142Y-127000500D01*
X135003807Y-127001103D01*
G37*
G04 #@! TD.AperFunction*
G04 #@! TA.AperFunction,NonConductor*
G36*
X139009211Y-129634016D02*
G01*
X139035753Y-129660511D01*
X139039500Y-129679303D01*
X139039500Y-134275118D01*
X139039500Y-134354882D01*
X139070024Y-134428574D01*
X139070025Y-134428575D01*
X139070025Y-134428576D01*
X141135148Y-136493698D01*
X141149500Y-136528346D01*
X141149500Y-139653088D01*
X141135148Y-139687736D01*
X141116444Y-139706440D01*
X141074500Y-139807698D01*
X141074500Y-139917301D01*
X141091874Y-139959244D01*
X141116443Y-140018558D01*
X141116444Y-140018559D01*
X141116445Y-140018561D01*
X141193939Y-140096055D01*
X141193940Y-140096055D01*
X141193942Y-140096057D01*
X141275545Y-140129858D01*
X141285801Y-140134107D01*
X141295200Y-140138000D01*
X141295890Y-140138286D01*
X141322408Y-140164805D01*
X141322408Y-140202308D01*
X141311786Y-140218204D01*
X141169843Y-140360148D01*
X141135195Y-140374500D01*
X136878346Y-140374500D01*
X136843698Y-140360148D01*
X136427352Y-139943802D01*
X136413000Y-139909154D01*
X136413000Y-139882702D01*
X136412999Y-139882698D01*
X136371057Y-139781442D01*
X136371055Y-139781440D01*
X136371055Y-139781439D01*
X136293561Y-139703945D01*
X136293559Y-139703944D01*
X136293558Y-139703943D01*
X136230229Y-139677711D01*
X136192301Y-139662000D01*
X136192300Y-139662000D01*
X136082700Y-139662000D01*
X136082698Y-139662000D01*
X135980752Y-139704229D01*
X135943249Y-139704229D01*
X135916730Y-139677711D01*
X135913000Y-139658959D01*
X135913000Y-134370534D01*
X135927352Y-134335886D01*
X138909974Y-131353264D01*
X138909976Y-131353262D01*
X138940500Y-131279570D01*
X138940500Y-131199805D01*
X138940500Y-129679303D01*
X138944225Y-129670309D01*
X138944220Y-129660575D01*
X138951117Y-129653670D01*
X138954852Y-129644655D01*
X138970725Y-129634043D01*
X138971224Y-129633836D01*
X139008710Y-129633809D01*
X139009211Y-129634016D01*
G37*
G04 #@! TD.AperFunction*
G04 #@! TA.AperFunction,NonConductor*
G36*
X132209647Y-142221914D02*
G01*
X132236280Y-142248547D01*
X132236282Y-142248548D01*
X133001585Y-143013852D01*
X133015937Y-143048500D01*
X133001585Y-143083148D01*
X132966937Y-143097500D01*
X132889286Y-143097500D01*
X132791887Y-143137845D01*
X132791886Y-143137845D01*
X132279390Y-143650343D01*
X132259648Y-143670085D01*
X132225000Y-143684437D01*
X132190352Y-143670085D01*
X132170610Y-143650343D01*
X131739548Y-143219282D01*
X131739548Y-143219281D01*
X131658113Y-143137845D01*
X131560713Y-143097500D01*
X131560712Y-143097500D01*
X131383062Y-143097500D01*
X131348414Y-143083148D01*
X131334062Y-143048500D01*
X131348414Y-143013852D01*
X132140351Y-142221914D01*
X132174999Y-142207562D01*
X132209647Y-142221914D01*
G37*
G04 #@! TD.AperFunction*
G04 #@! TA.AperFunction,NonConductor*
G36*
X139339148Y-149478764D02*
G01*
X139343939Y-149483555D01*
X139343940Y-149483555D01*
X139343942Y-149483557D01*
X139445200Y-149525500D01*
X139445203Y-149525500D01*
X139449933Y-149526441D01*
X139449606Y-149528083D01*
X139478018Y-149539852D01*
X140015148Y-150076982D01*
X140029500Y-150111630D01*
X140029500Y-150375588D01*
X140017733Y-150403995D01*
X140019126Y-150404926D01*
X140016444Y-150408940D01*
X139974500Y-150510198D01*
X139974500Y-150510200D01*
X139974500Y-150619800D01*
X140016443Y-150721058D01*
X140016444Y-150721059D01*
X140016445Y-150721061D01*
X140021236Y-150725852D01*
X140035588Y-150760500D01*
X140021236Y-150795148D01*
X139986588Y-150809500D01*
X139513412Y-150809500D01*
X139478764Y-150795148D01*
X139464412Y-150760500D01*
X139478764Y-150725852D01*
X139483555Y-150721061D01*
X139483555Y-150721060D01*
X139483557Y-150721058D01*
X139525500Y-150619800D01*
X139525500Y-150510200D01*
X139483557Y-150408942D01*
X139483555Y-150408940D01*
X139483555Y-150408939D01*
X139406061Y-150331445D01*
X139406059Y-150331444D01*
X139406058Y-150331443D01*
X139346744Y-150306874D01*
X139304801Y-150289500D01*
X139304800Y-150289500D01*
X139304500Y-150289500D01*
X139304224Y-150289385D01*
X139300067Y-150288559D01*
X139300231Y-150287731D01*
X139269852Y-150275148D01*
X139255500Y-150240500D01*
X139255500Y-149513412D01*
X139269852Y-149478764D01*
X139304500Y-149464412D01*
X139339148Y-149478764D01*
G37*
G04 #@! TD.AperFunction*
M02*
