%TF.GenerationSoftware,KiCad,Pcbnew,10.0.3*%
%TF.CreationDate,2026-07-12T18:44:06+02:00*%
%TF.ProjectId,usb-c-expansion-card,7573622d-632d-4657-9870-616e73696f6e,1.0*%
%TF.SameCoordinates,Original*%
%TF.FileFunction,Plated,1,4,PTH,Mixed*%
%TF.FilePolarity,Positive*%
%FSLAX46Y46*%
G04 Gerber Fmt 4.6, Leading zero omitted, Abs format (unit mm)*
G04 Created by KiCad (PCBNEW 10.0.3) date 2026-07-12 18:44:06*
%MOMM*%
%LPD*%
G01*
G04 APERTURE LIST*
%TA.AperFunction,ViaDrill*%
%ADD10C,0.150000*%
%TD*%
%TA.AperFunction,ViaDrill*%
%ADD11C,0.300000*%
%TD*%
G04 aperture for slot hole*
%TA.AperFunction,ComponentDrill*%
%ADD12C,0.600000*%
%TD*%
%TA.AperFunction,ComponentDrill*%
%ADD13C,2.200000*%
%TD*%
G04 APERTURE END LIST*
D10*
X127925500Y-131072614D03*
X127925500Y-133670690D03*
X127925500Y-136268766D03*
X127925500Y-138866842D03*
X127925500Y-141464918D03*
X127925500Y-144062994D03*
X127925500Y-149259146D03*
X127925500Y-151857222D03*
X127925500Y-154455298D03*
X128675500Y-129773576D03*
X128675500Y-132371652D03*
X128675500Y-134969728D03*
X128675500Y-137567804D03*
X128675500Y-140165880D03*
X128675500Y-142763956D03*
X128675500Y-150558184D03*
X128675500Y-153156260D03*
X128675500Y-155754336D03*
X129425500Y-128474538D03*
X129425500Y-131072614D03*
X129425500Y-133670690D03*
X129425500Y-136268766D03*
X129425500Y-138866842D03*
X129425500Y-141464918D03*
X129425500Y-144062994D03*
X129425500Y-149259146D03*
X129425500Y-151857222D03*
X129425500Y-154455298D03*
X130175500Y-129773576D03*
X130175500Y-132371652D03*
X130175500Y-134969728D03*
X130175500Y-137567804D03*
X130175500Y-140165880D03*
X130175500Y-150558184D03*
X130175500Y-153156260D03*
X130175500Y-155754336D03*
X130925500Y-128474538D03*
X130925500Y-131072614D03*
X130925500Y-133670690D03*
X130925500Y-136268766D03*
X130925500Y-138866842D03*
X130925500Y-141464918D03*
X130925500Y-146661070D03*
X130925500Y-149259146D03*
X130925500Y-151857222D03*
X130925500Y-154455298D03*
X131675500Y-129773576D03*
X131675500Y-132371652D03*
X131675500Y-134969728D03*
X131675500Y-145362032D03*
X131675500Y-147960108D03*
X131675500Y-150558184D03*
X131675500Y-153156260D03*
X131675500Y-155754336D03*
X132425500Y-128474538D03*
X132425500Y-131072614D03*
X132425500Y-133670690D03*
X132425500Y-146661070D03*
X132425500Y-149259146D03*
X132425500Y-151857222D03*
X132425500Y-154455298D03*
X133175500Y-129773576D03*
X133175500Y-132371652D03*
X133175500Y-134969728D03*
X133175500Y-137567804D03*
X133175500Y-140165880D03*
X133175500Y-147960108D03*
X133175500Y-150558184D03*
X133175500Y-153156260D03*
X133175500Y-155754336D03*
X133925500Y-128474538D03*
X133925500Y-131072614D03*
X133925500Y-133670690D03*
X133925500Y-136268766D03*
X133925500Y-138866842D03*
X133925500Y-141464918D03*
X133925500Y-149259146D03*
X133925500Y-151857222D03*
X133925500Y-154455298D03*
X134675500Y-129773576D03*
X134675500Y-132371652D03*
X134675500Y-145362032D03*
X134675500Y-147960108D03*
X134675500Y-153156260D03*
X135425500Y-131072614D03*
X135425500Y-151857222D03*
X136137500Y-139937500D03*
X136137500Y-142212500D03*
X136175500Y-134969728D03*
X136175500Y-137567804D03*
X136175500Y-153156260D03*
X136925500Y-131072614D03*
X136925500Y-133670690D03*
X136925500Y-136268766D03*
X136925500Y-138866842D03*
X136925500Y-144062994D03*
X137675500Y-134969728D03*
X137675500Y-137567804D03*
X137675500Y-145362032D03*
X137750000Y-150565000D03*
X138250000Y-150565000D03*
X138425500Y-133670690D03*
X138425500Y-136268766D03*
X138425500Y-138866842D03*
X138500000Y-149265000D03*
X138740000Y-129040000D03*
X139175500Y-140165880D03*
X139175500Y-142763956D03*
X139250000Y-150565000D03*
X139500000Y-149250000D03*
X139925500Y-144062994D03*
X140250000Y-150565000D03*
X140675500Y-132371652D03*
X140675500Y-134969728D03*
X140675500Y-137567804D03*
X140675500Y-140165880D03*
X140675500Y-142763956D03*
X140750000Y-150565000D03*
X141240000Y-129040000D03*
X141350000Y-139862500D03*
X141350000Y-142137500D03*
X141500000Y-149265000D03*
X141750000Y-150565000D03*
X142175500Y-145362032D03*
X142175500Y-147960108D03*
X142250000Y-150565000D03*
X142925500Y-131072614D03*
X143675500Y-134969728D03*
X143675500Y-137567804D03*
X143675500Y-153156260D03*
X144425500Y-131072614D03*
X144425500Y-151857222D03*
X145175500Y-129773576D03*
X145175500Y-132371652D03*
X145175500Y-145362032D03*
X145175500Y-147960108D03*
X145175500Y-153156260D03*
X145925500Y-128474538D03*
X145925500Y-131072614D03*
X145925500Y-133670690D03*
X145925500Y-136268766D03*
X145925500Y-138866842D03*
X145925500Y-141464918D03*
X145925500Y-149259146D03*
X145925500Y-151857222D03*
X145925500Y-154455298D03*
X146675500Y-129773576D03*
X146675500Y-132371652D03*
X146675500Y-137567804D03*
X146675500Y-140165880D03*
X146675500Y-142763956D03*
X146675500Y-145362032D03*
X146675500Y-147960108D03*
X146675500Y-150558184D03*
X146675500Y-153156260D03*
X146675500Y-155754336D03*
X147425500Y-128474538D03*
X147425500Y-131072614D03*
X147425500Y-133670690D03*
X147425500Y-149259146D03*
X147425500Y-151857222D03*
X147425500Y-154455298D03*
X148175500Y-129773576D03*
X148175500Y-132371652D03*
X148175500Y-134969728D03*
X148175500Y-147960108D03*
X148175500Y-150558184D03*
X148175500Y-153156260D03*
X148175500Y-155754336D03*
X148925500Y-128474538D03*
X148925500Y-131072614D03*
X148925500Y-133670690D03*
X148925500Y-136268766D03*
X148925500Y-138866842D03*
X148925500Y-141464918D03*
X148925500Y-146661070D03*
X148925500Y-149259146D03*
X148925500Y-151857222D03*
X148925500Y-154455298D03*
X149675500Y-129773576D03*
X149675500Y-132371652D03*
X149675500Y-134969728D03*
X149675500Y-137567804D03*
X149675500Y-140165880D03*
X149675500Y-142763956D03*
X149675500Y-150558184D03*
X149675500Y-153156260D03*
X149675500Y-155754336D03*
X150425500Y-128474538D03*
X150425500Y-131072614D03*
X150425500Y-133670690D03*
X150425500Y-136268766D03*
X150425500Y-138866842D03*
X150425500Y-141464918D03*
X150425500Y-144062994D03*
X150425500Y-149259146D03*
X150425500Y-151857222D03*
X150425500Y-154455298D03*
X151175500Y-129773576D03*
X151175500Y-132371652D03*
X151175500Y-134969728D03*
X151175500Y-137567804D03*
X151175500Y-140165880D03*
X151175500Y-142763956D03*
X151175500Y-150558184D03*
X151175500Y-153156260D03*
X151175500Y-155754336D03*
X151925500Y-131072614D03*
X151925500Y-133670690D03*
X151925500Y-136268766D03*
X151925500Y-138866842D03*
X151925500Y-141464918D03*
X151925500Y-144062994D03*
X151925500Y-149259146D03*
X151925500Y-151857222D03*
X151925500Y-154455298D03*
X152675500Y-132371652D03*
X152675500Y-134969728D03*
X152675500Y-137567804D03*
X152675500Y-140165880D03*
X152675500Y-142763956D03*
X152675500Y-150558184D03*
X152675500Y-153156260D03*
X152675500Y-155754336D03*
D11*
X130625000Y-143362500D03*
X133725000Y-143362500D03*
X146450000Y-143662500D03*
X148925000Y-143637500D03*
%TO.C,J1*%
D12*
X135680000Y-150175000D02*
X135680000Y-149175000D01*
X135680000Y-155785000D02*
X135680000Y-154285000D01*
X144320000Y-150175000D02*
X144320000Y-149175000D01*
X144320000Y-155785000D02*
X144320000Y-154285000D01*
D13*
%TO.C,H1*%
X128700000Y-146500000D03*
%TO.C,H2*%
X151275000Y-146500000D03*
M02*
